<svg id="Capa_1" enable-background="new 0 0 512 512" height="512" viewBox="0 0 512 512" width="512" xmlns="http://www.w3.org/2000/svg"><g><g><g><path d="m171.865 472.692c-1.949 0-3.897-.744-5.384-2.23-2.974-2.973-2.974-7.795 0-10.768l27.178-27.178c4.315-4.315 6.691-10.05 6.691-16.152v-36.663c0-4.205 3.409-7.614 7.614-7.614s7.614 3.409 7.614 7.614v36.663c0 10.168-3.96 19.729-11.151 26.919l-27.178 27.178c-1.487 1.487-3.435 2.231-5.384 2.231z" fill="#b2ebf9"/></g><g><path d="m255.857 503.777c-4.205 0-7.614-3.409-7.614-7.614v-116.462c0-4.205 3.409-7.614 7.614-7.614s7.614 3.409 7.614 7.614v116.461c0 4.206-3.409 7.615-7.614 7.615z" fill="#b2ebf9"/></g><circle cx="172.536" cy="465.078" fill="#fcb1ee" r="15.837"/><g><path d="m339.849 472.692c1.949 0 3.897-.744 5.384-2.23 2.974-2.973 2.974-7.795 0-10.768l-27.178-27.178c-4.315-4.315-6.691-10.05-6.691-16.152v-36.663c0-4.205-3.409-7.614-7.614-7.614s-7.614 3.409-7.614 7.614v36.663c0 10.168 3.96 19.729 11.151 26.919l27.178 27.178c1.487 1.487 3.435 2.231 5.384 2.231z" fill="#b2ebf9"/></g><circle cx="339.178" cy="465.078" fill="#fcb1ee" r="15.837"/><g><path d="m55.091 336.525c-1.949 0-3.897-.744-5.384-2.23-2.974-2.973-2.974-7.795 0-10.768l27.178-27.178c7.191-7.191 16.751-11.151 26.919-11.151h62.043c4.205 0 7.614 3.409 7.614 7.614s-3.409 7.614-7.614 7.614h-62.043c-6.101 0-11.837 2.376-16.152 6.691l-27.178 27.178c-1.486 1.486-3.434 2.23-5.383 2.23z" fill="#b2ebf9"/></g><g><path d="m165.848 205.981h-62.043c-10.168 0-19.729-3.96-26.919-11.151l-27.178-27.178c-2.974-2.973-2.974-7.794 0-10.768 2.973-2.973 7.795-2.973 10.768 0l27.178 27.178c4.315 4.315 10.05 6.691 16.152 6.691h62.043c4.205 0 7.614 3.409 7.614 7.614-.001 4.205-3.41 7.614-7.615 7.614z" fill="#b2ebf9"/></g><g><path d="m156.206 253.204h-131.69c-4.205 0-7.614-3.409-7.614-7.614s3.409-7.614 7.614-7.614h131.69c4.205 0 7.614 3.409 7.614 7.614s-3.409 7.614-7.614 7.614z" fill="#b2ebf9"/></g><circle cx="55.091" cy="328.911" fill="#fcb1ee" r="15.837"/><path d="m24.025 225.285c2.103 0 4.187.34 6.095.934 8.265 2.571 12.179 10.259 12.179 19.37 0 11.214-7.06 18.274-18.274 18.274-9.069 0-16.746-3.916-19.352-12.121-.617-1.941-.952-4.008-.952-6.153 0-11.213 9.09-20.304 20.304-20.304z" fill="#fcb1ee"/><path d="m30.12 226.219c.617 1.941 1.012 4.027 1.012 6.173 0 11.214-9.09 20.304-20.304 20.304-2.145 0-4.213-.337-6.155-.954 2.607 8.205 10.284 14.151 19.352 14.151 11.214 0 20.304-9.091 20.304-20.304 0-9.068-6.004-16.763-14.209-19.37z" fill="#ef97d6"/><circle cx="55.091" cy="162.268" fill="#fcb1ee" r="15.837"/><g><path d="m408.185 205.981h-62.043c-4.205 0-7.614-3.409-7.614-7.614s3.409-7.614 7.614-7.614h62.043c6.101 0 11.837-2.376 16.152-6.691l27.178-27.178c2.973-2.973 7.794-2.973 10.768 0s2.974 7.794 0 10.768l-27.178 27.178c-7.191 7.191-16.751 11.151-26.92 11.151z" fill="#b2ebf9"/></g><g><path d="m456.899 336.525c-1.949 0-3.897-.744-5.384-2.23l-27.178-27.178c-4.315-4.315-10.05-6.691-16.152-6.691h-62.043c-4.205 0-7.614-3.409-7.614-7.614s3.409-7.614 7.614-7.614h62.043c10.168 0 19.729 3.96 26.919 11.151l27.178 27.178c2.974 2.973 2.974 7.794 0 10.768-1.486 1.486-3.434 2.23-5.383 2.23z" fill="#b2ebf9"/></g><g><path d="m487.484 253.204h-131.69c-4.205 0-7.614-3.409-7.614-7.614s3.409-7.614 7.614-7.614h131.69c4.205 0 7.614 3.409 7.614 7.614s-3.409 7.614-7.614 7.614z" fill="#b2ebf9"/></g><g fill="#fcb1ee"><circle cx="456.899" cy="162.268" r="15.837"/><circle cx="456.899" cy="328.911" r="15.837"/><path d="m255.857 471.392c2.103 0 4.188.34 6.095.934 8.265 2.571 12.179 10.259 12.179 19.37 0 11.214-7.06 18.274-18.274 18.274-9.069 0-16.746-3.916-19.352-12.121-.617-1.941-.952-4.008-.952-6.153 0-11.214 9.09-20.304 20.304-20.304z"/></g><path d="m261.952 472.325c.617 1.941 1.012 4.027 1.012 6.173 0 11.214-9.09 20.304-20.304 20.304-2.145 0-4.213-.337-6.155-.954 2.607 8.205 10.284 14.151 19.352 14.151 11.214 0 20.304-9.091 20.304-20.304 0-9.067-6.004-16.763-14.209-19.37z" fill="#ef97d6"/><path d="m487.975 225.285c2.103 0 4.188.34 6.095.934 8.265 2.571 12.179 10.259 12.179 19.37 0 11.214-7.06 18.274-18.274 18.274-9.069 0-16.746-3.916-19.352-12.121-.617-1.941-.952-4.008-.952-6.153 0-11.213 9.091-20.304 20.304-20.304z" fill="#fcb1ee"/><path d="m494.07 226.219c.617 1.941 1.012 4.027 1.012 6.173 0 11.214-9.09 20.304-20.304 20.304-2.145 0-4.213-.337-6.155-.954 2.607 8.205 10.284 14.151 19.352 14.151 11.214 0 20.304-9.091 20.304-20.304 0-9.068-6.004-16.763-14.209-19.37z" fill="#ef97d6"/></g><g><path d="m248.391 396.549c-6.183 7.553-15.573 12.375-26.09 12.375-13.451 0-25.065-7.888-30.465-19.289-1.513.162-7.435-2.992-8.988-2.992-3.898 0-3.275 2.728-6.869 1.773-16.283-4.315-28.841-17.776-31.856-34.557-.457-2.528 1.973-4.624 1.973-7.284 0-2.609-2.42-5.68-1.984-8.168-12.619-4.873-21.572-17.106-21.572-31.441 0-4.721.964-9.198 2.71-13.269.041-.091.091-.193.132-.294-2.294-1.435-3.205-4.938-5.16-6.791-1.973-1.87-4.985-2.092-6.546-4.326-4.609-6.558-7.319-14.558-7.319-23.187 0-10.721 4.182-20.466 10.994-27.705-2.274-3.949.16-6.427.16-11.31 0-1.259-3.653-4.608-3.48-5.826 1.259-9.167 7.137-16.863 15.207-20.67-.853-2.964-1.309-6.081-1.309-9.309 0-16.588 11.979-30.365 27.755-33.177-.518-2.345 2.649-5.042 2.649-7.549 0-2.883-3.075-5.415-2.395-8.085 3.716-14.568 16.923-25.349 32.658-25.349 5.279 0 10.263 1.218 14.71 3.381.773-2.469 5.42-1.538 6.829-3.644 1.441-2.153-.343-7.333 1.638-8.986 4.68-3.908 10.7-6.254 17.268-6.254 7.594 0 14.456 3.137 19.349 8.193 4.721 4.843 4.568 31.766 4.568 39.075v223.181c.001 8.094.184 25.677-4.567 31.484z" fill="#fdc"/><g fill="#ffcbbb"><path d="m154.162 209.103c0 4.213-3.411 7.614-7.614 7.614-9.035 0-23.004 8.142-29.196 14.68-2.274-3.949-3.583-8.528-3.583-13.411 0-1.259.091-2.508.264-3.726 8.842-8.264 20.273-12.771 32.516-12.771 4.202 0 7.613 3.411 7.613 7.614z"/><path d="m153.076 278.289c-1.442 2.355-3.939 3.655-6.507 3.655-1.35 0-2.721-.365-3.959-1.117-1.553-.944-2.985-2.041-4.284-3.239-6.609 4.284-11.664 12.873-12.943 15.817-4.609-2.883-8.599-6.67-11.705-11.116 3.035-5.716 8.751-12.69 16.943-17.837-.497-2.041-.761-4.162-.761-6.335 0-4.203 3.401-7.614 7.614-7.614 4.203 0 7.614 3.411 7.614 7.614 0 4 2.041 7.624 5.451 9.715 3.593 2.183 4.72 6.873 2.537 10.457z"/><path d="m225.885 126.283c-1.279.843-2.721 1.239-4.152 1.239-2.487 0-4.924-1.218-6.385-3.452-2.802-4.294-8.396-8.751-12.04-10.568 1.563-4.995 4.548-9.36 8.466-12.629.173.071.335.142.497.223 6.071 3.015 11.543 8.081 15.827 14.649 2.304 3.523 1.309 8.234-2.213 10.538z"/><path d="m215.236 152.557c-2.629 3.289-7.421 3.817-10.7 1.188-2.832-2.264-6.254-3.462-9.888-3.462-8.731 0-15.827 7.106-15.827 15.837 0 4.203-3.411 7.614-7.614 7.614-4.213 0-7.614-3.411-7.614-7.614 0-5.655 1.523-10.964 4.172-15.533-1.756-.355-3.563-.538-5.37-.538-1.655 0-4.893.69-6.71 1.056-.518-2.345-.792-4.771-.792-7.279 0-2.883.365-5.685 1.046-8.355 1.959-.355 4.142-.65 6.457-.65 6.122 0 12.131 1.35 17.644 3.898 4.355-2.335 9.33-3.665 14.609-3.665 7.035 0 13.918 2.416 19.4 6.802 3.288 2.63 3.816 7.422 1.187 10.701z"/><path d="m214.22 262.723c-2.738 2.032-5.995 3.106-9.419 3.106-8.729 0-15.831-7.102-15.831-15.832 0-4.206-3.408-7.614-7.614-7.614-4.205 0-7.614 3.408-7.614 7.614 0 17.126 13.933 31.06 31.059 31.06 6.717 0 13.112-2.112 18.494-6.106 3.377-2.506 4.083-7.275 1.576-10.652-2.506-3.377-7.276-4.082-10.651-1.576z"/><path d="m219.022 369.829c-6.335 4.446-13.786 6.792-21.542 6.792-2.081 0-4.132-.183-6.121-.508-.426 1.888-.67 3.817-.67 5.787 0 3.025.142 4.944 1.147 7.736-1.513.162-3.035.244-4.589.244-3.898 0-7.675-.508-11.269-1.462-.345-2.142-.518-4.315-.518-6.518 0-3.878.528-7.675 1.584-11.35-6.781-4.426-12.06-10.974-14.862-18.7-4.213 1.462-8.659 2.244-13.197 2.244-1.696 0-3.32-.071-4.863-.233-.457-2.528-.69-5.137-.69-7.797 0-2.609.244-5.167.68-7.655 1.218.142 3.441.457 4.873.457 3.878 0 7.644-.893 11.065-2.589.843-11.167 6.639-21.461 15.888-27.959 3.441-2.406 8.192-1.574 10.609 1.868 2.416 3.441 1.584 8.182-1.858 10.599-5.969 4.183-9.522 11.025-9.522 18.294 0 12.304 10.01 22.314 22.314 22.314 4.619 0 9.035-1.391 12.791-4.03 3.452-2.416 8.193-1.584 10.609 1.858s1.582 8.192-1.859 10.608z"/></g><path d="m263.609 396.549c6.182 7.553 15.602 8.704 26.119 8.704 13.451 0 22.467-7.041 27.867-18.441 1.513.162 14.344-1.56 17.938-2.515 16.283-4.315 25.654-13.435 28.669-30.216.457-2.528 2.111-15.747 1.674-18.234 12.619-4.873 21.291-15.674 21.291-30.009 0-4.721-2.402-8.362-4.148-12.433-.041-.091 18.825-27.806 18.825-36.435 0-10.721-2.333-18.335-9.145-25.573 2.274-3.949 2.939-16.882 2.766-18.1-1.259-9.167-6.85-15.64-14.92-19.447.853-2.964.754-8.004.754-11.232 0-16.588-16.345-29.506-24.995-31.512.518-2.345-2.649-5.042-2.649-7.549 0-2.883 3.075-5.415 2.395-8.085-3.716-14.568-16.923-25.349-32.658-25.349-5.279 0-10.263 1.218-14.71 3.381-.773-2.469-5.42-1.538-6.829-3.644-1.441-2.153.343-7.333-1.638-8.986-4.68-3.908-10.7-6.254-17.268-6.254-7.594 0-14.446 3.137-19.34 8.193-4.721 4.843-4.578 31.766-4.578 39.075v223.181c.002 8.09-.171 25.673 4.58 31.48z" fill="#fdc"/><path d="m389.45 306.968c0-4.721-.964-9.198-2.71-13.269-.041-.091-.091-.193-.132-.294 2.294-1.435 3.205-4.938 5.16-6.791 1.973-1.87 4.985-2.092 6.546-4.326 4.609-6.558 7.319-14.558 7.319-23.187 0-10.721-4.182-20.466-10.994-27.705 2.274-3.949-.16-6.427-.16-11.31 0-1.259 3.652-4.608 3.48-5.826-1.259-9.167-7.137-16.863-15.207-20.67.853-2.964 1.31-6.081 1.31-9.309 0-16.588-11.979-30.365-27.755-33.177 0 0 28.751 47.424 15.272 115.839-13.749 69.782-92.357 129.605-107.968 129.605 6.183 7.553 15.563 12.375 26.08 12.375 13.451 0 25.065-7.888 30.465-19.289 1.513.162 7.435-2.992 8.988-2.992 3.898 0 3.275 2.728 6.869 1.773 16.283-4.315 28.841-17.776 31.856-34.557.457-2.528-1.973-4.624-1.973-7.284 0-2.609 2.42-5.68 1.984-8.168 12.617-4.87 21.57-17.103 21.57-31.438z" fill="#ffcbbb"/><path d="m357.828 209.103c0 4.213 3.411 7.614 7.614 7.614 2.776 0 6.021.767 9.36 2.022 7.528 2.829 13.943 5.452 18.233 9.981 2.274-3.949 3.018-5.595 3.018-10.478 0-1.259.649-4.045.476-5.263-7.001-6.543-14.195-9.438-23.56-10.899-2.463-.384-4.978-.592-7.528-.592-4.202.001-7.613 3.412-7.613 7.615z" fill="#ffcbbb"/><path d="m398.222 217.986c0-1.259-.091-2.508-.264-3.726-7.001-6.543-15.624-10.719-24.988-12.18.821 5.227 1.459 10.787 1.833 16.658 7.529 2.828 15.546 8.128 19.836 12.658 2.273-3.948 3.583-8.527 3.583-13.41z" fill="#f7bdad"/><path d="m358.914 278.289c1.442 2.355 3.939 3.655 6.507 3.655 1.35 0 2.721-.365 3.959-1.117 1.553-.944 2.985-2.041 4.284-3.239 6.609 4.284 11.033 11.564 12.312 14.508 4.609-2.883 8.543-6.593 11.65-11.04-3.035-5.716-8.064-11.458-16.257-16.605.497-2.041.761-4.162.761-6.335 0-4.203-3.401-7.614-7.614-7.614-4.203 0-7.614 3.411-7.614 7.614 0 4-2.041 7.624-5.452 9.715-3.592 2.184-4.719 6.874-2.536 10.458z" fill="#ffcbbb"/><path d="m398.313 282.289c-3.035-5.716-8.751-12.69-16.943-17.837.497-2.041.761-4.162.761-6.335 0-4.203-3.401-7.614-7.614-7.614-.148 0-.287.004-.434.012-.577 5.323-1.4 10.808-2.507 16.429-.971 4.931-2.27 9.823-3.844 14.636.567-.182 1.118-.431 1.648-.753 1.553-.944 2.985-2.041 4.284-3.239 6.609 4.284 11.664 12.873 12.943 15.817 4.61-2.883 8.6-6.67 11.706-11.116z" fill="#f7bdad"/><path d="m286.106 126.283c1.279.843 2.721 1.239 4.152 1.239 2.487 0 4.924-1.218 6.385-3.452 2.802-4.294 8.396-8.751 12.04-10.568-1.563-4.995-4.548-9.36-8.466-12.629-.173.071-.335.142-.497.223-6.071 3.015-11.543 8.081-15.827 14.649-2.305 3.523-1.31 8.234 2.213 10.538z" fill="#ffcbbb"/><path d="m296.755 152.557c2.629 3.289 7.421 3.817 10.7 1.188 2.832-2.264 6.254-3.462 9.888-3.462 8.731 0 15.827 7.106 15.827 15.837 0 4.203 3.411 7.614 7.614 7.614 4.213 0 7.614-3.411 7.614-7.614 0-5.655-1.523-10.964-4.172-15.533 1.756-.355 3.563-.538 5.37-.538 1.655 0 4.893.69 6.71 1.056.518-2.345.792-4.771.792-7.279 0-2.883-.365-5.685-1.046-8.355-1.959-.355-4.142-.65-6.457-.65-6.122 0-12.131 1.35-17.644 3.898-4.355-2.335-9.33-3.665-14.609-3.665-7.035 0-13.918 2.416-19.4 6.802-3.289 2.63-3.816 7.422-1.187 10.701z" fill="#ffcbbb"/><path d="m297.77 262.723c2.738 2.032 5.995 3.106 9.419 3.106 8.729 0 15.831-7.102 15.831-15.832 0-4.206 3.408-7.614 7.614-7.614s7.614 3.408 7.614 7.614c0 17.126-13.933 31.06-31.059 31.06-6.717 0-13.112-2.112-18.494-6.106-3.377-2.506-4.083-7.275-1.576-10.652 2.506-3.377 7.276-4.082 10.651-1.576z" fill="#ffcbbb"/><path d="m292.968 369.829c2.477 1.739 5.125 3.156 7.896 4.238 4.314 1.684 8.924 2.554 13.646 2.554 2.081 0 4.132-.183 6.121-.508.426 1.888.67 3.817.67 5.787 0 3.025.363 3.334-.642 6.126 1.513.162 3.764.63 5.318.63 3.898 0 6.643-.7 10.237-1.654.345-2.142.315-2.899.315-5.102 0-3.878-.528-7.675-1.584-11.35 6.781-4.426 12.06-10.974 14.862-18.7 4.213 1.462 8.659 2.244 13.197 2.244 1.695 0 1.777.091 3.32-.071.457-2.528 1.401-5.289 1.401-7.949 0-2.609-.629-5.035-1.066-7.523-1.218.142-2.223.315-3.655.315-3.878 0-7.644-.893-11.065-2.589-.386-5.111-1.809-10.039-4.126-14.504-2.746-5.291-6.746-9.931-11.762-13.455-3.441-2.406-8.192-1.574-10.609 1.868-2.416 3.441-1.584 8.182 1.858 10.599 5.413 3.793 8.839 9.773 9.431 16.275.061.668.092 1.341.092 2.019 0 12.207-9.852 22.155-22.021 22.312-.097.001-.195.002-.292.002-4.619 0-9.035-1.391-12.791-4.03-3.452-2.416-8.193-1.584-10.609 1.858-2.416 3.441-1.583 8.192 1.858 10.608z" fill="#ffcbbb"/><path d="m314.802 361.391c-4.712 4.608-9.41 8.856-13.944 12.674 4.314 1.684 8.929 2.556 13.652 2.556 2.081 0 4.132-.183 6.121-.508.426 1.888.67 3.817.67 5.787 0 3.025-.142 4.944-1.147 7.736 1.513.162 3.035.244 4.589.244 3.898 0 7.675-.508 11.269-1.462.345-2.142.518-4.315.518-6.518 0-3.878-.528-7.675-1.584-11.35 6.781-4.426 12.06-10.974 14.862-18.7 4.213 1.462 8.659 2.244 13.197 2.244 1.696 0 3.32-.071 4.863-.233.457-2.528.69-5.137.69-7.797 0-2.609-.244-5.167-.68-7.655-1.218.142-3.441.457-4.873.457-3.878 0-7.644-.893-11.065-2.589-.386-5.111-1.809-10.039-4.126-14.504-3.498 5.289-7.22 10.397-11.082 15.287.061.668.092 1.341.092 2.019 0 12.206-9.852 22.154-22.022 22.312z" fill="#f7bdad"/><g><path d="m263.609 102.812v293.737c-2.419-2.956-4.339-8.431-5.65-13.094-.557-1.979-3.352-1.979-3.908 0-1.311 4.663-3.241 10.137-5.66 13.094v-293.737c2.423 2.485 4.364 7.364 5.68 11.524.599 1.893 3.269 1.893 3.867 0 1.317-4.16 3.248-9.039 5.671-11.524z" fill="#ffcbbb"/></g></g><g><g><path d="m203.007 26.371c0-1.951.745-3.901 2.235-5.388 13.553-13.532 31.528-20.983 50.615-20.983s37.062 7.451 50.615 20.982c2.977 2.97 2.981 7.791.009 10.768-2.971 2.976-7.792 2.98-10.768.009-10.678-10.66-24.832-16.531-39.856-16.531s-29.178 5.871-39.856 16.531c-2.976 2.971-7.797 2.967-10.768-.009-1.484-1.486-2.226-3.433-2.226-5.379z" fill="#fcb1ee"/></g><g><path d="m225.717 49.081c0-1.951.745-3.901 2.235-5.388 7.464-7.451 17.374-11.555 27.905-11.555s20.441 4.104 27.905 11.555c2.976 2.971 2.981 7.792.009 10.768-2.971 2.976-7.792 2.98-10.768.009-4.589-4.581-10.678-7.104-17.146-7.104s-12.557 2.523-17.146 7.104c-2.976 2.971-7.796 2.967-10.768-.009-1.484-1.487-2.226-3.433-2.226-5.38z" fill="#ef97d6"/></g></g><circle cx="255.856" cy="71.603" fill="#dd85d1" r="7.614"/></g></svg>