<svg id="Capa_1" enable-background="new 0 0 512 512" height="512" viewBox="0 0 512 512" width="512" xmlns="http://www.w3.org/2000/svg"><g><g><path d="m229.296 114.648c0 33.319-14.213 63.317-36.907 84.265-20.433 18.861-46.233 28.387-76.233 28.387s-58.816-9.527-79.25-28.387c-22.693-20.948-36.906-50.947-36.906-84.265 0-63.318 51.33-114.648 114.648-114.648s114.648 51.33 114.648 114.648z" fill="#eaf6ff"/><path d="m114.648 0c-5.241 0-10.398.359-15.453 1.04 56.009 7.547 99.195 55.531 99.195 113.608s-43.186 106.061-99.195 113.608c5.055.681 11.72-.956 16.961-.956 30 0 55.8-9.527 76.233-28.387 22.694-20.947 36.907-50.946 36.907-84.265 0-63.318-51.33-114.648-114.648-114.648z" fill="#d8ecfe"/><path d="m116.156 227.3c30 0 55.795-9.532 76.228-28.393-3.77-39.621-37.128-70.615-77.736-70.615-40.608 0-73.967 30.994-77.736 70.615 16.863 15.566 38.407 26.137 62.283 29.355 5.053.682 11.72-.962 16.961-.962z" fill="#f58a97"/><path d="m99.198 228.255c.019.003.038.005.056.008 31.567 4.236 66.048-4.96 91.238-27.648.637-.562 1.268-1.131 1.892-1.707-.971-10.21-3.921-19.84-8.44-28.521-17.205 30.859-48.251 52.95-84.746 57.868z" fill="#f07281"/><path d="m114.648 145.331c-23.341 0-42.263-18.922-42.263-42.263v-14.26c0-23.341 18.922-42.263 42.263-42.263 23.341 0 42.263 18.922 42.263 42.263v14.26c0 23.342-18.922 42.263-42.263 42.263z" fill="#ffcebf"/><path d="m114.648 46.546c-5.456 0-10.665 1.045-15.453 2.928 15.695 6.171 26.81 21.45 26.81 39.335v14.26c0 17.885-11.115 33.164-26.81 39.335 4.788 1.882 9.997 2.928 15.453 2.928 23.341 0 42.263-18.922 42.263-42.263v-14.26c0-23.342-18.922-42.263-42.263-42.263z" fill="#ffb09e"/></g><g><circle cx="397.352" cy="397.352" fill="#eaf6ff" r="114.648"/><path d="m397.352 282.704c-5.241 0-10.398.359-15.453 1.04 56.009 7.547 99.195 55.531 99.195 113.608s-43.186 106.061-99.195 113.608c5.055.681 10.211 1.04 15.453 1.04 63.318 0 114.648-51.33 114.648-114.648s-51.33-114.648-114.648-114.648z" fill="#d8ecfe"/><g><path d="m439.825 361.852h-84.946v-25.395c0-5.916 4.796-10.713 10.713-10.713h63.52c5.916 0 10.713 4.796 10.713 10.713z" fill="#b4e5f9"/><path d="m429.112 325.744h-30.905c5.917 0 10.713 4.796 10.713 10.713v25.395h30.905v-25.395c0-5.917-4.796-10.713-10.713-10.713z" fill="#8fd8fa"/><g><path d="m436.132 451.223h-77.56c-26.582 0-48.131-21.549-48.131-48.131 0-26.582 21.549-48.131 48.131-48.131h77.56c26.582 0 48.131 21.549 48.131 48.131 0 26.582-21.549 48.131-48.131 48.131z" fill="#8fd8fa"/><path d="m436.132 354.961h-30.905c26.582 0 48.131 21.549 48.131 48.131 0 26.582-21.549 48.131-48.131 48.131h30.905c26.582 0 48.131-21.549 48.131-48.131 0-26.582-21.549-48.131-48.131-48.131z" fill="#68cbf2"/><g fill="#fff"><circle cx="362.41" cy="403.038" r="18.137"/><circle cx="433.119" cy="403.038" r="18.137"/></g></g></g></g><g><path d="m27.487 352.576h215.46c11.857 0 17.367 14.709 8.427 22.498l-30.562 26.63c-7.589 6.612-11.944 16.185-11.944 26.25v56.559c0 15.181-12.306 27.487-27.487 27.487h-153.894c-15.181 0-27.487-12.306-27.487-27.487v-104.45c0-15.181 12.306-27.487 27.487-27.487z" fill="#ffe179"/><path d="m242.947 352.576h-30.905c11.857 0 17.366 14.709 8.427 22.498l-30.562 26.63c-7.589 6.612-11.944 16.185-11.944 26.25v56.559c0 15.181-12.306 27.487-27.487 27.487h30.905c15.181 0 27.487-12.306 27.487-27.487v-56.559c0-10.065 4.356-19.638 11.944-26.25l30.562-26.63c8.939-7.789 3.43-22.498-8.427-22.498z" fill="#fbd268"/><g><g><path d="m162.509 409.109h-123.59c-4.267 0-7.726-3.459-7.726-7.726s3.459-7.726 7.726-7.726h123.59c4.267 0 7.726 3.459 7.726 7.726s-3.459 7.726-7.726 7.726z" fill="#fff"/></g><g><path d="m162.509 440.014h-123.59c-4.267 0-7.726-3.459-7.726-7.726s3.459-7.726 7.726-7.726h123.59c4.267 0 7.726 3.459 7.726 7.726s-3.459 7.726-7.726 7.726z" fill="#fff"/></g><g><path d="m116.151 470.92h-77.232c-4.267 0-7.726-3.459-7.726-7.726s3.459-7.726 7.726-7.726h77.232c4.267 0 7.726 3.459 7.726 7.726 0 4.266-3.459 7.726-7.726 7.726z" fill="#fff"/></g></g></g><g><path d="m484.513 159.424h-215.46c-11.857 0-17.367-14.709-8.427-22.498l30.562-26.63c7.589-6.612 11.944-16.185 11.944-26.25v-56.559c.001-15.181 12.307-27.487 27.488-27.487h153.893c15.181 0 27.487 12.306 27.487 27.487v104.45c0 15.181-12.306 27.487-27.487 27.487z" fill="#ffe179"/><path d="m484.513 0h-30.905c15.181 0 27.487 12.306 27.487 27.487v104.45c0 15.181-12.306 27.487-27.487 27.487h30.905c15.181 0 27.487-12.306 27.487-27.487v-104.45c0-15.181-12.306-27.487-27.487-27.487z" fill="#fbd268"/><g><g><path d="m465.642 55.833h-116.151c-4.268 0-7.726-3.459-7.726-7.726s3.459-7.726 7.726-7.726h116.151c4.268 0 7.726 3.459 7.726 7.726s-3.459 7.726-7.726 7.726z" fill="#fff"/></g><g><path d="m465.642 86.738h-116.151c-4.268 0-7.726-3.459-7.726-7.726s3.459-7.726 7.726-7.726h116.151c4.268 0 7.726 3.459 7.726 7.726s-3.459 7.726-7.726 7.726z" fill="#fff"/></g><g><path d="m419.284 117.644h-69.793c-4.268 0-7.726-3.459-7.726-7.726s3.459-7.726 7.726-7.726h69.793c4.268 0 7.726 3.459 7.726 7.726s-3.459 7.726-7.726 7.726z" fill="#fff"/></g></g></g></g></svg>