<svg height="512" viewBox="0 0 64 64" width="512" xmlns="http://www.w3.org/2000/svg"><g id="Icons"><g><g><path d="m46 9v37c0 .55-.45 1-1 1h-26c-.55 0-1-.45-1-1v-37c0-1.1.9-2 2-2h24c1.1 0 2 .9 2 2z" fill="#f0f0f0"/></g><g><path d="m39 39h-11l-4 2 4 2h11c.552 0 1-.448 1-1v-2c0-.552-.448-1-1-1z" fill="#d2d2d2"/></g><g><path d="m26 47h-6l-.52-.52c-.88-.88-.83-2.34.16-3.15.86-.7 2.14-.55 2.93.24z" fill="#d2d2d2"/></g><g><path d="m44.52 46.48-.52.52h-5.99c.65-.65.99-1 3.42-3.43.79-.79 2.07-.94 2.93-.24.99.81 1.04 2.27.16 3.15z" fill="#d2d2d2"/></g><g><g><g><path d="m39.146 20.854-1.5-1.5c-.195-.195-.195-.512 0-.707s.512-.195.707 0l1.146 1.146 2.646-2.646c.195-.195.512-.195.707 0s.195.512 0 .707l-3 3c-.194.195-.51.195-.706 0z" fill="#0a5078"/></g></g><g><g><path d="m39.146 27.854-1.5-1.5c-.195-.195-.195-.512 0-.707s.512-.195.707 0l1.146 1.146 2.646-2.646c.195-.195.512-.195.707 0s.195.512 0 .707l-3 3c-.194.195-.51.195-.706 0z" fill="#0a5078"/></g></g><g><g><path d="m39.146 34.854-1.5-1.5c-.195-.195-.195-.512 0-.707s.512-.195.707 0l1.146 1.146 2.646-2.646c.195-.195.512-.195.707 0s.195.512 0 .707l-3 3c-.194.195-.51.195-.706 0z" fill="#0a5078"/></g></g><g><g><path d="m26.5 32.5c0-.276-.224-.5-.5-.5h-4.5c-.276 0-.5.224-.5.5 0 .276.224.5.5.5h4.5c.276 0 .5-.223.5-.5z" fill="#0a5078"/></g></g><g><g><path d="m34.999 32.5c0-.276-.224-.5-.5-.5h-6.499c-.276 0-.5.224-.5.5 0 .276.224.5.5.5h6.5c.275 0 .499-.223.499-.5z" fill="#0a5078"/></g></g><g><g><path d="m29.5 34.5c0 .276.224.5.5.5h4.5c.276 0 .5-.224.5-.5 0-.276-.224-.5-.5-.5h-4.5c-.276 0-.5.224-.5.5z" fill="#0a5078"/></g></g><g><g><path d="m21 34.5c0 .276.224.5.5.5h6.5c.276 0 .5-.224.5-.5 0-.276-.224-.5-.5-.5h-6.5c-.276 0-.5.224-.5.5z" fill="#0a5078"/></g></g><g><g><path d="m26.5 25.5c0-.276-.224-.5-.5-.5h-4.5c-.276 0-.5.224-.5.5 0 .276.224.5.5.5h4.5c.276 0 .5-.223.5-.5z" fill="#0a5078"/></g></g><g><g><path d="m34.999 25.5c0-.276-.224-.5-.5-.5h-6.499c-.276 0-.5.224-.5.5 0 .276.224.5.5.5h6.5c.275 0 .499-.223.499-.5z" fill="#0a5078"/></g></g><g><g><path d="m29.5 27.5c0 .276.224.5.5.5h4.5c.276 0 .5-.224.5-.5 0-.276-.224-.5-.5-.5h-4.5c-.276 0-.5.224-.5.5z" fill="#0a5078"/></g></g><g><g><path d="m21 27.5c0 .276.224.5.5.5h6.5c.276 0 .5-.224.5-.5 0-.276-.224-.5-.5-.5h-6.5c-.276 0-.5.224-.5.5z" fill="#0a5078"/></g></g><g><g><path d="m26.5 18.5c0-.276-.224-.5-.5-.5h-4.5c-.276 0-.5.224-.5.5 0 .276.224.5.5.5h4.5c.276 0 .5-.223.5-.5z" fill="#0a5078"/></g></g><g><g><path d="m34.999 18.5c0-.276-.224-.5-.5-.5h-6.499c-.276 0-.5.224-.5.5 0 .276.224.5.5.5h6.5c.275 0 .499-.223.499-.5z" fill="#0a5078"/></g></g><g><g><path d="m29.5 20.5c0 .276.224.5.5.5h4.5c.276 0 .5-.224.5-.5 0-.276-.224-.5-.5-.5h-4.5c-.276 0-.5.224-.5.5z" fill="#0a5078"/></g></g><g><g><path d="m21 20.5c0 .276.224.5.5.5h6.5c.276 0 .5-.224.5-.5 0-.276-.224-.5-.5-.5h-6.5c-.276 0-.5.224-.5.5z" fill="#0a5078"/></g></g></g><g><path d="m46 9v5h-28v-5c0-1.1.9-2 2-2h24c1.1 0 2 .9 2 2z" fill="#c80a50"/></g><g><g><path d="m25 7v3c0 .55-.45 1-1 1s-1-.45-1-1v-3z" fill="#a00028"/></g><g><path d="m33 7v3c0 .55-.45 1-1 1s-1-.45-1-1v-3z" fill="#a00028"/></g><g><path d="m41 7v3c0 .55-.45 1-1 1s-1-.45-1-1v-3z" fill="#a00028"/></g><g><path d="m24 10c-.552 0-1-.448-1-1v-4c0-.552.448-1 1-1 .552 0 1 .448 1 1v4c0 .552-.448 1-1 1z" fill="#0a5078"/></g><g><path d="m32 10c-.552 0-1-.448-1-1v-4c0-.552.448-1 1-1 .552 0 1 .448 1 1v4c0 .552-.448 1-1 1z" fill="#0a5078"/></g><g><path d="m40 10c-.552 0-1-.448-1-1v-4c0-.552.448-1 1-1 .552 0 1 .448 1 1v4c0 .552-.448 1-1 1z" fill="#0a5078"/></g></g><g><path d="m30 52.489v7.51h-10v-2.39c0-1.01-.5-1.94-1.34-2.5l-9.77-6.51c-.56-.37-.89-.99-.89-1.66v-6.94c0-1.21 1.08-2.18 2.34-1.97.98.16 1.66 1.08 1.66 2.08v5.27c0 .35.19.68.49.86l7.16 4.22c.76.45 1.76.25 2.29-.5.5-.7.34-1.68-.28-2.3l-2.18-2.18c-.88-.88-.83-2.34.16-3.15.86-.7 2.14-.55 2.93.24 3.812 3.811 2.922 2.922 5.01 5.01 1 1 2.42 2.28 2.42 4.91z" fill="#f0c8a0"/></g><g><path d="m56 39.999v6.94c0 .67-.33 1.29-.89 1.66l-9.77 6.51c-.84.56-1.34 1.49-1.34 2.5v2.39h-10v-7.51c0-2.6 1.42-3.91 2.42-4.91 2.444-2.432 1.326-1.314 5.01-5.01.79-.79 2.07-.94 2.93-.24.99.81 1.04 2.27.16 3.15l-2.18 2.18c-.62.62-.78 1.6-.28 2.3.53.75 1.53.95 2.29.5l7.16-4.22c.3-.18.49-.51.49-.86v-5.27c0-1 .68-1.92 1.66-2.08 1.26-.21 2.34.76 2.34 1.97z" fill="#f0c8a0"/></g><g><g><path d="m28 38h8v4h-8z" fill="#00a0c8"/></g><g><path d="m39 42h-2v-4h2c.552 0 1 .448 1 1v2c0 .552-.448 1-1 1z" fill="#c80a50"/></g><g><path d="m36 38h1v4h-1z" fill="#fab400"/></g><g><path d="m28 38v4l-2-1v-2z" fill="#f0c8a0"/></g><g><path d="m26 39v2l-2-1z" fill="#0a5078"/></g><g><path d="m28 39.5h8v1h-8z" fill="#f0f0f0"/></g></g><g><g><g><path d="m55 28h-2c-.553 0-1-.448-1-1s.447-1 1-1h2c.553 0 1 .448 1 1s-.447 1-1 1z" fill="#c80a50"/></g></g><g><g><g><path d="m51.707 32.707-1.414-1.415c-.391-.391-.391-1.024 0-1.414.391-.391 1.023-.391 1.414 0l1.414 1.415c.391.391.391 1.024 0 1.414-.391.391-1.023.391-1.414 0z" fill="#00a0c8"/></g></g></g><g><g><g><path d="m50.293 24.121c-.391-.391-.391-1.023 0-1.414l1.414-1.414c.391-.391 1.023-.391 1.414 0s.391 1.023 0 1.414l-1.414 1.414c-.391.391-1.023.391-1.414 0z" fill="#fab400"/></g></g></g></g><g><g><g><path d="m9 26h2c.553 0 1 .448 1 1s-.447 1-1 1h-2c-.553 0-1-.448-1-1s.447-1 1-1z" fill="#c80a50"/></g></g><g><g><g><path d="m12.293 21.293 1.414 1.415c.391.391.391 1.024 0 1.414-.391.391-1.023.391-1.414 0l-1.414-1.415c-.391-.391-.391-1.024 0-1.414.391-.391 1.023-.391 1.414 0z" fill="#00a0c8"/></g></g></g><g><g><g><path d="m13.707 29.879c.391.391.391 1.023 0 1.414l-1.414 1.414c-.391.391-1.023.391-1.414 0s-.391-1.023 0-1.414l1.414-1.414c.391-.391 1.023-.391 1.414 0z" fill="#fab400"/></g></g></g></g></g></g></svg>