<svg id="Layer_1" enable-background="new 0 0 132 132" height="512" viewBox="0 0 132 132" width="512" xmlns="http://www.w3.org/2000/svg"><g><g><g fill="#e4e8f4"><path d="m84.1569 122.4593-.018 1.8854 6.9593 4.018 6.9194-4.0213.0181-1.8852-6.9593-4.0181z"/><path d="m99.8414 68.8484 6.9592 4.0179 6.9194-4.0212.0181-1.8853-6.9594-4.018-6.9195 4.0212z"/><path d="m123.0422 99.7528-6.9196 4.0212-.0178 1.8853 6.9592 4.0181 6.9195-4.0213.018-1.8854z"/><path d="m123.0385 88.161c.01-.4501-.27-.91-.86-1.25l-30.36-17.9401h-.01l-.03-10.1801c8.15-6.9399 14.2101-18.8599 14.1801-28.8899-.02-5.8-2.0901-9.89-5.4401-11.8201l-5.38-3.11c-2.45-1.4301-5.61-1.66-9.14-.5399-.6-.6101-1.27-1.1201-2-1.51.08.0399.16.0699.24.1199l-5.42-3.1299c-2.1801-1.27-4.9301-1.51-7.9901-.66-.78-.85-1.69-1.51-2.71-1.9601.26.1201.52.24.76.3801l-5.42-3.1201c-3.17-1.85-7.57-1.52-12.37 1.25-7.48 4.3201-14.15 13.9401-16.42 23.4301-1.07.37-2.13.86-3.23 1.5-8.09 4.67-15.19 15.48-16.84 25.48-7.5 7.15-12.62 18.2301-12.6 27.4501.02 5.84 2.09 9.96 5.42 11.8999l5.42 3.1301c-.02-.02-.04-.03-.06-.05 3.35 1.99 7.99 1.75 13.11-1.21l7.02-4.05.02 7.85 1.96 1.15.01 3.58 30.36 16.9301c1.16.6799 3.04.6799 4.2 0l52.71-30.9301c.5901-.35.88-.7999.88-1.25zm-.88 1.23v-.01c.11-.0601.21-.13.3-.2-.09.08-.19.1399-.3.21z"/><path d="m36.4404 114.2469.0136-.0101.0111-3.9227-4.0249-2.3239-3.467 1.5876c-.9665-.3281-2.0399-.5765-3.1278-.7096l-.5658-2.5898-5.6808.0089-.5359 2.7141c-.9639.1685-1.8659.408-2.7216.7273l-3.8685-1.7384-3.9988 2.3237-.0111 3.9229.009.0066-2.9146.2039-.0111 3.9229.0185 2.0525 4.5039.3279-1.5295 1.1293-.0111 2.6937 4.025 2.3239 4.475-2.0313c.629.2041 1.3038.3815 1.9935.4968l.7073 3.2373 5.681.0088.6103-3.0955c.811-.0975 1.591-.2661 2.3707-.4878l.0112-2.6937-.0111 2.6937 4.1296 1.8715 3.9988-2.3239.0111-2.6937-1.5323-1.1364 4.4533-.2942.0111-2.6938-.0186-3.2994zm-2.2086 4.6285c-.2091.2617-.4487.5166-.7153.7694h-.0001c.2666-.2528.5062-.5077.7154-.7694zm-4.3599-2.7673c-.0001-.0742-.011-.1483-.0178-.2225.0068.0742.0177.1483.0178.2225zm-.0343-.411c-.0126-.0757-.0364-.1506-.056-.2261.0197.0755.0434.1504.056.2261zm-.1021-.4076c-.0253-.0756-.062-.1499-.0944-.2247.0325.075.0691.1492.0944.2247zm-.1701-.4021c-.0383-.0748-.0881-.1478-.1337-.2216.0456.0738.0954.1468.1337.2216zm-.2377-.3925c-.0529-.0752-.1174-.1481-.1779-.2218.0605.0737.1251.1464.1779.2218zm-.3056-.3805c-.0675-.0742-.1469-.1455-.2225-.2178.0756.0723.155.1435.2225.2178zm-.8143-.7117c-.1584-.1122-.3281-.2209-.5091-.3254.1811.1044.3507.2132.5091.3254zm.4408.3464c-.0941-.0823-.2005-.1611-.3055-.2402.1049.0791.2113.158.3055.2402zm-12.303.0034c-.0533.047-.097.0963-.1468.1442.0498-.0478.0934-.0972.1468-.1442zm.4356-.3442c-.0524.0374-.096.0771-.1458.1152.0498-.038.0935-.0778.1458-.1152zm-.8048.7073c-.0445.0491-.0793.1001-.1202.1501.041-.05.0757-.101.1202-.1501zm-.3017.3774c-.0386.0554-.0673.1124-.1018.1685.0345-.056.0631-.1131.1018-.1685zm-.2348.3899c-.0293.0574-.0485.116-.0735.1738.025-.0578.0442-.1164.0735-.1738zm-.1677.3989c-.0202.0605-.0302.1218-.0458.1829.0156-.061.0256-.1223.0458-.1829zm-.1006.4046c-.0105.0635-.0107.1272-.0162.1909.0056-.0637.0057-.1274.0162-.1909zm-3.9892 2.4507c.1006.1995.228.3969.3746.5898-.1466-.1929-.2739-.3903-.3746-.5897zm-.0002.0466-.0049 1.7482-.0023.0016zm16.5505.9336c-2.8668 1.666-7.5422 1.666-10.4277.0001-.6905-.3986-1.211-.8574-1.5715-1.3462.3567-.4796.8666-.9298 1.5411-1.3219 2.8668-1.6659 7.5289-1.6736 10.4145-.0076.6946.401 1.2179.8634 1.5797 1.3561-.3554.4789-.8632.9286-1.5361 1.3195z"/></g><g><g><g enable-background="new"><g><path d="m98.0357 122.4561-.018 1.8854-6.9195 4.0212.018-1.8854z" fill="#f34858"/></g><g><path d="m91.1162 126.4773-.018 1.8854-6.9593-4.018.018-1.8854z" fill="#fa5168"/></g><g><path d="m98.0357 122.4561-6.9195 4.0212-6.9593-4.018 6.9195-4.0211z" fill="#f9607f"/></g></g></g><g><g enable-background="new"><g><path d="m113.738 66.9597-.0179 1.8854-6.9195 4.0212.0179-1.8854z" fill="#474b59"/></g><g><path d="m106.8185 70.9809-.0179 1.8854-6.9593-4.0179.018-1.8854z" fill="#525566"/></g><g><path d="m113.738 66.9597-6.9195 4.0212-6.9592-4.0179 6.9195-4.0212z" fill="#5b5e71"/></g></g></g><g><g enable-background="new"><g><path d="m130.0014 103.7708-.0179 1.8853-6.9195 4.0212.0179-1.8854z" fill="#4562ef"/></g><g><path d="m123.0819 107.7919-.0179 1.8854-6.9593-4.0179.018-1.8854z" fill="#576cfb"/></g><g><path d="m130.0014 103.7708-6.9195 4.0211-6.9592-4.0179 6.9195-4.0212z" fill="#748bfd"/></g></g></g><g><path d="m95.142 14.971 5.4213 3.1282c-3.1219-1.8143-7.363-1.7284-12.0857.642l-5.4214-3.1281c4.7228-2.3704 8.9639-2.4564 12.0858-.6421z" fill="#d4dae8"/><path d="m78.8159 9.9093 5.4213 3.1281c-2.877-1.672-6.7638-1.5695-11.0367.5122l-5.4214-3.1281c4.273-2.0817 8.1598-2.1842 11.0368-.5122z" fill="#cad0dd"/><path d="m63.4618 4.5473 5.4213 3.1281c-3.1777-1.8467-7.5699-1.5195-12.3721 1.2531-7.4855 4.3217-14.1553 13.9366-16.4231 23.4322l-5.4214-3.1281c2.2677-9.4956 8.9376-19.1105 16.4231-23.4322 4.8023-2.7726 9.1945-3.0998 12.3722-1.2531z" fill="#d4dae8"/><path d="m12.838 98.6879-5.4214-3.1281c-3.3293-1.9348-5.3985-6.0554-5.4151-11.9024-.0261-9.2137 5.0921-20.2935 12.5963-27.4469l5.4213 3.1282c-7.5041 7.1534-12.6223 18.2332-12.5962 27.4469.0166 5.847 2.0858 9.9675 5.4151 11.9023z" fill="#d4dae8"/><path d="m82.1946 12.2373 3.7492 2.1724c-1.0511-1.0862-2.3125-1.8221-3.7492-2.1724z" fill="#e4e8f4"/><path d="m20.0192 59.3387-5.4214-3.1281c1.6527-9.9988 8.7462-20.8089 16.8443-25.4843 1.0923-.6306 2.1581-1.1233 3.2245-1.4937l5.4213 3.1281c-1.0664.3704-2.1322.8631-3.2245 1.4937-8.098 4.6754-15.1916 15.4855-16.8442 25.4843z" fill="#cad0dd"/><path d="m105.9573 29.9032c.0339 11.7234-8.2554 26.0688-18.4732 31.9728l-61.5943 35.5593c-10.1501 5.8532-18.4393 1.0657-18.4731-10.6576-.0169-9.2028 5.092-20.2833 12.6031-27.4392 1.6578-9.9978 8.746-20.8077 16.8491-25.4768 1.0827-.6427 2.1485-1.1334 3.2142-1.5055 2.2669-9.4904 8.949-19.0992 16.4263-23.4299 7.7817-4.4829 14.4808-2.5713 16.6969 4.6184 7.1389-3.468 13.1951-1.4211 15.2759 5.1934 9.7441-4.889 17.4413-.0508 17.4751 11.1651z" fill="#e4e8f4"/></g><g><g><g><path d="m91.0873 28.3777c-.3803-.2284-.9161-.202-1.5038.1493l-52.711 30.9293c-1.1667.6851-2.1001 2.3366-2.1001 3.6981l.1124 39.2304-1.9579-1.1573-.1124-39.2303c0-1.3616.9334-3.013 2.1001-3.6982l52.711-30.9292c.5877-.3426 1.1235-.3777 1.5038-.1494z" fill="#474b59"/><path d="m89.5862 28.5233c1.1643-.6832 2.111-.1349 2.1148 1.2249l.1094 39.2277-56.929 33.4067-.1094-39.2277c-.0038-1.3598.9367-3.0155 2.101-3.6987z" fill="#3f434f"/><path d="m37.365 63.1478c-.0017-.4203.4423-1.1971.8043-1.4094l50.9447-29.8951.0996 35.6138-51.7524 30.3686z" fill="#fff"/><path d="m34.8846 102.3834.0173 3.5752 30.3584 16.928c1.1581.6851 3.0335.6851 4.2003 0l52.711-30.9293c.5877-.3426.8816-.7993.8816-1.2473l-.0173-2.5608c0 .448-.2939.896-.8816 1.2386z" fill="#bac1ce"/><path d="m34.8885 102.3813 30.3591 17.932c1.1567.6832 3.0377.6832 4.202 0l52.7078-30.9296c1.1698-.6864 1.1759-1.7939.0192-2.4771l-30.3591-17.932z" fill="#e4e8f4"/><g><g><path d="m43.4815 108.3894-.0041 1.4577 1.2482.7325.004-1.4578z" fill="#5b5e71"/></g></g><g><g><path d="m40.2925 106.5181-.0041 1.4577 2.2186 1.3019.0041-1.4578z" fill="#5b5e71"/></g></g><g><g><path d="m38.1677 105.2712-.004 1.4578 1.2481.7324.0041-1.4578z" fill="#5b5e71"/></g></g><g><g><path d="m35.9456 103.9672-.0041 1.4578 1.2481.7324.0041-1.4578z" fill="#5b5e71"/></g></g><path d="m94.7569 103.5494-10.7633 6.3624c-.5855.3434-1.3061.3434-1.869 0l-6.8678-4.0281c-.6306-.3661-.6306-1.2816 0-1.6478l10.7407-6.3396c.5855-.3432 1.3061-.3661 1.8915-.0229l6.8453 4.0281c.6306.3663.6306 1.2816.0226 1.6479z" fill="#bac1ce"/><path d="m45.2878 95.8896c.1427-.0844.3374-.0714.558.0519.4607.2661.8111.9149.8111 1.434l38.3401-22.1283c0-.5191-.3504-1.1679-.8046-1.4275-.2206-.1298-.4218-.1362-.5645-.0519z" fill="#3f434f"/><path d="m45.8481 95.9427c-.4516-.2607-.8091-.0237-.8106.4952l1.6198.9352c.0015-.5189-.3535-1.1673-.8092-1.4304z" fill="#474b59"/></g><g><g enable-background="new"><g><path d="m88.8171 74.2131.0013.4628 1.5846.9209-.0013-.4628z" fill="#416e84"/></g><g><path d="m90.4017 75.134.0013.4628 2.7986-1.6157-.0013-.4629z" fill="#37617b"/></g><g><path d="m88.8171 74.2131 1.5846.9209 2.7986-1.6158-1.5847-.9209z" fill="#4c7891"/></g></g><g enable-background="new"><g><path d="m92.1664 76.1595.0014.4629 2.7948 1.6242-.0013-.4629z" fill="#416e84"/></g><g><path d="m94.9613 77.7837.0013.4629 2.7986-1.6158-.0013-.4628z" fill="#37617b"/></g><g><path d="m92.1664 76.1595 2.7949 1.6242 2.7986-1.6157-2.7949-1.6242z" fill="#4c7891"/></g></g><g enable-background="new"><g><path d="m85.1557 76.327.0013.4628 1.5847.9209-.0013-.4628z" fill="#416e84"/></g><g><path d="m86.7404 77.2479.0013.4628 2.7986-1.6158-.0013-.4628z" fill="#37617b"/></g><g><path d="m85.1557 76.327 1.5847.9209 2.7986-1.6158-1.5847-.9209z" fill="#4c7891"/></g></g><g enable-background="new"><g><path d="m88.5051 78.2734.0013.4629 2.7949 1.6241-.0014-.4628z" fill="#416e84"/></g><g><path d="m91.2999 79.8976.0014.4628 2.7985-1.6157-.0013-.4629z" fill="#37617b"/></g><g><path d="m88.5051 78.2734 2.7948 1.6242 2.7986-1.6158-2.7948-1.6242z" fill="#4c7891"/></g></g><g enable-background="new"><g><path d="m81.4943 78.4409.0013.4628 1.5847.9209-.0013-.4628z" fill="#416e84"/></g><g><path d="m83.079 79.3618.0013.4628 2.8058-1.62-.0013-.4628z" fill="#37617b"/></g><g><path d="m81.4943 78.4409 1.5847.9209 2.8058-1.62-1.5846-.9209z" fill="#4c7891"/></g></g><g enable-background="new"><g><path d="m84.8437 80.3873.0013.4628 2.7949 1.6242-.0013-.4628z" fill="#416e84"/></g><g><path d="m87.6386 82.0115.0013.4628 2.8058-1.6199-.0013-.4629z" fill="#37617b"/></g><g><path d="m84.8437 80.3873 2.7949 1.6242 2.8058-1.62-2.7948-1.6241z" fill="#4c7891"/></g></g><g enable-background="new"><g><path d="m77.833 80.5547.0013.4629 1.5846.9209-.0013-.4628z" fill="#416e84"/></g><g><path d="m79.4176 81.4757.0013.4628 2.8059-1.62-.0013-.4628z" fill="#37617b"/></g><g><path d="m77.833 80.5547 1.5846.921 2.8059-1.62-1.5847-.9209z" fill="#4c7891"/></g></g><g enable-background="new"><g><path d="m81.1824 82.5012.0013.4628 2.7948 1.6242-.0013-.4628z" fill="#416e84"/></g><g><path d="m83.9772 84.1254.0013.4628 2.8059-1.6199-.0014-.4629z" fill="#37617b"/></g><g><path d="m81.1824 82.5012 2.7948 1.6242 2.8058-1.62-2.7948-1.6242z" fill="#4c7891"/></g></g><g enable-background="new"><g><path d="m74.1716 82.6686.0013.4629 1.5847.9209-.0013-.4629z" fill="#416e84"/></g><g><path d="m75.7563 83.5895.0013.4629 2.8058-1.62-.0013-.4628z" fill="#37617b"/></g><g><path d="m74.1716 82.6686 1.5847.9209 2.8058-1.6199-1.5847-.9209z" fill="#4c7891"/></g></g><g enable-background="new"><g><path d="m77.521 84.6151.0013.4628 2.7949 1.6242-.0013-.4628z" fill="#416e84"/></g><g><path d="m80.3159 86.2393.0013.4628 2.8058-1.6199-.0013-.4629z" fill="#37617b"/></g><g><path d="m77.521 84.6151 2.7949 1.6242 2.8058-1.62-2.7949-1.6242z" fill="#4c7891"/></g></g><g enable-background="new"><g><path d="m70.5102 84.7825.0014.4629 1.5846.9209-.0013-.4629z" fill="#416e84"/></g><g><path d="m72.0949 85.7034.0013.4629 2.8059-1.62-.0014-.4628z" fill="#37617b"/></g><g><path d="m70.5102 84.7825 1.5847.9209 2.8058-1.6199-1.5846-.9209z" fill="#4c7891"/></g></g><g enable-background="new"><g><path d="m73.8596 86.729.0013.4628 2.7949 1.6242-.0013-.4628z" fill="#416e84"/></g><g><path d="m76.6545 88.3532.0013.4628 2.8058-1.6199-.0013-.4629z" fill="#37617b"/></g><g><path d="m73.8596 86.729 2.7949 1.6242 2.8058-1.62-2.7948-1.6242z" fill="#4c7891"/></g></g><g enable-background="new"><g><path d="m66.8561 86.8922.0014.4628 1.5846.921-.0013-.4629z" fill="#416e84"/></g><g><path d="m68.4408 87.8131.0013.4629 2.7986-1.6158-.0013-.4628z" fill="#37617b"/></g><g><path d="m66.8561 86.8922 1.5847.9209 2.7986-1.6157-1.5847-.9209z" fill="#4c7891"/></g></g><g enable-background="new"><g><path d="m70.2055 88.8387.0013.4628 2.7949 1.6242-.0013-.4628z" fill="#416e84"/></g><g><path d="m73.0004 90.4629.0013.4628 2.7986-1.6158-.0013-.4628z" fill="#37617b"/></g><g><path d="m70.2055 88.8387 2.7949 1.6242 2.7986-1.6158-2.7949-1.6242z" fill="#4c7891"/></g></g><g enable-background="new"><g><path d="m63.1948 89.0061.0013.4628 1.5847.921-.0014-.4629z" fill="#416e84"/></g><g><path d="m64.7794 89.927.0014.4629 2.7985-1.6158-.0013-.4629z" fill="#37617b"/></g><g><path d="m63.1948 89.0061 1.5846.9209 2.7986-1.6158-1.5846-.9209z" fill="#4c7891"/></g></g><g enable-background="new"><g><path d="m66.5442 90.9526.0013.4628 2.7948 1.6242-.0013-.4628z" fill="#416e84"/></g><g><path d="m69.339 92.5768.0013.4628 2.7986-1.6158-.0013-.4628z" fill="#37617b"/></g><g><path d="m66.5442 90.9526 2.7948 1.6242 2.7986-1.6158-2.7948-1.6242z" fill="#4c7891"/></g></g><g enable-background="new"><g><path d="m59.5334 91.12.0013.4628 1.5847.9209-.0013-.4628z" fill="#416e84"/></g><g><path d="m61.1181 92.0409.0013.4628 2.8058-1.6199-.0013-.4628z" fill="#37617b"/></g><g><path d="m59.5334 91.12 1.5847.9209 2.8058-1.6199-1.5846-.921z" fill="#4c7891"/></g></g><g enable-background="new"><g><path d="m62.8828 93.0664.0013.4629 2.7949 1.6242-.0013-.4629z" fill="#416e84"/></g><g><path d="m65.6777 94.6906.0013.4629 2.8058-1.62-.0013-.4628z" fill="#37617b"/></g><g><path d="m62.8828 93.0664 2.7949 1.6242 2.8058-1.6199-2.7949-1.6242z" fill="#4c7891"/></g></g><g enable-background="new"><g><path d="m55.8721 93.2339.0013.4628 1.5846.9209-.0013-.4628z" fill="#416e84"/></g><g><path d="m57.4567 94.1548.0013.4628 2.8059-1.6199-.0013-.4629z" fill="#37617b"/></g><g><path d="m55.8721 93.2339 1.5846.9209 2.8059-1.62-1.5847-.9209z" fill="#4c7891"/></g></g><g enable-background="new"><g><path d="m59.2214 95.1803.0014.4629 2.7948 1.6242-.0013-.4629z" fill="#416e84"/></g><g><path d="m62.0163 96.8045.0013.4629 2.8058-1.62-.0013-.4628z" fill="#37617b"/></g><g><path d="m59.2214 95.1803 2.7949 1.6242 2.8058-1.6199-2.7948-1.6242z" fill="#4c7891"/></g></g><g enable-background="new"><g><path d="m52.2107 95.3478.0013.4628 1.5847.9209-.0013-.4628z" fill="#416e84"/></g><g><path d="m53.7954 96.2687.0013.4628 2.8058-1.6199-.0013-.4629z" fill="#37617b"/></g><g><path d="m52.2107 95.3478 1.5847.9209 2.8058-1.62-1.5847-.9209z" fill="#4c7891"/></g></g><g enable-background="new"><g><path d="m55.5601 97.2942.0013.4629 2.7949 1.6241-.0014-.4628z" fill="#416e84"/></g><g><path d="m58.3549 98.9184.0014.4628 2.8058-1.6199-.0013-.4628z" fill="#37617b"/></g><g><path d="m55.5601 97.2942 2.7948 1.6242 2.8059-1.6199-2.7949-1.6242z" fill="#4c7891"/></g></g><g enable-background="new"><g><path d="m48.5493 97.4617.0014.4628 1.5846.9209-.0013-.4628z" fill="#416e84"/></g><g><path d="m50.134 98.3826.0013.4628 2.8059-1.62-.0014-.4628z" fill="#37617b"/></g><g><path d="m48.5493 97.4617 1.5847.9209 2.8058-1.62-1.5846-.9209z" fill="#4c7891"/></g></g><g enable-background="new"><g><path d="m51.8987 99.4081.0013.4628 2.7949 1.6242-.0013-.4628z" fill="#416e84"/></g><g><path d="m54.6936 101.0323.0013.4628 2.8058-1.6199-.0013-.4628z" fill="#37617b"/></g><g><path d="m51.8987 99.4081 2.7949 1.6242 2.8058-1.6199-2.7948-1.6242z" fill="#4c7891"/></g></g><g enable-background="new"><g><path d="m44.8952 99.5714.0013.4628 1.5847.9209-.0013-.4628z" fill="#416e84"/></g><g><path d="m46.4799 100.4923.0013.4628 2.7986-1.6158-.0013-.4628z" fill="#37617b"/></g><g><path d="m44.8952 99.5714 1.5847.9209 2.7986-1.6158-1.5847-.9209z" fill="#4c7891"/></g></g><g enable-background="new"><g><path d="m48.2446 101.5178.0013.4628 2.7949 1.6242-.0013-.4628z" fill="#416e84"/></g><g><path d="m51.0395 103.142.0013.4628 2.7986-1.6157-.0013-.4629z" fill="#37617b"/></g><g><path d="m48.2446 101.5178 2.7949 1.6242 2.7986-1.6158-2.7949-1.6242z" fill="#4c7891"/></g></g><g enable-background="new"><g><path d="m41.2339 101.6852.0013.4629 1.5847.9209-.0014-.4629z" fill="#416e84"/></g><g><path d="m42.8185 102.6061.0014.4629 2.7985-1.6158-.0013-.4628z" fill="#37617b"/></g><g><path d="m41.2339 101.6852 1.5846.9209 2.7986-1.6157-1.5846-.9209z" fill="#4c7891"/></g></g><g enable-background="new"><g><path d="m44.5833 103.6317.0013.4628 2.7948 1.6242-.0013-.4628z" fill="#416e84"/></g><g><path d="m47.3781 105.2559.0013.4628 2.7986-1.6157-.0013-.4629z" fill="#37617b"/></g><g><path d="m44.5833 103.6317 2.7948 1.6242 2.7986-1.6158-2.7949-1.6242z" fill="#4c7891"/></g></g><g enable-background="new"><g><path d="m88.5029 82.5138.0013.4628 2.7876 1.62-.0013-.4628z" fill="#416e84"/></g><g><path d="m91.2905 84.1338.0013.4628 10.1214-5.8435-.0014-.4628z" fill="#37617b"/></g><g><path d="m88.5029 82.5138 2.7876 1.62 10.1213-5.8435-2.7876-1.62z" fill="#4c7891"/></g></g><g enable-background="new"><g><path d="m84.8415 84.6277.0013.4628 2.7877 1.62-.0013-.4628z" fill="#416e84"/></g><g><path d="m87.6292 86.2477.0013.4628 2.8058-1.6199-.0013-.4629z" fill="#37617b"/></g><g><path d="m84.8415 84.6277 2.7877 1.62 2.8058-1.62-2.7876-1.62z" fill="#4c7891"/></g></g><g enable-background="new"><g><path d="m81.1802 86.7416.0013.4628 2.7876 1.62-.0013-.4628z" fill="#416e84"/></g><g><path d="m83.9678 88.3616.0013.4628 2.8059-1.62-.0013-.4628z" fill="#37617b"/></g><g><path d="m81.1802 86.7416 2.7876 1.62 2.8059-1.62-2.7877-1.62z" fill="#4c7891"/></g></g><g enable-background="new"><g><path d="m77.5188 88.8555.0013.4628 2.7877 1.62-.0014-.4628z" fill="#416e84"/></g><g><path d="m80.3064 90.4755.0014.4628 2.8058-1.62-.0013-.4628z" fill="#37617b"/></g><g><path d="m77.5188 88.8555 2.7876 1.62 2.8059-1.62-2.7876-1.62z" fill="#4c7891"/></g></g><g enable-background="new"><g><path d="m73.8647 90.9652.0013.4628 2.7877 1.62-.0013-.4629z" fill="#416e84"/></g><g><path d="m76.6524 92.5851.0013.4629 2.7985-1.6158-.0013-.4628z" fill="#37617b"/></g><g><path d="m73.8647 90.9652 2.7877 1.6199 2.7985-1.6157-2.7876-1.62z" fill="#4c7891"/></g></g><g enable-background="new"><g><path d="m70.2034 93.079.0013.4629 2.7876 1.62-.0013-.4629z" fill="#416e84"/></g><g><path d="m72.991 94.699.0013.4629 2.7986-1.6158-.0013-.4628z" fill="#37617b"/></g><g><path d="m70.2034 93.079 2.7876 1.62 2.7986-1.6157-2.7877-1.62z" fill="#4c7891"/></g></g><g enable-background="new"><g><path d="m66.542 95.1929.0013.4629 2.7876 1.62-.0013-.4629z" fill="#416e84"/></g><g><path d="m69.3296 96.8129.0013.4629 2.8059-1.62-.0013-.4628z" fill="#37617b"/></g><g><path d="m66.542 95.1929 2.7876 1.62 2.8059-1.6199-2.7877-1.62z" fill="#4c7891"/></g></g><g enable-background="new"><g><path d="m62.8806 97.3068.0014.4629 2.7876 1.6199-.0013-.4628z" fill="#416e84"/></g><g><path d="m65.6683 98.9268.0013.4628 2.8058-1.6199-.0013-.4628z" fill="#37617b"/></g><g><path d="m62.8806 97.3068 2.7877 1.62 2.8058-1.6199-2.7876-1.62z" fill="#4c7891"/></g></g><g enable-background="new"><g><path d="m59.2193 99.4207.0013.4628 2.7876 1.62-.0013-.4628z" fill="#416e84"/></g><g><path d="m62.0069 101.0407.0013.4628 2.8058-1.6199-.0013-.4628z" fill="#37617b"/></g><g><path d="m59.2193 99.4207 2.7876 1.62 2.8058-1.6199-2.7876-1.62z" fill="#4c7891"/></g></g><g enable-background="new"><g><path d="m55.5579 101.5346.0013.4628 2.7877 1.62-.0014-.4628z" fill="#416e84"/></g><g><path d="m58.3455 103.1546.0014.4628 2.8058-1.6199-.0013-.4629z" fill="#37617b"/></g><g><path d="m55.5579 101.5346 2.7876 1.62 2.8059-1.62-2.7876-1.62z" fill="#4c7891"/></g></g><g enable-background="new"><g><path d="m48.2425 105.7582.0013.4628 2.7876 1.62-.0013-.4628z" fill="#416e84"/></g><g><path d="m51.0301 107.3782.0013.4628 6.4599-3.7296-.0013-.4629z" fill="#37617b"/></g><g><path d="m48.2425 105.7582 2.7876 1.62 6.4599-3.7297-2.7876-1.62z" fill="#4c7891"/></g></g><g enable-background="new"><g><path d="m99.4848 80.4125.0013.4629 2.7877 1.6199-.0014-.4628z" fill="#416e84"/></g><g><path d="m102.2724 82.0325.0014.4628 2.7985-1.6157-.0013-.4629z" fill="#37617b"/></g><g><path d="m99.4848 80.4125 2.7876 1.62 2.7986-1.6158-2.7876-1.62z" fill="#4c7891"/></g></g><g enable-background="new"><g><path d="m95.8235 82.5264.0013.4628 2.7876 1.62-.0013-.4628z" fill="#416e84"/></g><g><path d="m98.6111 84.1464.0013.4628 2.7986-1.6157-.0013-.4629z" fill="#37617b"/></g><g><path d="m95.8235 82.5264 2.7876 1.62 2.7986-1.6158-2.7876-1.62z" fill="#4c7891"/></g></g><g enable-background="new"><g><path d="m92.1621 84.6403.0013.4628 2.7876 1.62-.0013-.4628z" fill="#416e84"/></g><g><path d="m94.9497 86.2603.0013.4628 2.8059-1.6199-.0013-.4629z" fill="#37617b"/></g><g><path d="m92.1621 84.6403 2.7876 1.62 2.8059-1.62-2.7877-1.62z" fill="#4c7891"/></g></g><g enable-background="new"><g><path d="m88.5007 86.7542.0013.4628 2.7877 1.62-.0013-.4628z" fill="#416e84"/></g><g><path d="m91.2884 88.3742.0013.4628 2.8058-1.6199-.0013-.4629z" fill="#37617b"/></g><g><path d="m88.5007 86.7542 2.7877 1.62 2.8058-1.62-2.7876-1.62z" fill="#4c7891"/></g></g><g enable-background="new"><g><path d="m84.8394 88.8681.0013.4628 2.7876 1.62-.0013-.4628z" fill="#416e84"/></g><g><path d="m87.627 90.4881.0013.4628 2.8059-1.62-.0014-.4628z" fill="#37617b"/></g><g><path d="m84.8394 88.8681 2.7876 1.62 2.8058-1.62-2.7876-1.62z" fill="#4c7891"/></g></g><g enable-background="new"><g><path d="m81.178 90.982.0013.4628 2.7876 1.62-.0013-.4629z" fill="#416e84"/></g><g><path d="m83.9656 92.6019.0013.4629 2.8059-1.62-.0013-.4628z" fill="#37617b"/></g><g><path d="m81.178 90.982 2.7876 1.6199 2.8059-1.6199-2.7877-1.62z" fill="#4c7891"/></g></g><g enable-background="new"><g><path d="m77.5239 93.0916.0013.4629 2.7877 1.62-.0014-.4629z" fill="#416e84"/></g><g><path d="m80.3115 94.7116.0014.4629 2.7985-1.6158-.0013-.4628z" fill="#37617b"/></g><g><path d="m77.5239 93.0916 2.7876 1.62 2.7986-1.6157-2.7876-1.62z" fill="#4c7891"/></g></g><g enable-background="new"><g><path d="m73.8625 95.2055.0014.4629 2.7876 1.62-.0013-.4629z" fill="#416e84"/></g><g><path d="m76.6502 96.8255.0013.4629 2.7986-1.6158-.0013-.4628z" fill="#37617b"/></g><g><path d="m73.8625 95.2055 2.7877 1.62 2.7986-1.6157-2.7877-1.62z" fill="#4c7891"/></g></g><g enable-background="new"><g><path d="m70.2012 97.3194.0013.4629 2.7876 1.62-.0013-.4629z" fill="#416e84"/></g><g><path d="m72.9888 98.9394.0013.4629 2.8059-1.62-.0014-.4628z" fill="#37617b"/></g><g><path d="m70.2012 97.3194 2.7876 1.62 2.8058-1.6199-2.7876-1.62z" fill="#4c7891"/></g></g><g enable-background="new"><g><path d="m66.5398 99.4333.0013.4628 2.7877 1.62-.0013-.4628z" fill="#416e84"/></g><g><path d="m69.3275 101.0533.0013.4628 2.8058-1.6199-.0013-.4629z" fill="#37617b"/></g><g><path d="m66.5398 99.4333 2.7877 1.62 2.8058-1.62-2.7876-1.6199z" fill="#4c7891"/></g></g><g enable-background="new"><g><path d="m62.8785 101.5472.0013.4628 2.7876 1.62-.0013-.4628z" fill="#416e84"/></g><g><path d="m65.6661 103.1672.0013.4628 2.8058-1.6199-.0013-.4629z" fill="#37617b"/></g><g><path d="m62.8785 101.5472 2.7876 1.62 2.8058-1.62-2.7876-1.6199z" fill="#4c7891"/></g></g><g enable-background="new"><g><path d="m51.9016 107.8847.0014.4628 2.7876 1.62-.0013-.4628z" fill="#416e84"/></g><g><path d="m54.6893 109.5047.0013.4628 10.1213-5.8435-.0013-.4629z" fill="#37617b"/></g><g><path d="m51.9016 107.8847 2.7877 1.62 10.1213-5.8436-2.7877-1.62z" fill="#4c7891"/></g></g><g enable-background="new"><g><path d="m103.144 82.539.0013.4628 2.7876 1.62-.0014-.4629z" fill="#416e84"/></g><g><path d="m105.9315 84.1589.0014.4629 2.7985-1.6158-.0013-.4628z" fill="#37617b"/></g><g><path d="m103.144 82.539 2.7875 1.6199 2.7986-1.6157-2.7875-1.62z" fill="#4c7891"/></g></g><g enable-background="new"><g><path d="m99.4827 84.6529.0013.4628 2.7875 1.6199-.0013-.4628z" fill="#416e84"/></g><g><path d="m102.2702 86.2728.0013.4628 2.7986-1.6157-.0013-.4628z" fill="#37617b"/></g><g><path d="m99.4827 84.6529 2.7875 1.6199 2.7986-1.6157-2.7875-1.62z" fill="#4c7891"/></g></g><g enable-background="new"><g><path d="m95.8213 86.7668.0013.4628 2.7875 1.6199-.0013-.4628z" fill="#416e84"/></g><g><path d="m98.6088 88.3867.0013.4628 2.8059-1.6199-.0013-.4628z" fill="#37617b"/></g><g><path d="m95.8213 86.7668 2.7875 1.6199 2.8059-1.6199-2.7876-1.62z" fill="#4c7891"/></g></g><g enable-background="new"><g><path d="m66.5377 103.6737.0013.4628 2.7875 1.62-.0013-.4629z" fill="#416e84"/></g><g><path d="m69.3252 105.2936.0013.4629 28.4281-16.413-.0013-.4628z" fill="#37617b"/></g><g><path d="m66.5377 103.6737 2.7875 1.6199 28.4281-16.4129-2.7875-1.62z" fill="#4c7891"/></g></g><g enable-background="new"><g><path d="m62.8763 105.7876.0013.4628 2.7875 1.6199-.0013-.4628z" fill="#416e84"/></g><g><path d="m65.6638 107.4075.0013.4628 2.8059-1.6199-.0013-.4628z" fill="#37617b"/></g><g><path d="m62.8763 105.7876 2.7875 1.6199 2.8059-1.6199-2.7876-1.62z" fill="#4c7891"/></g></g><g enable-background="new"><g><path d="m59.2222 107.8973.0013.4628 2.7875 1.6199-.0013-.4628z" fill="#416e84"/></g><g><path d="m62.0097 109.5172.0013.4628 2.7986-1.6157-.0013-.4629z" fill="#37617b"/></g><g><path d="m59.2222 107.8973 2.7875 1.6199 2.7986-1.6158-2.7875-1.6199z" fill="#4c7891"/></g></g><g enable-background="new"><g><path d="m55.5608 110.0112.0013.4628 2.7876 1.6199-.0013-.4628z" fill="#416e84"/></g><g><path d="m58.3484 111.6311.0013.4628 2.7986-1.6157-.0014-.4629z" fill="#37617b"/></g><g><path d="m55.5608 110.0112 2.7876 1.6199 2.7985-1.6158-2.7875-1.6199z" fill="#4c7891"/></g></g></g></g></g><g><g><path d="m41.6817 65.1384c.093.0951.1405.2655.1412.5119.0007.2481-.0457.4727-.1378.6746-.0921.2003-.2314.3551-.418.4628-.1865.1077-.3278.1148-.4207.0214-.093-.0951-.139-.2663-.1397-.5144-.0007-.2464.0443-.4702.1364-.6721.0921-.2002.2329-.3559.4195-.4636.1864-.1077.3261-.114.4191-.0206zm-.1646 1.1161c.0526-.1369.0786-.2956.0781-.4728-.0005-.1755-.0273-.3037-.0805-.3795-.0532-.0775-.1371-.0831-.2516-.017-.1146.0661-.1996.1693-.2536.3087s-.0801.2964-.0796.472c.0005.1755.0273.302.082.3787s.14.0815.2546.0153c.1145-.0662.1981-.1668.2506-.3054" fill="#cad0dd"/></g><g><path d="m40.7002 63.0002c.093.0951.1391.2663.1398.5127.0007.2481-.0443.4719-.1364.6738-.0921.2003-.2314.3551-.4194.4636-.1865.1077-.3263.114-.4192.0206-.093-.0951-.1405-.2654-.1412-.5135-.0007-.2464.0457-.471.1379-.673.0921-.2003.2314-.3551.418-.4628.1878-.1085.3276-.1148.4205-.0214zm-.1646 1.1161c.0526-.1369.0786-.2956.0781-.4728-.0005-.1755-.0273-.3037-.0805-.3795-.0532-.0775-.137-.0832-.2531-.0162-.1146.0661-.1981.1685-.2522.3079-.054.1394-.0816.2973-.0811.4728s.0288.3012.0835.3778.1385.0823.2531.0162c.1161-.067.1997-.1676.2522-.3062" fill="#cad0dd"/></g><g><path d="m42.0471 62.2226c.093.0951.1405.2654.1412.5118.0007.2481-.0457.4727-.1379.6747-.0921.2003-.2314.3551-.418.4628-.188.1085-.3277.1148-.4207.0214-.093-.0951-.139-.2663-.1397-.5144-.0007-.2464.0443-.4701.1364-.6721.0921-.2003.2314-.3551.4194-.4636.1866-.1077.3263-.114.4193-.0206zm-.1646 1.1161c.0526-.1369.0786-.2956.0781-.4728-.0005-.1755-.0273-.3037-.0805-.3795-.0532-.0775-.1371-.0832-.2516-.017-.116.067-.1996.1693-.2536.3087s-.0801.2964-.0796.472c.0005.1755.0274.302.082.3787.0546.0766.1385.0823.2545.0153.1146-.0662.1982-.1669.2507-.3054" fill="#cad0dd"/></g><g><path d="m43.394 61.445c.0929.0951.1405.2654.1412.5118.0007.2481-.0458.4727-.1379.6747-.0921.2003-.2314.3551-.418.4628-.1865.1077-.3263.114-.4192.0206-.0944-.0942-.1405-.2654-.1412-.5135-.0007-.2464.0443-.4702.1379-.673.0921-.2003.2314-.3551.418-.4628.1865-.1078.3262-.114.4192-.0206zm-.1646 1.116c.0526-.1369.0786-.2956.0781-.4728-.0005-.1755-.0273-.3037-.0805-.3795-.0532-.0775-.1371-.0832-.2516-.017s-.1996.1693-.2536.3087-.0801.2964-.0796.472c.0005.1755.0273.302.082.3787.0547.0766.14.0815.2546.0153.1145-.0662.198-.1668.2506-.3054" fill="#cad0dd"/></g><g><path d="m44.7409 60.6674c.093.0951.1405.2654.1412.5118.0007.2481-.0457.4727-.1378.6746-.0921.2003-.2314.3551-.418.4628s-.3263.114-.4193.0206c-.093-.0951-.1405-.2654-.1412-.5135-.0007-.2464.0457-.471.1379-.673.0921-.2003.2314-.3551.418-.4628.1865-.1077.3262-.114.4192-.0205zm-.1646 1.116c.0526-.1369.0786-.2956.0781-.4728-.0005-.1755-.0273-.3037-.0805-.3795-.0532-.0775-.1371-.0832-.2516-.017-.1146.0661-.1996.1693-.2536.3087s-.0801.2964-.0796.472c.0005.1755.0273.302.082.3787.0547.0766.14.0814.2546.0153.1145-.0662.1981-.1668.2506-.3054" fill="#cad0dd"/></g><g><path d="m46.0878 59.8897c.0944.0943.1405.2654.1412.5118.0007.2481-.0443.4719-.1378.6746-.0921.2003-.2314.3551-.418.4628-.1865.1077-.3263.114-.4192.0206-.093-.0951-.1405-.2654-.1412-.5135-.0007-.2464.0457-.471.1379-.673.0921-.2003.2314-.3551.418-.4628.1864-.1076.3261-.1139.4191-.0205zm-.1631 1.1152c.0526-.1369.0786-.2956.0781-.4728-.0005-.1755-.0273-.3037-.0805-.3795-.0546-.0766-.1385-.0823-.2531-.0162s-.1996.1693-.2522.3079c-.054.1394-.0815.2973-.0811.4728.0005.1755.0288.3012.0835.3778.0532.0775.1385.0823.2531.0162s.1981-.1668.2522-.3062" fill="#cad0dd"/></g><g><path d="m40.3959 65.6965.0045 1.573-.2188.1263-.0038-1.3367-.2776.1603-.0007-.2363z" fill="#cad0dd"/></g><g><path d="m42.4905 64.4872.0044 1.573-.2203.1272-.0038-1.3367-.2776.1603-.0007-.2363z" fill="#cad0dd"/></g><g><path d="m43.7747 63.93c.093.0951.1405.2654.1412.5118.0007.2481-.0457.4727-.1379.6747-.0921.2002-.2314.3551-.418.4628-.1865.1077-.3263.114-.4207.0214-.093-.0951-.1391-.2663-.1398-.5144-.0007-.2464.0443-.4702.1364-.6721.0936-.2011.2329-.3559.4194-.4636.1867-.1077.3265-.114.4194-.0206zm-.1645 1.1161c.0526-.1369.0786-.2956.0781-.4728-.0005-.1755-.0273-.3037-.0805-.3795-.0532-.0775-.137-.0832-.2516-.017s-.1996.1693-.2536.3087-.0801.2964-.0796.472c.0005.1755.0273.302.082.3787.0547.0766.14.0815.2546.0153s.198-.1669.2506-.3054" fill="#cad0dd"/></g><g><path d="m44.5835 63.2788.0045 1.573-.2204.1272-.0038-1.3367-.2775.1602-.0007-.2362z" fill="#cad0dd"/></g><g><path d="m45.8678 62.7216c.093.0951.1405.2654.1412.5119.0007.2481-.0457.4727-.1379.6746-.0921.2003-.2314.3551-.418.4628-.1865.1077-.3263.114-.4192.0206-.0944-.0942-.1405-.2654-.1412-.5135-.0007-.2464.0443-.4702.1379-.673.0921-.2003.2314-.3551.418-.4628.1865-.1077.3262-.114.4192-.0206zm-.1646 1.1161c.0526-.1369.0786-.2956.0781-.4728-.0005-.1755-.0273-.3037-.0805-.3795-.0532-.0775-.1371-.0831-.2516-.017s-.1996.1693-.2536.3087-.0801.2964-.0796.472c.0005.1755.0273.302.082.3787s.14.0815.2546.0153c.1145-.0662.198-.1669.2506-.3054" fill="#cad0dd"/></g><g><path d="m42.7504 72.6359c.0944.0942.1405.2654.1412.5118.0007.2481-.0443.4719-.1379.6747-.0921.2002-.2314.3551-.418.4628s-.3263.114-.4193.0206c-.0929-.0951-.1405-.2655-.1412-.5136-.0007-.2464.0458-.471.1379-.673.0921-.2003.2314-.3551.418-.4628.1866-.1076.3264-.1139.4193-.0205zm-.1631 1.1153c.0526-.1368.0786-.2956.0781-.4728-.0005-.1755-.0273-.3037-.0805-.3795-.0532-.0775-.1385-.0823-.2531-.0162s-.1996.1693-.2522.3079c-.054.1394-.0816.2973-.0811.4728s.0288.3012.0835.3778c.0532.0775.1385.0823.2531.0162s.1997-.1677.2522-.3062" fill="#cad0dd"/></g><g><path d="m41.9981 70.3654c.093.0951.1391.2663.1398.5127.0007.2481-.0443.4719-.1364.6738-.0921.2003-.2329.3559-.4194.4636s-.3263.114-.4192.0206c-.093-.0951-.1405-.2654-.1412-.5135-.0007-.2464.0458-.471.1379-.673.0921-.2002.2314-.3551.418-.4628.1863-.1076.3275-.1148.4205-.0214zm-.1646 1.1161c.0526-.1369.0786-.2956.0781-.4728-.0005-.1755-.0273-.3037-.0805-.3795-.0532-.0775-.1385-.0823-.2531-.0162s-.1996.171-.2522.3079c-.054.1394-.0816.2973-.0811.4728s.0288.3012.0835.3778c.0532.0792.1385.0823.2531.0162s.1997-.1676.2522-.3062" fill="#cad0dd"/></g><g><path d="m40.9432 68.2696c.093.0951.1405.2654.1412.5119.0007.2481-.0457.4727-.1378.6747-.0921.2002-.2314.3551-.418.4628-.1865.1077-.3263.114-.4207.0214-.093-.0951-.1391-.2663-.1398-.5144-.0007-.2464.0443-.4702.1364-.6721.0936-.2011.2329-.3559.4194-.4636.1866-.1078.3263-.1141.4193-.0207zm-.1646 1.1161c.0526-.1369.0786-.2956.0781-.4728-.0005-.1755-.0274-.3037-.0805-.3795-.0532-.0775-.137-.0832-.2516-.017-.116.067-.1996.1694-.2536.3087-.054.1394-.0801.2964-.0796.472.0005.1755.0273.302.082.3787.0546.0766.1385.0823.2546.0153.1145-.0662.198-.1668.2506-.3054" fill="#cad0dd"/></g><g><path d="m41.752 67.6184.0044 1.573-.2203.1272-.0038-1.3367-.2776.1603-.0007-.2363z" fill="#cad0dd"/></g><g><path d="m45.8264 73.5649c.093.0951.1391.2663.1398.5127.0007.2481-.0443.4719-.1364.6738-.0921.2003-.2314.3551-.418.4628-.188.1085-.3278.1149-.4207.0214-.0929-.0951-.139-.2663-.1397-.5144-.0007-.2464.0443-.4702.1364-.6721.0921-.2003.2315-.3551.4195-.4637.1864-.1077.3262-.114.4191-.0205zm-.1645 1.116c.0526-.1369.0786-.2956.0781-.4728-.0005-.1755-.0273-.3037-.0805-.3795-.0532-.0775-.1371-.0832-.2516-.017-.116.067-.1996.1693-.2536.3087s-.0801.2964-.0796.4719.0273.302.082.3787c.0547.0766.1385.0823.2546.0153.1144-.0661.198-.1667.2506-.3053" fill="#cad0dd"/></g><g><path d="m44.8449 71.4267c.0929.0951.139.2663.1397.5127.0007.2481-.0443.4719-.1364.6738-.0936.2011-.2329.3559-.4195.4636-.1865.1077-.3263.114-.4192.0206-.093-.0951-.1405-.2654-.1412-.5135-.0007-.2464.0457-.471.1379-.673.0921-.2003.2314-.3551.418-.4628s.3263-.114.4207-.0214zm-.1645 1.116c.0526-.1368.0786-.2956.0781-.4728-.0005-.1755-.0273-.3037-.0805-.3795-.0532-.0775-.1371-.0832-.2531-.0162-.1146.0661-.1981.1685-.2522.3079-.054.1394-.0816.2973-.0811.4728s.0288.3012.0835.3778.1385.0823.2531.0162c.116-.0669.1996-.1676.2522-.3062" fill="#cad0dd"/></g><g><path d="m44.0911 69.157c.093.0951.139.2663.1397.5127.0007.2481-.0443.4719-.1364.6738-.0921.2003-.2329.3559-.4195.4636-.1865.1077-.3263.114-.4192.0206-.093-.0951-.1405-.2654-.1412-.5135-.0007-.2464.0457-.471.1379-.673.0921-.2002.2314-.3551.418-.4628.1866-.1076.3278-.1148.4207-.0214zm-.1645 1.1161c.0526-.1369.0786-.2956.0781-.4728-.0005-.1755-.0273-.3037-.0805-.3795-.0532-.0775-.1371-.0832-.2531-.0162-.1145.0661-.1981.1702-.2522.3079-.054.1394-.0815.2973-.0811.4728.0005.1755.0288.3012.0835.3778.0547.0783.1385.0823.2531.0162.116-.067.1996-.1676.2522-.3062" fill="#cad0dd"/></g><g><path d="m43.0362 67.0612c.0929.0951.1405.2654.1412.5119.0007.2481-.0457.4727-.1378.6747-.0921.2002-.2314.3551-.418.4628-.1865.1077-.3263.114-.4192.0206-.0944-.0942-.1405-.2654-.1412-.5135-.0007-.2464.0443-.4702.1379-.673.0921-.2002.2314-.3551.418-.4628.1864-.1078.3262-.1141.4191-.0207zm-.1645 1.1161c.0526-.1369.0786-.2956.0781-.4728-.0005-.1755-.0273-.3037-.0805-.3795-.0532-.0775-.1371-.0832-.2516-.017s-.1996.1693-.2536.3087-.0801.2964-.0796.472c.0005.1755.0273.302.082.3787s.14.0815.2546.0153.198-.1669.2506-.3054" fill="#cad0dd"/></g><g><path d="m43.845 66.41.0045 1.573-.2203.1272-.0038-1.3367-.2776.1603-.0007-.2363z" fill="#cad0dd"/></g><g><path d="m45.1293 65.8528c.093.0951.1405.2654.1412.5119.0007.2481-.0457.4727-.1378.6747-.0921.2003-.2314.3551-.418.4628-.1865.1077-.3263.114-.4192.0206-.093-.0951-.1405-.2654-.1412-.5135-.0007-.2464.0457-.471.1379-.673.0921-.2002.2314-.3551.418-.4628.1864-.1078.3261-.1141.4191-.0207zm-.1646 1.1161c.0526-.1369.0786-.2956.0781-.4728-.0005-.1755-.0273-.3037-.0805-.3795-.0532-.0775-.1371-.0832-.2516-.017-.1146.0661-.1996.1693-.2536.3087s-.0801.2964-.0796.472c.0005.1755.0273.302.082.3787s.14.0815.2546.0153c.1145-.0662.198-.1669.2506-.3054" fill="#cad0dd"/></g><g><path d="m45.9381 65.2016.0044 1.573-.2188.1263-.0038-1.3367-.2791.1612-.0007-.2363z" fill="#cad0dd"/></g><g><path d="m40.6497 71.1439c.0944.0942.1405.2654.1412.5118.0007.2481-.0443.4719-.1378.6747-.0921.2002-.2314.3551-.418.4628s-.3263.114-.4192.0206c-.093-.0951-.1405-.2654-.1412-.5136-.0007-.2464.0457-.471.1379-.673.0921-.2003.2314-.3551.418-.4628.1864-.1076.3262-.1139.4191-.0205zm-.1645 1.1161c.0526-.1369.0786-.2956.0781-.4728-.0005-.1755-.0273-.3037-.0805-.3795-.0532-.0775-.1371-.0832-.2516-.017-.1146.0661-.1996.171-.2536.3087-.0526.1386-.0801.2964-.0796.4719s.0288.3012.082.3787c.0546.0783.14.0815.2546.0153.1144-.0661.198-.1668.2506-.3053" fill="#cad0dd"/></g><g><path d="m42.8054 69.7151.0045 1.573-.2189.1263-.0038-1.3367-.2776.1603-.0006-.2363z" fill="#cad0dd"/></g><g><path d="m46.1918 70.649c.093.0951.1391.2663.1398.5127.0007.2481-.0443.4719-.1364.6738-.0921.2003-.2314.3551-.418.4628-.188.1086-.3278.1149-.4207.0215-.0929-.0951-.139-.2663-.1397-.5144-.0007-.2464.0443-.4702.1364-.6721.0921-.2003.2314-.3551.4195-.4637.1864-.1077.3262-.114.4191-.0206zm-.1645 1.1161c.0526-.1368.0786-.2956.0781-.4728-.0005-.1755-.0273-.3037-.0805-.3795-.0532-.0775-.1371-.0832-.2516-.017-.116.067-.1996.1693-.2536.3087s-.0816.2973-.0811.4728.0288.3012.0835.3778.1385.0823.2546.0153c.1144-.0661.198-.1667.2506-.3053" fill="#cad0dd"/></g><g><path d="m45.438 68.3794c.093.0951.1405.2654.1412.5118.0007.2481-.0457.4727-.1378.6747-.0921.2002-.2314.3551-.418.4628-.188.1085-.3278.1149-.4207.0214-.093-.0951-.1391-.2663-.1398-.5144-.0007-.2464.0443-.4702.1364-.6721.0921-.2002.2314-.3551.4194-.4636.1866-.1077.3264-.114.4193-.0206zm-.1645 1.1161c.0526-.1369.0786-.2956.0781-.4728-.0005-.1755-.0274-.3037-.0805-.3795-.0532-.0775-.137-.0832-.2516-.017-.116.067-.1996.171-.2536.3087-.054.1394-.0801.2964-.0796.4719s.0273.302.082.3787c.0547.0783.1385.0823.2546.0153.1144-.0661.198-.1668.2506-.3053" fill="#cad0dd"/></g><g><path d="m46.2454 67.729.0044 1.573-.2188.1264-.0038-1.3367-.2776.1602-.0007-.2363z" fill="#cad0dd"/></g><g><path d="m40.6574 73.8444c.0944.0942.1405.2654.1412.5118.0007.2481-.0443.4718-.1378.6747-.0921.2002-.2314.3551-.418.4628s-.3263.114-.4192.0206c-.093-.0951-.1405-.2654-.1412-.5135-.0007-.2464.0457-.471.1379-.673.0921-.2003.2314-.3551.418-.4628.1864-.1078.3261-.1141.4191-.0206zm-.1646 1.116c.0526-.1368.0786-.2956.0781-.4728-.0005-.1755-.0273-.3037-.0805-.3795-.0532-.0775-.1371-.0832-.2516-.017-.1146.0662-.1996.1693-.2536.3087-.0526.1385-.0801.2964-.0796.4719s.0288.3012.082.3787c.0546.0766.14.0815.2546.0153.1145-.0661.1981-.1667.2506-.3053" fill="#cad0dd"/></g><g><path d="m41.4662 73.1931.0044 1.573-.2188.1264-.0038-1.3367-.2791.1611-.0007-.2363z" fill="#cad0dd"/></g><g><path d="m43.5592 71.9847.0045 1.573-.2189.1264-.0038-1.3368-.2776.1603-.0006-.2363z" fill="#cad0dd"/></g><g><path d="m40.5 76.4558.0045 1.573-.2204.1272-.0037-1.3367-.2776.1602-.0007-.2362z" fill="#cad0dd"/></g><g><path d="m43.5195 80.3064c.093.0951.1405.2654.1412.5119.0007.2481-.0457.4727-.1378.6747-.0921.2002-.2314.3551-.418.4628-.1865.1077-.3263.114-.4192.0206-.093-.0951-.1405-.2654-.1412-.5135-.0007-.2464.0457-.471.1379-.673.0921-.2003.2314-.3551.418-.4628.1864-.1078.3262-.1141.4191-.0207zm-.1645 1.1161c.0526-.1369.0786-.2956.0781-.4728-.0005-.1755-.0274-.3037-.0805-.3795-.0532-.0775-.137-.0832-.2516-.017-.1146.0661-.1996.1694-.2522.3079-.054.1394-.0815.2973-.0811.4728.0005.1755.0288.3012.0835.3778.0532.0775.1385.0823.2531.0162.1146-.0662.1981-.1669.2507-.3054" fill="#cad0dd"/></g><g><path d="m42.7657 78.0368c.0944.0943.1405.2654.1412.5118.0007.2481-.0443.4719-.1379.6747-.0921.2002-.2314.3551-.418.4628s-.3263.114-.4193.0206c-.0929-.0951-.1405-.2654-.1412-.5135-.0007-.2464.0458-.471.1379-.673.0921-.2003.2314-.3551.418-.4628s.3264-.114.4193-.0206zm-.163 1.1152c.0526-.1369.0786-.2956.0781-.4728-.0005-.1755-.0273-.3037-.0805-.3795-.0532-.0775-.1385-.0823-.2531-.0162s-.1996.1693-.2522.3079c-.054.1394-.0816.2973-.0811.4728s.0288.3012.0835.3778c.0532.0775.1385.0823.2531.0162.1145-.0661.1996-.1676.2522-.3062" fill="#cad0dd"/></g><g><path d="m41.7843 75.8986c.093.0951.1405.2654.1412.5118.0007.2481-.0457.4727-.1379.6747-.0921.2003-.2314.3551-.418.4628-.1865.1077-.3263.114-.4192.0206-.093-.0951-.1405-.2654-.1412-.5135-.0007-.2464.0457-.471.1379-.673.0921-.2003.2314-.3551.418-.4628.1865-.1077.3262-.114.4192-.0206zm-.1646 1.1161c.0526-.1369.0786-.2956.0781-.4728-.0005-.1755-.0273-.3037-.0805-.3795-.0532-.0775-.1371-.0832-.2516-.017s-.1996.1693-.2536.3087-.0801.2964-.0796.472c.0005.1755.0273.302.082.3787.0546.0766.14.0815.2546.0153s.198-.1669.2506-.3054" fill="#cad0dd"/></g><g><path d="m43.1312 75.121c.0944.0942.1405.2654.1412.5118.0007.2481-.0443.4718-.1378.6746-.0921.2003-.2314.3551-.418.4628s-.3263.114-.4192.0206c-.093-.0951-.1405-.2654-.1412-.5135-.0007-.2464.0457-.471.1379-.673.0921-.2003.2314-.3551.418-.4628.1864-.1076.3261-.114.4191-.0205zm-.1646 1.116c.0526-.1369.0786-.2956.0781-.4728-.0005-.1755-.0273-.3037-.0805-.3795-.0532-.0775-.137-.0832-.2516-.017s-.1996.1693-.2536.3087c-.0526.1385-.0801.2964-.0796.4719s.0288.3012.082.3787c.0547.0766.14.0815.2546.0153s.198-.1667.2506-.3053" fill="#cad0dd"/></g><g><path d="m44.4795 74.3425c.0929.0951.139.2663.1397.5127.0007.2481-.0443.4719-.1364.6738-.0921.2003-.2314.3551-.4195.4637-.1865.1077-.3263.114-.4192.0206-.093-.0951-.1405-.2654-.1412-.5135-.0007-.2464.0457-.471.1379-.673.0921-.2003.2314-.3551.418-.4628.188-.1086.3278-.1149.4207-.0215zm-.1645 1.1161c.0526-.1369.0786-.2956.0781-.4728-.0005-.1755-.0273-.3037-.0805-.3795-.0532-.0775-.1371-.0832-.2531-.0162-.1146.0661-.1981.1685-.2522.3079-.054.1394-.0816.2973-.0811.4728s.0288.3012.0835.3778.1385.0823.2531.0162c.116-.067.1996-.1677.2522-.3062" fill="#cad0dd"/></g><g><path d="m40.1346 79.3716.0045 1.573-.2189.1264-.0038-1.3367-.2791.1611-.0006-.2363z" fill="#cad0dd"/></g><g><path d="m41.4188 78.8144c.093.0951.1405.2654.1412.5119.0007.2481-.0457.4727-.1378.6747-.0921.2002-.2314.3551-.418.4628-.1865.1077-.3263.114-.4192.0206-.093-.0951-.1405-.2654-.1412-.5135-.0007-.2464.0457-.471.1379-.673.0921-.2003.2314-.3551.418-.4628.1864-.1078.3262-.1141.4191-.0207zm-.1645 1.1161c.0526-.1369.0786-.2956.0781-.4728-.0005-.1755-.0273-.3037-.0805-.3795-.0532-.0775-.1371-.0831-.2516-.017-.1146.0661-.1996.1693-.2536.3087-.0526.1385-.0801.2964-.0796.472.0005.1755.0288.3012.082.3787.0547.0767.14.0815.2546.0153.1144-.0662.198-.1668.2506-.3054" fill="#cad0dd"/></g><g><path d="m43.5745 77.3856.0045 1.573-.2189.1263-.0038-1.3367-.2776.1603-.0006-.2363z" fill="#cad0dd"/></g><g><path d="m44.8603 76.8275c.0929.0951.139.2663.1397.5127.0007.2481-.0443.4719-.1364.6738-.0936.2011-.2329.3559-.4195.4636-.1865.1077-.3263.114-.4192.0206-.093-.0951-.1405-.2654-.1412-.5135-.0007-.2464.0457-.471.1379-.673.0921-.2002.2314-.3551.418-.4628.1865-.1076.3262-.1139.4207-.0214zm-.1646 1.1161c.0526-.1369.0786-.2956.0781-.4728-.0005-.1755-.0273-.3037-.0805-.3795-.0532-.0775-.1371-.0831-.2531-.0161-.1146.0661-.1981.1685-.2522.3079-.054.1394-.0816.2973-.0811.4728s.0288.3012.0835.3778c.0546.0767.1385.0823.2531.0162.1161-.0671.1996-.1677.2522-.3063" fill="#cad0dd"/></g><g><path d="m46.2071 76.0499c.093.0951.1391.2663.1398.5127.0007.2481-.0443.4719-.1364.6738-.0921.2003-.2314.3551-.418.4628-.188.1086-.3278.1148-.4207.0214-.0929-.0951-.139-.2663-.1397-.5144-.0007-.2464.0443-.4702.1364-.6721.0921-.2003.2314-.3551.4195-.4636.1864-.1077.3262-.114.4191-.0206zm-.1645 1.1161c.0526-.1369.0786-.2956.0781-.4728-.0005-.1755-.0273-.3037-.0805-.3795-.0532-.0775-.1371-.0831-.2516-.017-.116.067-.1996.1693-.2536.3087s-.0816.2973-.0811.4728.0288.3012.0835.3778c.0547.0767.1385.0823.2546.0153.1144-.0661.198-.1668.2506-.3053" fill="#cad0dd"/></g><g><path d="m40.1423 82.072.0044 1.573-.2189.1264-.0037-1.3367-.2791.1611-.0007-.2363z" fill="#cad0dd"/></g><g><path d="m41.4265 81.5148c.093.0951.1405.2654.1412.5119.0007.2481-.0457.4727-.1378.6746-.0921.2003-.2314.3551-.418.4628-.1865.1077-.3263.114-.4192.0206-.093-.0951-.1405-.2654-.1412-.5135-.0007-.2464.0457-.471.1379-.673.0921-.2002.2314-.3551.418-.4628.1864-.1077.3261-.114.4191-.0206zm-.1646 1.1161c.0526-.1369.0786-.2956.0781-.4728-.0005-.1755-.0273-.3037-.0805-.3795-.0532-.0775-.1371-.0832-.2516-.017-.1146.0661-.1996.1694-.2536.3087-.0526.1386-.0801.2964-.0796.472.0005.1755.0288.3012.082.3787.0547.0766.14.0815.2546.0153.1145-.0662.1981-.1668.2506-.3054" fill="#cad0dd"/></g><g><path d="m42.2353 80.8636.0044 1.573-.2188.1264-.0038-1.3367-.2791.1611-.0006-.2363z" fill="#cad0dd"/></g><g><path d="m44.8679 79.5279c.0929.0951.139.2663.1397.5127.0007.2481-.0443.4719-.1364.6738-.0936.2011-.2329.3559-.4195.4636-.1865.1077-.3263.114-.4192.0206-.093-.0951-.1405-.2654-.1412-.5135-.0007-.2464.0457-.471.1379-.673.0921-.2003.2314-.3551.418-.4628.1865-.1076.3263-.1139.4207-.0214zm-.1645 1.1161c.0526-.1369.0786-.2956.0781-.4728-.0005-.1755-.0273-.3037-.0805-.3795-.0532-.0775-.1371-.0832-.2531-.0162-.1146.0661-.1981.1685-.2522.3079-.054.1394-.0815.2973-.0811.4728.0005.1755.0288.3012.0835.3778.0546.0767.1385.0823.2531.0162.116-.067.1996-.1676.2522-.3062" fill="#cad0dd"/></g><g><path d="m46.2148 78.7503c.093.0951.1391.2663.1398.5127.0007.2481-.0443.4719-.1364.6738-.0921.2003-.2314.3551-.418.4628-.188.1086-.3278.1149-.4207.0215-.0929-.0951-.139-.2663-.1397-.5144-.0007-.2464.0443-.4702.1364-.6721.0921-.2002.2314-.3551.4195-.4636.1864-.1078.3261-.1141.4191-.0207zm-.1646 1.1161c.0526-.1369.0786-.2956.0781-.4728-.0005-.1755-.0273-.3037-.0805-.3795-.0532-.0775-.1371-.0832-.2516-.017-.116.067-.1996.1693-.2536.3087s-.0816.2973-.0811.4728.0288.3012.0835.3778c.0547.0767.1385.0823.2546.0153.1145-.0661.1981-.1668.2506-.3053" fill="#cad0dd"/></g><g><path d="m40.688 84.6461c.0944.0942.1405.2654.1412.5118.0007.2481-.0443.4719-.1378.6747-.0921.2002-.2314.3551-.418.4628s-.3263.114-.4193.0206c-.093-.0951-.1405-.2655-.1412-.5136-.0007-.2464.0457-.471.1379-.673.0921-.2003.2314-.3551.418-.4628.1865-.1076.3263-.1139.4192-.0205zm-.1646 1.1161c.0526-.1369.0786-.2956.0781-.4728-.0005-.1755-.0273-.3037-.0805-.3795-.0532-.0775-.1371-.0832-.2516-.017-.1146.0661-.1996.171-.2537.3087-.0526.1386-.0801.2964-.0796.4719s.0288.3012.082.3787c.0546.0783.14.0815.2546.0153.1146-.0661.1982-.1668.2507-.3053" fill="#cad0dd"/></g><g><path d="m42.7887 86.1381c.0944.0942.1405.2654.1412.5118.0007.2481-.0443.4719-.1379.6747-.0921.2002-.2314.3551-.418.4628s-.3263.114-.4192.0206c-.0929-.0951-.1405-.2654-.1412-.5135-.0007-.2464.0458-.471.1379-.673.0921-.2003.2314-.3551.418-.4628.1865-.1077.3263-.114.4192-.0206zm-.1631 1.1152c.0526-.1368.0786-.2956.0781-.4728-.0005-.1755-.0273-.3037-.0805-.3795-.0532-.0775-.1385-.0823-.2531-.0162s-.1996.1693-.2522.3079c-.054.1394-.0816.2973-.0811.4728s.0288.3012.0835.3778c.0532.0775.1385.0823.2531.0162s.1997-.1676.2522-.3062" fill="#cad0dd"/></g><g><path d="m42.0364 83.8676c.093.0951.1391.2663.1398.5127.0007.2481-.0443.4719-.1364.6738-.0921.2003-.2329.3559-.4194.4636s-.3263.114-.4192.0206c-.093-.0951-.1405-.2654-.1412-.5135-.0007-.2464.0458-.471.1379-.673.0921-.2002.2314-.3551.418-.4628.1863-.1077.3275-.1148.4205-.0214zm-.1646 1.1161c.0526-.1369.0786-.2956.0781-.4728-.0005-.1755-.0273-.3037-.0805-.3795-.0532-.0775-.1385-.0823-.2531-.0162-.1146.0662-.1996.171-.2522.3079-.054.1394-.0815.2973-.0811.4728.0005.1755.0288.3012.0835.3778.0532.0792.1385.0823.2531.0162.1146-.0662.1996-.1677.2522-.3062" fill="#cad0dd"/></g><g><path d="m42.8437 83.2172.0045 1.573-.2189.1264-.0038-1.3367-.2776.1602-.0007-.2362z" fill="#cad0dd"/></g><g><path d="m43.5899 82.7864.0044 1.573-.2189.1264-.0037-1.3367-.2777.1603-.0006-.2363z" fill="#cad0dd"/></g><g><path d="m44.8756 82.2284c.0929.0951.139.2663.1397.5127.0007.2481-.0443.4719-.1364.6738-.0936.2011-.2329.3559-.4195.4636-.1865.1077-.3263.114-.4192.0206-.093-.0951-.1405-.2654-.1412-.5136-.0007-.2464.0457-.471.1379-.673.0921-.2002.2314-.3551.418-.4628.1865-.1076.3262-.1139.4207-.0213zm-.1646 1.1161c.0526-.1369.0786-.2956.0781-.4728-.0005-.1755-.0273-.3037-.0805-.3795-.0532-.0775-.1371-.0832-.2531-.0162-.1146.0661-.1981.1702-.2522.3079-.054.1394-.0815.2973-.0811.4728.0005.1755.0288.3012.0835.3778.0547.0783.1385.0823.2531.0162.1161-.067.1996-.1677.2522-.3062" fill="#cad0dd"/></g><g><path d="m46.2225 81.4508c.093.0951.1391.2663.1398.5127.0007.2481-.0443.4719-.1364.6738-.0921.2002-.2314.3551-.418.4628-.188.1086-.3278.1148-.4207.0214-.0929-.0951-.139-.2663-.1397-.5144-.0007-.2464.0443-.4702.1364-.6721.0921-.2003.2314-.3551.4195-.4636.1864-.1078.3261-.114.4191-.0206zm-.1646 1.116c.0526-.1369.0786-.2956.0781-.4728-.0005-.1755-.0273-.3037-.0805-.3795-.0532-.0775-.1371-.0832-.2516-.017-.116.067-.1996.171-.2536.3087-.054.1394-.0816.2973-.0811.4728s.0288.3012.0835.3778c.0547.0783.1385.0823.2546.0153.1145-.0661.198-.1667.2506-.3053" fill="#cad0dd"/></g><g><path d="m40.6957 87.3465c.0944.0942.1405.2654.1412.5118.0007.2481-.0443.4718-.1378.6747-.0921.2002-.2314.3551-.418.4628s-.3263.114-.4193.0206c-.093-.0951-.1405-.2654-.1412-.5136-.0007-.2464.0457-.471.1379-.673.0921-.2003.2314-.3551.418-.4628.1865-.1076.3262-.1139.4192-.0205zm-.1646 1.1161c.0526-.1368.0786-.2956.0781-.4728-.0005-.1755-.0273-.3037-.0805-.3795-.0532-.0775-.1371-.0832-.2516-.017-.1146.0662-.1996.1693-.2536.3087-.0526.1385-.0801.2964-.0796.4719s.0288.3012.082.3787c.0546.0766.14.0815.2546.0153.1145-.0661.198-.1668.2506-.3053" fill="#cad0dd"/></g><g><path d="m41.5044 86.6953.0045 1.573-.2188.1263-.0038-1.3367-.2791.1611-.0007-.2363z" fill="#cad0dd"/></g><g><path d="m43.5975 85.4868.0045 1.5731-.2189.1263-.0038-1.3367-.2776.1603-.0007-.2363z" fill="#cad0dd"/></g><g><path d="m44.8832 84.9288c.0929.0951.139.2663.1397.5127.0007.2481-.0443.4719-.1364.6738-.0936.2011-.2329.3559-.4195.4636-.1865.1077-.3263.114-.4192.0206-.093-.0951-.1405-.2654-.1412-.5135-.0007-.2464.0457-.471.1379-.673.0921-.2003.2314-.3551.418-.4628s.3263-.114.4207-.0214zm-.1645 1.1161c.0526-.1368.0786-.2956.0781-.4728-.0005-.1755-.0273-.3037-.0805-.3795-.0532-.0775-.1371-.0832-.2531-.0162-.1146.0661-.1981.1685-.2522.3079-.054.1394-.0815.2973-.0811.4728.0005.1755.0288.3012.0835.3778s.1385.0823.2531.0162c.116-.067.1996-.1677.2522-.3062" fill="#cad0dd"/></g><g><path d="m46.2301 84.1512c.093.0951.1391.2663.1398.5127.0007.2481-.0443.4719-.1364.6738-.0921.2003-.2314.3551-.418.4628-.188.1086-.3278.1149-.4207.0215-.0929-.0951-.139-.2663-.1397-.5144-.0007-.2464.0443-.4702.1364-.6721.0921-.2003.2314-.3551.4195-.4637.1864-.1077.3262-.114.4191-.0206zm-.1645 1.1161c.0526-.1368.0786-.2956.0781-.4728-.0005-.1755-.0273-.3037-.0805-.3795-.0532-.0775-.1371-.0832-.2516-.017-.116.067-.1996.1693-.2536.3087s-.0816.2973-.0811.4728.0288.3012.0835.3778c.0546.0766.1385.0823.2546.0153.1144-.0661.198-.1668.2506-.3053" fill="#cad0dd"/></g><g><path d="m40.7033 90.0469c.0944.0942.1405.2654.1412.5118.0007.2481-.0443.4718-.1378.6746-.0921.2003-.2314.3551-.418.4628s-.3263.114-.4193.0206c-.093-.0951-.1405-.2654-.1412-.5135-.0007-.2464.0457-.471.1379-.673.0921-.2003.2314-.3551.418-.4628.1865-.1076.3263-.1139.4192-.0205zm-.1645 1.1161c.0526-.1369.0786-.2956.0781-.4728-.0005-.1755-.0273-.3037-.0805-.3795-.0532-.0775-.1371-.0832-.2516-.017-.1146.0661-.1996.1693-.2536.3087-.0526.1385-.0801.2964-.0796.472s.0288.3012.082.3787c.0546.0766.14.0815.2546.0153.1144-.0662.198-.1668.2506-.3054" fill="#cad0dd"/></g><g><path d="m41.5121 89.3957.0045 1.573-.2189.1264-.0038-1.3368-.2791.1612-.0006-.2363z" fill="#cad0dd"/></g><g><path d="m42.7964 88.8385c.0944.0942.1405.2654.1412.5118.0007.2481-.0443.4719-.1379.6747-.0921.2003-.2314.3551-.418.4628s-.3263.114-.4192.0206c-.0929-.0951-.1405-.2654-.1412-.5135-.0007-.2464.0458-.471.1379-.673.0921-.2003.2314-.3551.418-.4628.1865-.1077.3262-.114.4192-.0206zm-.1631 1.1152c.0526-.1368.0786-.2956.0781-.4728-.0005-.1755-.0273-.3037-.0805-.3795-.0532-.0775-.1385-.0823-.2531-.0162s-.1996.1693-.2522.3079c-.054.1394-.0816.2973-.0811.4728s.0288.3012.0835.3778c.0532.0775.1385.0823.2531.0162s.1996-.1676.2522-.3062" fill="#cad0dd"/></g><g><path d="m43.6052 88.1873.0044 1.573-.2188.1264-.0038-1.3368-.2776.1603-.0007-.2363z" fill="#cad0dd"/></g><g><path d="m44.8909 87.6292c.0929.0951.139.2663.1397.5127.0007.2481-.0443.4719-.1364.6738-.0936.2011-.2329.3559-.4195.4637-.1865.1077-.3263.114-.4192.0206-.093-.0951-.1405-.2654-.1412-.5135-.0007-.2464.0457-.471.1379-.673.0921-.2003.2314-.3551.418-.4628.1865-.1077.3263-.114.4207-.0215zm-.1646 1.1161c.0526-.1369.0786-.2956.0781-.4728-.0005-.1755-.0273-.3037-.0805-.3795-.0532-.0775-.1371-.0832-.2531-.0162-.1146.0661-.1981.1685-.2522.3079-.054.1394-.0815.2973-.0811.4728.0005.1755.0288.3012.0835.3778s.1385.0823.2531.0162c.1161-.067.1996-.1676.2522-.3062" fill="#cad0dd"/></g><g><path d="m46.2378 86.8516c.093.0951.1391.2663.1398.5127.0007.2481-.0443.4719-.1364.6738-.0921.2003-.2314.3551-.418.4628-.188.1086-.3278.1149-.4207.0214-.0929-.0951-.139-.2663-.1397-.5144-.0007-.2464.0443-.4702.1364-.6721.0921-.2003.2314-.3551.4195-.4637.1864-.1076.3261-.1139.4191-.0205zm-.1646 1.1161c.0526-.1369.0786-.2956.0781-.4728-.0005-.1755-.0273-.3037-.0805-.3795-.0532-.0775-.1371-.0832-.2516-.017-.116.067-.1996.1693-.2536.3087s-.0815.2973-.0811.4728c.0005.1755.0288.3012.0835.3778.0546.0766.1385.0823.2546.0153.1145-.0661.198-.1668.2506-.3053" fill="#cad0dd"/></g><g><path d="m40.711 92.7474c.0944.0942.1405.2654.1412.5119.0007.2481-.0443.4718-.1378.6747-.0921.2002-.2314.3551-.418.4628s-.3263.114-.4193.0206c-.093-.0951-.1405-.2654-.1412-.5135-.0007-.2464.0457-.471.1379-.673.0921-.2003.2314-.3551.418-.4628.1865-.1079.3262-.1141.4192-.0207zm-.1646 1.116c.0526-.1369.0786-.2956.0781-.4728-.0005-.1755-.0273-.3037-.0805-.3795-.0532-.0775-.1371-.0831-.2516-.017-.1146.0662-.1996.1693-.2536.3087-.0526.1386-.0801.2964-.0796.472.0005.1755.0288.3012.082.3787.0546.0767.14.0815.2546.0153.1145-.0662.198-.1668.2506-.3054" fill="#cad0dd"/></g><g><path d="m42.0593 91.9689c.093.0951.1391.2663.1398.5127.0007.2481-.0443.4719-.1364.6738-.0921.2003-.2329.3559-.4194.4636s-.3263.114-.4192.0206c-.093-.0951-.1405-.2654-.1412-.5135-.0007-.2464.0458-.471.1379-.673.0921-.2002.2314-.3551.418-.4628.1864-.1077.3276-.1148.4205-.0214zm-.1645 1.1161c.0526-.1369.0786-.2956.0781-.4728-.0005-.1755-.0273-.3037-.0805-.3795-.0532-.0775-.1385-.0823-.2531-.0162s-.1996.1693-.2522.3079c-.054.1394-.0816.2973-.0811.4728s.0288.3012.0835.3778c.0532.0775.1385.0823.2531.0162s.1996-.1677.2522-.3062" fill="#cad0dd"/></g><g><path d="m43.4062 91.1912c.093.0951.139.2663.1397.5127.0007.2481-.0443.4718-.1364.6738-.0921.2003-.2314.3551-.418.4628-.188.1085-.3277.1148-.4207.0214-.093-.0951-.139-.2663-.1397-.5144-.0007-.2464.0443-.4702.1364-.6721.0921-.2002.2314-.3551.4194-.4636.1866-.1077.3264-.114.4193-.0206zm-.1645 1.1161c.0526-.1369.0786-.2956.0781-.4728-.0005-.1755-.0273-.3037-.0805-.3795-.0532-.0775-.1371-.0831-.2516-.017-.116.067-.1996.1693-.2536.3087s-.0801.2964-.0796.472c.0005.1755.0274.302.082.3787.0547.0767.1385.0823.2546.0153.1144-.0662.198-.1668.2506-.3054" fill="#cad0dd"/></g><g><path d="m44.2135 90.5409.0045 1.573-.2188.1263-.0038-1.3367-.2776.1603-.0007-.2363z" fill="#cad0dd"/></g><g><path d="m44.9597 90.1101.0045 1.573-.2189.1263-.0038-1.3367-.2776.1603-.0007-.2363z" fill="#cad0dd"/></g><g><path d="m46.2454 89.552c.093.0951.1391.2663.1398.5127.0007.2481-.0443.4719-.1364.6738-.0921.2002-.2314.3551-.418.4628-.188.1086-.3278.1149-.4207.0215-.0929-.0951-.139-.2663-.1397-.5144-.0007-.2464.0443-.4702.1364-.6721.0921-.2003.2314-.3551.4195-.4636.1864-.1078.3262-.1141.4191-.0207zm-.1645 1.1161c.0526-.1369.0786-.2956.0781-.4728-.0005-.1755-.0273-.3037-.0805-.3795-.0532-.0775-.1371-.0831-.2516-.017-.116.067-.1996.1693-.2536.3087s-.0815.2973-.0811.4728c.0005.1755.0288.3012.0835.3778s.1385.0823.2546.0153c.1144-.0661.198-.1667.2506-.3053" fill="#cad0dd"/></g></g><g><g><path d="m82.908 41.211c.093.0951.1405.2655.1412.5119.0007.2481-.0457.4727-.1378.6746-.0921.2003-.2314.3551-.418.4628-.1865.1077-.3278.1148-.4207.0214-.093-.0951-.139-.2663-.1397-.5144-.0007-.2464.0443-.4702.1364-.6721.0921-.2003.2329-.3559.4195-.4636.1864-.1077.3261-.114.4191-.0206zm-.1646 1.1161c.0526-.1369.0786-.2956.0781-.4728-.0005-.1755-.0273-.3037-.0805-.3795-.0532-.0775-.1371-.0831-.2516-.017-.1146.0661-.1996.1693-.2536.3087s-.0801.2964-.0796.472c.0005.1755.0273.302.082.3787.0546.0766.14.0815.2546.0153.1145-.0662.1981-.1669.2506-.3054" fill="#cad0dd"/></g><g><path d="m81.9265 39.0728c.093.0951.1391.2663.1398.5127.0007.2481-.0443.4719-.1364.6738-.0921.2003-.2314.3551-.4194.4636-.1865.1077-.3263.114-.4192.0206-.093-.0951-.1405-.2654-.1412-.5135-.0007-.2464.0457-.471.1379-.673.0921-.2003.2314-.3551.418-.4628.1878-.1085.3276-.1148.4205-.0214zm-.1645 1.1161c.0526-.1369.0786-.2956.0781-.4728-.0005-.1755-.0273-.3037-.0805-.3795-.0532-.0775-.137-.0832-.2531-.0162-.1146.0661-.1981.1685-.2522.3079-.054.1394-.0816.2973-.081.4728.0005.1755.0288.3012.0835.3778s.1385.0823.2531.0161c.1159-.0669.1995-.1676.2521-.3061" fill="#cad0dd"/></g><g><path d="m83.2734 38.2952c.093.0951.1405.2654.1412.5118.0007.2481-.0457.4727-.1378.6747-.0921.2003-.2314.3551-.418.4628-.188.1085-.3278.1148-.4207.0214-.093-.0951-.139-.2663-.1397-.5144-.0007-.2464.0443-.4701.1364-.6721.0921-.2003.2314-.3551.4194-.4636.1865-.1077.3263-.114.4192-.0206zm-.1645 1.1161c.0526-.1369.0786-.2956.0781-.4728-.0005-.1755-.0273-.3037-.0805-.3795-.0532-.0775-.1371-.0832-.2516-.017-.116.067-.1996.1693-.2536.3087s-.0801.2964-.0796.472c.0005.1755.0274.302.082.3787.0546.0766.1385.0823.2545.0153.1145-.0662.1981-.1669.2507-.3054" fill="#cad0dd"/></g><g><path d="m84.6203 37.5176c.0929.0951.1405.2654.1412.5118.0007.2481-.0458.4727-.1379.6747-.0921.2003-.2314.3551-.418.4628-.1865.1077-.3263.114-.4192.0206-.0944-.0942-.1405-.2654-.1412-.5135-.0007-.2464.0443-.4702.1379-.673.0921-.2003.2314-.3551.418-.4628.1865-.1078.3263-.1141.4192-.0206zm-.1645 1.116c.0526-.1369.0786-.2956.0781-.4728-.0005-.1755-.0273-.3037-.0805-.3795-.0532-.0775-.1371-.0832-.2516-.017s-.1996.1693-.2536.3087-.0801.2964-.0796.472c.0005.1755.0273.302.082.3787.0546.0766.14.0814.2546.0153.1144-.0662.198-.1668.2506-.3054" fill="#cad0dd"/></g><g><path d="m85.9672 36.7399c.093.0951.1405.2654.1412.5118.0007.2481-.0457.4727-.1378.6746-.0921.2003-.2314.3551-.418.4628-.1865.1077-.3263.114-.4192.0206-.093-.0951-.1405-.2654-.1412-.5135-.0007-.2464.0457-.471.1379-.673.0921-.2003.2314-.3551.418-.4628.1864-.1076.3261-.1139.4191-.0205zm-.1645 1.1161c.0526-.1369.0786-.2956.0781-.4728-.0005-.1755-.0273-.3037-.0805-.3795-.0532-.0775-.1371-.0832-.2516-.017-.1146.0661-.1996.1693-.2536.3087s-.0801.2964-.0796.472c.0005.1755.0273.302.082.3787.0546.0766.14.0814.2546.0153.1144-.0662.198-.1668.2506-.3054" fill="#cad0dd"/></g><g><path d="m87.3141 35.9623c.0944.0943.1405.2654.1412.5118.0007.2481-.0443.4719-.1378.6746-.0921.2003-.2314.3551-.418.4628-.1865.1077-.3263.114-.4192.0206-.093-.0951-.1405-.2654-.1412-.5135-.0007-.2464.0457-.471.1379-.673.0921-.2003.2314-.3551.418-.4628.1864-.1076.3261-.1139.4191-.0205zm-.1631 1.1152c.0526-.1369.0786-.2956.0781-.4728-.0005-.1755-.0273-.3037-.0805-.3795-.0547-.0767-.1385-.0823-.2531-.0162s-.1996.1693-.2522.3079c-.054.1394-.0816.2973-.0811.4728s.0288.3012.0835.3778c.0532.0775.1385.0823.2531.0161.1146-.066.1982-.1667.2522-.3061" fill="#cad0dd"/></g><g><path d="m81.6223 41.7691.0044 1.573-.2188.1263-.0038-1.3367-.2776.1603-.0007-.2363z" fill="#cad0dd"/></g><g><path d="m83.7168 40.5598.0044 1.573-.2203.1272-.0038-1.3367-.2776.1603-.0006-.2363z" fill="#cad0dd"/></g><g><path d="m85.001 40.0026c.093.0951.1405.2654.1412.5118.0007.2481-.0458.4727-.1379.6747-.0921.2002-.2314.3551-.418.4628-.1865.1077-.3263.114-.4207.0214-.0929-.0951-.1391-.2663-.1398-.5144-.0007-.2464.0443-.4702.1364-.6721.0936-.2011.2329-.3559.4194-.4636s.3265-.114.4194-.0206zm-.1645 1.1161c.0526-.1369.0786-.2956.0781-.4728-.0005-.1755-.0273-.3037-.0805-.3795-.0532-.0775-.137-.0831-.2516-.017s-.1996.1693-.2536.3087-.0801.2964-.0796.472c.0005.1755.0273.302.082.3787.0546.0766.14.0815.2546.0153s.198-.1669.2506-.3054" fill="#cad0dd"/></g><g><path d="m85.8098 39.3514.0045 1.573-.2203.1272-.0038-1.3367-.2776.1602-.0007-.2363z" fill="#cad0dd"/></g><g><path d="m87.0941 38.7942c.093.0951.1405.2655.1412.5119.0007.2481-.0457.4727-.1378.6746-.0921.2003-.2314.3551-.418.4628-.1865.1077-.3263.114-.4192.0206-.0944-.0942-.1405-.2654-.1412-.5135-.0007-.2464.0443-.4702.1379-.673.0921-.2003.2314-.3551.418-.4628.1864-.1077.3261-.114.4191-.0206zm-.1646 1.116c.0526-.1369.0786-.2956.0781-.4728-.0005-.1755-.0273-.3037-.0805-.3795-.0532-.0775-.1371-.0831-.2516-.017s-.1996.1693-.2536.3087-.0801.2964-.0796.472c.0005.1755.0273.302.082.3787.0546.0766.14.0815.2546.0153.1145-.0661.1981-.1668.2506-.3054" fill="#cad0dd"/></g><g><path d="m83.9767 48.7085c.0944.0942.1405.2654.1412.5118.0007.2481-.0443.4719-.1379.6747-.0921.2002-.2314.3551-.418.4628-.1865.1077-.3263.114-.4192.0206-.0929-.0951-.1405-.2654-.1412-.5136-.0007-.2464.0458-.471.1379-.673.0921-.2003.2314-.3551.418-.4628.1865-.1076.3263-.1139.4192-.0205zm-.163 1.1152c.0526-.1368.0786-.2956.0781-.4728-.0005-.1755-.0273-.3037-.0805-.3795-.0532-.0775-.1385-.0823-.2531-.0162s-.1996.1693-.2522.3079c-.054.1394-.0816.2973-.0811.4728s.0288.3012.0835.3778c.0532.0775.1385.0823.2531.0162s.1996-.1676.2522-.3062" fill="#cad0dd"/></g><g><path d="m83.2244 46.438c.093.0951.1391.2663.1398.5127.0007.2481-.0443.4719-.1364.6738-.0921.2003-.2329.3559-.4194.4636s-.3263.114-.4192.0206c-.093-.0951-.1405-.2654-.1412-.5135-.0007-.2464.0458-.471.1379-.673.0921-.2002.2314-.3551.418-.4628.1863-.1076.3276-.1148.4205-.0214zm-.1645 1.1161c.0526-.1369.0786-.2956.0781-.4728-.0005-.1755-.0273-.3037-.0805-.3795-.0532-.0775-.1385-.0823-.2531-.0162-.1146.0662-.1996.171-.2522.3079-.054.1394-.0816.2973-.0811.4728s.0288.3012.0835.3778c.0532.0792.1385.0823.2531.0162s.1996-.1677.2522-.3062" fill="#cad0dd"/></g><g><path d="m82.1695 44.3422c.093.0951.1405.2654.1412.5119.0007.2481-.0457.4727-.1378.6747-.0921.2003-.2314.3551-.418.4628-.1865.1077-.3263.114-.4207.0214-.093-.0951-.1391-.2663-.1398-.5144-.0007-.2464.0443-.4702.1364-.6721.0936-.2011.2329-.3559.4194-.4636.1866-.1078.3263-.1141.4193-.0207zm-.1646 1.1161c.0526-.1369.0786-.2956.0781-.4728-.0005-.1755-.0274-.3037-.0805-.3795-.0532-.0775-.137-.0832-.2516-.017-.116.067-.1996.1694-.2536.3087-.054.1394-.0801.2964-.0796.472.0005.1755.0273.302.082.3787.0547.0766.1385.0823.2546.0153.1145-.0662.1981-.1669.2506-.3054" fill="#cad0dd"/></g><g><path d="m82.9783 43.691.0044 1.573-.2203.1272-.0038-1.3367-.2776.1603-.0006-.2363z" fill="#cad0dd"/></g><g><path d="m87.0527 49.6375c.093.0951.1391.2663.1398.5127.0007.2481-.0443.4719-.1364.6738-.0921.2003-.2314.3551-.418.4628-.188.1085-.3278.1149-.4207.0214-.0929-.0951-.139-.2663-.1397-.5144-.0007-.2464.0443-.4702.1364-.6721.0921-.2003.2315-.3551.4195-.4637.1864-.1077.3262-.114.4191-.0205zm-.1645 1.116c.0526-.1369.0786-.2956.0781-.4728-.0005-.1755-.0273-.3037-.0805-.3795-.0532-.0775-.1371-.0832-.2516-.017-.1161.067-.1996.1693-.2537.3087-.054.1394-.0801.2964-.0796.4719s.0273.302.082.3787c.0546.0766.1385.0823.2546.0153.1145-.0661.1981-.1667.2507-.3053" fill="#cad0dd"/></g><g><path d="m86.0713 47.4992c.0929.0951.139.2663.1397.5127.0007.2481-.0443.4719-.1364.6738-.0936.2011-.2329.3559-.4195.4636-.1865.1077-.3263.114-.4192.0206-.093-.0951-.1405-.2654-.1412-.5136-.0007-.2464.0457-.471.1379-.673.0921-.2003.2314-.3551.418-.4628.1865-.1075.3262-.1138.4207-.0213zm-.1646 1.1161c.0526-.1368.0786-.2956.0781-.4728-.0005-.1755-.0273-.3037-.0805-.3795-.0532-.0775-.1371-.0832-.2531-.0162-.1146.0661-.1981.1685-.2522.3079-.054.1394-.0816.2973-.081.4728.0005.1755.0288.3012.0835.3778s.1385.0823.2531.0162c.116-.067.1995-.1676.2521-.3062" fill="#cad0dd"/></g><g><path d="m85.3175 45.2296c.093.0951.139.2663.1397.5127.0007.2481-.0443.4719-.1364.6738-.0921.2003-.2329.3559-.4195.4636-.1865.1077-.3263.114-.4192.0206-.093-.0951-.1405-.2654-.1412-.5136-.0007-.2464.0457-.471.1378-.673.0921-.2003.2314-.3551.418-.4628.1866-.1075.3278-.1147.4208-.0213zm-.1646 1.1161c.0526-.1369.0786-.2956.0781-.4728-.0005-.1755-.0273-.3037-.0805-.3795-.0532-.0775-.1371-.0832-.2531-.0162-.1145.0661-.1981.1702-.2522.3079-.054.1394-.0816.2973-.0811.4728s.0288.3012.0835.3778c.0547.0783.1385.0823.2531.0162.1161-.067.1996-.1677.2522-.3062" fill="#cad0dd"/></g><g><path d="m84.2626 43.1338c.0929.0951.1405.2654.1412.5119.0007.2481-.0458.4727-.1378.6746-.0921.2003-.2314.3551-.418.4628-.1865.1077-.3263.114-.4192.0206-.0944-.0942-.1405-.2654-.1412-.5135-.0007-.2464.0443-.4702.1378-.673.0921-.2003.2314-.3551.418-.4628.1865-.1077.3262-.114.4192-.0206zm-.1646 1.1161c.0526-.1369.0786-.2956.0781-.4728-.0005-.1755-.0273-.3037-.0805-.3795-.0532-.0775-.1371-.0832-.2516-.017-.1146.0661-.1996.1694-.2536.3087-.054.1394-.0801.2964-.0796.472.0005.1755.0273.302.082.3787.0546.0767.14.0815.2546.0153.1144-.0662.198-.1669.2506-.3054" fill="#cad0dd"/></g><g><path d="m85.0713 42.4826.0045 1.573-.2203.1272-.0038-1.3367-.2776.1603-.0007-.2363z" fill="#cad0dd"/></g><g><path d="m86.3556 41.9254c.093.0951.1405.2654.1412.5119.0007.2481-.0457.4727-.1378.6746-.0921.2003-.2314.3551-.418.4628-.1865.1077-.3263.114-.4192.0206-.093-.0951-.1405-.2654-.1412-.5135-.0007-.2464.0457-.471.1379-.673.0921-.2003.2314-.3551.418-.4628.1864-.1077.3261-.114.4191-.0206zm-.1646 1.1161c.0526-.1369.0786-.2956.0781-.4728-.0005-.1755-.0273-.3037-.0805-.3795-.0532-.0775-.1371-.0832-.2516-.017-.1146.0661-.1996.1694-.2536.3087-.054.1394-.0801.2964-.0796.472.0005.1755.0273.302.082.3787s.14.0815.2546.0153c.1145-.0662.1981-.1669.2506-.3054" fill="#cad0dd"/></g><g><path d="m87.1644 41.2742.0044 1.573-.2188.1263-.0038-1.3367-.2791.1611-.0006-.2363z" fill="#cad0dd"/></g><g><path d="m81.876 47.2165c.0944.0942.1405.2654.1412.5118.0007.2481-.0443.4719-.1378.6747-.0921.2002-.2314.3551-.418.4628-.1865.1077-.3263.114-.4193.0206-.093-.0951-.1405-.2654-.1412-.5136-.0007-.2464.0457-.471.1378-.673.0921-.2003.2314-.3551.418-.4628.1866-.1076.3264-.1139.4193-.0205zm-.1645 1.1161c.0526-.1369.0786-.2956.0781-.4728-.0005-.1755-.0273-.3037-.0805-.3795-.0532-.0775-.1371-.0832-.2516-.017-.1146.0662-.1996.171-.2536.3087-.0526.1386-.0801.2964-.0796.4719s.0288.3012.082.3787c.0546.0783.14.0815.2546.0153.1144-.0661.198-.1668.2506-.3053" fill="#cad0dd"/></g><g><path d="m84.0317 45.7877.0045 1.5729-.2189.1264-.0038-1.3367-.2775.1603-.0007-.2363z" fill="#cad0dd"/></g><g><path d="m87.4182 46.7216c.093.0951.1391.2663.1398.5127.0007.2481-.0443.4719-.1364.6738-.0921.2003-.2314.3551-.418.4628-.188.1086-.3278.1149-.4207.0215-.0929-.0951-.139-.2663-.1397-.5144-.0007-.2464.0443-.4702.1364-.6721.0921-.2003.2314-.3551.4195-.4637.1864-.1077.3261-.114.4191-.0206zm-.1646 1.1161c.0526-.1368.0786-.2956.0781-.4728-.0005-.1755-.0273-.3037-.0805-.3795-.0532-.0775-.1371-.0832-.2516-.017-.116.067-.1996.1693-.2536.3087s-.0815.2973-.081.4728.0288.3012.0835.3778.1385.0823.2546.0153c.1144-.0661.1979-.1668.2505-.3053" fill="#cad0dd"/></g><g><path d="m86.6643 44.452c.093.0951.1405.2654.1412.5118.0007.2481-.0457.4727-.1378.6747-.0921.2003-.2314.3551-.418.4628-.188.1085-.3278.1148-.4207.0214-.093-.0951-.1391-.2663-.1398-.5144-.0007-.2464.0443-.4702.1364-.6721.0921-.2002.2314-.3551.4194-.4636.1866-.1077.3264-.114.4193-.0206zm-.1645 1.1161c.0526-.1369.0786-.2956.0781-.4728-.0005-.1755-.0274-.3037-.0805-.3795-.0532-.0775-.137-.0832-.2516-.017-.116.067-.1996.171-.2536.3087-.054.1394-.0801.2964-.0796.4719s.0273.302.082.3787c.0547.0783.1385.0823.2546.0153.1145-.0661.198-.1668.2506-.3053" fill="#cad0dd"/></g><g><path d="m87.4717 43.8016.0044 1.573-.2188.1264-.0038-1.3367-.2776.1602-.0007-.2363z" fill="#cad0dd"/></g><g><path d="m81.8837 49.9169c.0944.0942.1405.2654.1412.5118.0007.2481-.0443.4718-.1378.6747-.0921.2003-.2314.3551-.418.4628s-.3263.114-.4193.0206c-.093-.0951-.1405-.2655-.1412-.5136-.0007-.2464.0457-.471.1379-.673.0921-.2003.2314-.3551.418-.4628.1865-.1076.3263-.1139.4192-.0205zm-.1646 1.1161c.0526-.1368.0786-.2956.0781-.4728-.0005-.1755-.0273-.3037-.0805-.3795-.0532-.0775-.1371-.0832-.2516-.017-.1146.0662-.1996.1693-.2536.3087-.0526.1385-.0801.2964-.0796.472.0005.1755.0288.3012.082.3787.0546.0766.14.0815.2546.0153.1145-.0662.1981-.1668.2506-.3054" fill="#cad0dd"/></g><g><path d="m82.6925 49.2657.0045 1.573-.2189.1264-.0038-1.3368-.2791.1612-.0006-.2363z" fill="#cad0dd"/></g><g><path d="m84.7856 48.0573.0044 1.573-.2188.1263-.0038-1.3367-.2777.1603-.0006-.2363z" fill="#cad0dd"/></g><g><path d="m81.7263 52.5284.0045 1.573-.2203.1272-.0038-1.3367-.2776.1602-.0007-.2363z" fill="#cad0dd"/></g><g><path d="m84.7459 56.379c.093.0951.1405.2654.1412.5119.0007.2481-.0457.4727-.1378.6747-.0921.2003-.2314.3551-.418.4628-.1865.1077-.3263.114-.4192.0206-.093-.0951-.1405-.2654-.1412-.5135-.0007-.2464.0457-.471.1378-.673.0921-.2003.2314-.3551.418-.4628.1865-.1078.3262-.1141.4192-.0207zm-.1646 1.1161c.0526-.1369.0786-.2956.0781-.4728-.0005-.1755-.0274-.3037-.0805-.3795-.0532-.0775-.137-.0832-.2516-.017s-.1996.1694-.2522.3079c-.054.1394-.0816.2973-.0811.4728s.0288.3012.0835.3778c.0532.0775.1385.0823.2531.0162.1146-.0662.1981-.1669.2507-.3054" fill="#cad0dd"/></g><g><path d="m83.9921 54.1094c.0944.0942.1405.2654.1412.5118.0007.2481-.0443.4719-.1379.6747-.0921.2002-.2314.3551-.418.4628-.1865.1077-.3263.114-.4193.0206-.0929-.0951-.1405-.2654-.1412-.5135-.0007-.2464.0458-.471.1379-.673.0921-.2003.2314-.3551.418-.4628s.3263-.114.4193-.0206zm-.1631 1.1152c.0526-.1369.0786-.2956.0781-.4728-.0005-.1755-.0273-.3037-.0805-.3795-.0532-.0775-.1385-.0823-.2531-.0162s-.1996.1693-.2522.3079c-.054.1394-.0816.2973-.0811.4728s.0288.3012.0835.3778c.0532.0775.1385.0823.2531.0162s.1996-.1676.2522-.3062" fill="#cad0dd"/></g><g><path d="m83.0106 51.9712c.093.0951.1405.2654.1412.5118.0007.2481-.0457.4727-.1379.6746-.0921.2003-.2314.3551-.418.4628-.1865.1077-.3263.114-.4192.0206-.093-.0951-.1405-.2654-.1412-.5135-.0007-.2464.0457-.471.1378-.673.0921-.2003.2314-.3551.418-.4628.1866-.1076.3263-.1139.4193-.0205zm-.1646 1.116c.0526-.1369.0786-.2956.0781-.4728-.0005-.1755-.0273-.3037-.0805-.3795-.0532-.0775-.1371-.0832-.2516-.017-.1146.0662-.1996.1693-.2536.3087s-.0801.2964-.0796.4719.0273.302.082.3787c.0546.0766.14.0814.2546.0153s.1981-.1667.2506-.3053" fill="#cad0dd"/></g><g><path d="m84.3575 51.1936c.0944.0942.1405.2654.1412.5118.0007.2481-.0443.4718-.1378.6747-.0921.2003-.2314.3551-.418.4628s-.3263.114-.4193.0206c-.093-.0951-.1405-.2654-.1412-.5135-.0007-.2464.0457-.471.1379-.673.0921-.2003.2314-.3551.418-.4628.1865-.1078.3262-.1141.4192-.0206zm-.1646 1.116c.0526-.1369.0786-.2956.0781-.4728-.0005-.1755-.0273-.3037-.0805-.3795-.0532-.0775-.137-.0832-.2516-.017s-.1996.1693-.2536.3087c-.0526.1385-.0801.2964-.0796.4719s.0288.3012.082.3787c.0546.0766.14.0814.2546.0153s.1981-.1667.2506-.3053" fill="#cad0dd"/></g><g><path d="m85.7059 50.4151c.0929.0951.139.2663.1397.5127.0007.2481-.0443.4719-.1364.6738-.0921.2003-.2314.3551-.4195.4637-.1865.1077-.3263.114-.4192.0206-.093-.0951-.1405-.2654-.1412-.5135-.0007-.2464.0457-.471.1379-.673.0921-.2003.2314-.3551.418-.4628.188-.1087.3277-.1149.4207-.0215zm-.1646 1.116c.0526-.1369.0786-.2956.0781-.4728-.0005-.1755-.0273-.3037-.0805-.3795-.0532-.0775-.1371-.0832-.2531-.0162-.1145.0661-.1981.1685-.2522.3079-.054.1394-.0815.2973-.081.4728s.0288.3012.0835.3778.1385.0823.2531.0162c.116-.067.1995-.1676.2521-.3062" fill="#cad0dd"/></g><g><path d="m81.3609 55.4442.0045 1.573-.2189.1264-.0038-1.3368-.279.1612-.0007-.2363z" fill="#cad0dd"/></g><g><path d="m82.6452 54.887c.093.0951.1405.2655.1412.5119.0007.2481-.0457.4727-.1378.6746-.0921.2003-.2314.3551-.418.4628-.1865.1077-.3263.114-.4192.0206-.093-.0951-.1405-.2654-.1412-.5135-.0007-.2464.0457-.471.1379-.673.0921-.2003.2314-.3551.418-.4628.1864-.1077.3261-.114.4191-.0206zm-.1646 1.1161c.0526-.1369.0786-.2956.0781-.4728-.0005-.1755-.0273-.3037-.0805-.3795-.0532-.0775-.1371-.0831-.2516-.017s-.1996.1693-.2536.3087c-.0526.1386-.0801.2964-.0796.472.0005.1755.0288.3012.082.3787.0547.0766.14.0815.2546.0153.1145-.0662.1981-.1669.2506-.3054" fill="#cad0dd"/></g><g><path d="m84.8009 53.4581.0044 1.5731-.2188.1263-.0038-1.3367-.2776.1603-.0007-.2363z" fill="#cad0dd"/></g><g><path d="m86.0866 52.9001c.0929.0951.139.2663.1397.5127.0007.2481-.0443.4719-.1364.6738-.0936.2011-.2329.3559-.4195.4636-.1865.1077-.3263.114-.4192.0206-.093-.0951-.1405-.2654-.1412-.5135-.0007-.2464.0457-.471.1379-.673.0921-.2003.2314-.3551.418-.4628.1865-.1077.3263-.114.4207-.0214zm-.1646 1.1161c.0526-.1369.0786-.2956.0781-.4728-.0005-.1755-.0273-.3037-.0805-.3795-.0532-.0775-.1371-.0831-.2531-.0161-.1146.0661-.1981.1685-.2522.3079-.054.1394-.0816.2973-.081.4728.0005.1755.0288.3012.0835.3778s.1385.0823.2531.0162c.116-.0671.1995-.1678.2521-.3063" fill="#cad0dd"/></g><g><path d="m87.4335 52.1225c.093.0951.1391.2663.1398.5127.0007.2481-.0443.4719-.1364.6738-.0921.2003-.2314.3551-.418.4628-.188.1086-.3278.1148-.4207.0214-.0929-.0951-.139-.2663-.1397-.5144-.0007-.2464.0443-.4702.1364-.6721.0921-.2003.2314-.3551.4195-.4636.1864-.1077.3261-.114.4191-.0206zm-.1646 1.1161c.0526-.1369.0786-.2956.0781-.4728-.0005-.1755-.0273-.3037-.0805-.3795-.0532-.0775-.1371-.0831-.2516-.017-.116.067-.1996.1693-.2536.3087s-.0815.2973-.081.4728.0288.3012.0835.3778.1385.0823.2546.0153c.1144-.0661.198-.1668.2505-.3053" fill="#cad0dd"/></g><g><path d="m81.3686 58.1446.0044 1.573-.2188.1264-.0038-1.3367-.2791.1611-.0006-.2363z" fill="#cad0dd"/></g><g><path d="m82.6528 57.5874c.093.0951.1405.2654.1412.5119.0007.2481-.0457.4727-.1378.6747-.0921.2003-.2314.3551-.418.4628-.1865.1077-.3263.114-.4192.0206-.093-.0951-.1405-.2654-.1412-.5135-.0007-.2464.0457-.471.1379-.673.0921-.2003.2314-.3551.418-.4628.1864-.1078.3262-.1141.4191-.0207zm-.1645 1.1161c.0526-.1369.0786-.2956.0781-.4728-.0005-.1755-.0273-.3037-.0805-.3795-.0532-.0775-.1371-.0832-.2516-.017-.1146.0661-.1996.1693-.2536.3087-.0526.1385-.0801.2964-.0796.472.0005.1755.0288.3012.082.3787.0547.0766.14.0815.2546.0153.1144-.0662.198-.1669.2506-.3054" fill="#cad0dd"/></g><g><path d="m83.4616 56.9362.0045 1.573-.2189.1264-.0038-1.3367-.279.1611-.0007-.2363z" fill="#cad0dd"/></g><g><path d="m86.0942 55.6005c.0929.0951.139.2663.1397.5127.0007.2481-.0443.4719-.1364.6738-.0936.2011-.2329.3559-.4195.4636-.1865.1077-.3263.114-.4192.0206-.093-.0951-.1405-.2654-.1412-.5135-.0007-.2464.0457-.471.1378-.673.0921-.2003.2314-.3551.418-.4628.1867-.1076.3264-.1139.4208-.0214zm-.1645 1.1161c.0526-.1369.0786-.2956.0781-.4728-.0005-.1755-.0273-.3037-.0805-.3795-.0532-.0775-.1371-.0832-.2531-.0162-.1146.0661-.1981.1685-.2522.3079-.054.1394-.0816.2973-.0811.4728s.0288.3012.0835.3778c.0546.0766.1385.0823.2531.0162.116-.067.1996-.1676.2522-.3062" fill="#cad0dd"/></g><g><path d="m87.4411 54.8229c.093.0951.1391.2663.1398.5127.0007.2481-.0443.4719-.1364.6738-.0921.2003-.2314.3551-.418.4628-.188.1086-.3278.1148-.4207.0215-.0929-.0951-.139-.2663-.1397-.5144-.0007-.2464.0443-.4702.1364-.6721.0921-.2003.2314-.3551.4195-.4636.1864-.1078.3262-.1141.4191-.0207zm-.1645 1.1161c.0526-.1369.0786-.2956.0781-.4728-.0005-.1755-.0273-.3037-.0805-.3795-.0532-.0775-.1371-.0832-.2516-.017-.116.067-.1996.1694-.2536.3087-.054.1394-.0816.2973-.0811.4728s.0288.3012.0835.3778c.0546.0766.1385.0823.2546.0153.1144-.0661.198-.1668.2506-.3053" fill="#cad0dd"/></g><g><path d="m81.9143 60.7187c.0944.0942.1405.2654.1412.5118.0007.2481-.0443.4719-.1378.6747-.0921.2003-.2314.3551-.418.4628-.1865.1077-.3263.114-.4192.0206-.093-.0951-.1405-.2655-.1412-.5136-.0007-.2464.0457-.471.1379-.673.0921-.2003.2314-.3551.418-.4628.1864-.1076.3262-.1139.4191-.0205zm-.1645 1.116c.0526-.1369.0786-.2956.0781-.4728-.0005-.1755-.0273-.3037-.0805-.3795-.0532-.0775-.1371-.0832-.2516-.017-.1146.0662-.1996.171-.2536.3087-.0526.1386-.0801.2964-.0796.4719s.0288.3012.082.3787c.0546.0783.14.0815.2546.0153.1144-.0661.198-.1667.2506-.3053" fill="#cad0dd"/></g><g><path d="m84.015 62.2107c.0944.0942.1405.2654.1412.5118.0007.2481-.0443.4719-.1379.6747-.0921.2002-.2314.3551-.418.4628s-.3263.114-.4193.0206c-.0929-.0951-.1405-.2654-.1412-.5136-.0007-.2464.0458-.471.1379-.673.0921-.2003.2314-.3551.418-.4628s.3264-.114.4193-.0205zm-.1631 1.1152c.0526-.1368.0786-.2956.0781-.4728-.0005-.1755-.0273-.3037-.0805-.3795-.0532-.0775-.1385-.0823-.2531-.0162s-.1996.1693-.2522.3079c-.054.1394-.0816.2973-.0811.4728s.0288.3012.0835.3778c.0532.0775.1385.0823.2531.0162s.1997-.1677.2522-.3062" fill="#cad0dd"/></g><g><path d="m83.2627 59.9402c.093.0951.1391.2663.1398.5127.0007.2481-.0443.4719-.1364.6738-.0921.2003-.2329.3559-.4194.4636s-.3263.114-.4192.0206c-.093-.0951-.1405-.2654-.1412-.5135-.0007-.2464.0458-.471.1379-.673.0921-.2002.2314-.3551.418-.4628.1863-.1077.3275-.1148.4205-.0214zm-.1646 1.1161c.0526-.1369.0786-.2956.0781-.4728-.0005-.1755-.0273-.3037-.0805-.3795-.0532-.0775-.1385-.0823-.2531-.0162s-.1996.171-.2522.3079c-.054.1394-.0816.2973-.0811.4728s.0288.3012.0835.3778c.0532.0792.1385.0823.2531.0162.1146-.0662.1997-.1677.2522-.3062" fill="#cad0dd"/></g><g><path d="m84.07 59.2898.0045 1.573-.2189.1264-.0038-1.3367-.2776.1602-.0006-.2363z" fill="#cad0dd"/></g><g><path d="m84.8162 58.859.0044 1.573-.2188.1264-.0038-1.3367-.2776.1602-.0007-.2362z" fill="#cad0dd"/></g><g><path d="m86.1019 58.301c.0929.0951.139.2663.1397.5127.0007.2481-.0443.4719-.1364.6738-.0936.2011-.2329.3559-.4195.4636-.1865.1077-.3263.114-.4192.0206-.093-.0951-.1405-.2654-.1412-.5136-.0007-.2464.0457-.471.1379-.673.0921-.2003.2314-.3551.418-.4628.1865-.1076.3263-.1139.4207-.0213zm-.1646 1.116c.0526-.1369.0786-.2956.0781-.4728-.0005-.1755-.0273-.3037-.0805-.3795-.0532-.0775-.1371-.0832-.2531-.0162-.1146.0661-.1981.1702-.2522.3079-.054.1394-.0816.2973-.0811.4728s.0288.3012.0835.3778c.0547.0783.1385.0823.2531.0162.1161-.0669.1997-.1676.2522-.3062" fill="#cad0dd"/></g><g><path d="m87.4488 57.5233c.093.0951.1391.2663.1398.5127.0007.2481-.0443.4719-.1364.6738-.0921.2003-.2314.3551-.418.4628-.188.1086-.3278.1149-.4207.0215-.0929-.0951-.139-.2663-.1397-.5144-.0007-.2464.0443-.4702.1364-.6721.0921-.2003.2314-.3551.4195-.4636.1864-.1078.3261-.1141.4191-.0207zm-.1646 1.1161c.0526-.1369.0786-.2956.0781-.4728-.0005-.1755-.0273-.3037-.0805-.3795-.0532-.0775-.1371-.0832-.2516-.017-.116.067-.1996.171-.2536.3087-.054.1394-.0816.2973-.081.4728.0005.1755.0288.3012.0835.3778.0547.0783.1385.0823.2546.0153.1144-.0661.198-.1667.2505-.3053" fill="#cad0dd"/></g><g><path d="m81.922 63.4191c.0944.0942.1405.2654.1412.5118.0007.2481-.0443.4718-.1378.6747-.0921.2002-.2314.3551-.418.4628s-.3263.114-.4193.0206c-.093-.0951-.1405-.2655-.1412-.5136-.0007-.2464.0457-.471.1378-.673.0921-.2003.2314-.3551.418-.4628.1866-.1076.3263-.1139.4193-.0205zm-.1646 1.1161c.0526-.1368.0786-.2956.0781-.4728-.0005-.1755-.0273-.3037-.0805-.3795-.0532-.0775-.1371-.0832-.2516-.017-.1146.0662-.1996.1693-.2537.3087-.0526.1385-.0801.2964-.0796.472.0005.1755.0288.3012.082.3787.0546.0766.14.0815.2546.0153s.1982-.1669.2507-.3054" fill="#cad0dd"/></g><g><path d="m82.7308 62.7679.0044 1.573-.2188.1263-.0038-1.3367-.2791.1611-.0007-.2363z" fill="#cad0dd"/></g><g><path d="m84.8238 61.5594.0045 1.573-.2189.1264-.0038-1.3367-.2776.1603-.0006-.2363z" fill="#cad0dd"/></g><g><path d="m86.1096 61.0014c.0929.0951.139.2663.1397.5127.0007.2481-.0443.4719-.1364.6738-.0936.2011-.2329.3559-.4195.4636-.1865.1077-.3263.114-.4192.0206-.093-.0951-.1405-.2655-.1412-.5136-.0007-.2464.0457-.471.1378-.673.0921-.2003.2314-.3551.418-.4628.1866-.1076.3263-.1139.4208-.0213zm-.1646 1.1161c.0526-.1368.0786-.2956.0781-.4728-.0005-.1755-.0273-.3037-.0805-.3795-.0532-.0775-.1371-.0832-.2531-.0162-.1146.0661-.1981.1685-.2522.3079-.054.1394-.0816.2973-.0811.4728s.0288.3012.0835.3778c.0546.0766.1385.0823.2531.0162.1161-.067.1996-.1677.2522-.3062" fill="#cad0dd"/></g><g><path d="m87.4564 60.2238c.093.0951.1391.2663.1398.5127.0007.2481-.0443.4719-.1364.6738-.0921.2003-.2314.3551-.418.4628-.188.1086-.3278.1149-.4207.0215-.0929-.0951-.139-.2663-.1397-.5144-.0007-.2464.0443-.4702.1364-.6721.0921-.2003.2314-.3551.4195-.4637.1864-.1078.3262-.1141.4191-.0206zm-.1645 1.116c.0526-.1368.0786-.2956.0781-.4728-.0005-.1755-.0273-.3037-.0805-.3795-.0532-.0775-.1371-.0832-.2516-.017-.116.067-.1996.1693-.2536.3087s-.0816.2973-.0811.4728.0288.3012.0835.3778c.0546.0766.1385.0823.2546.0153.1144-.066.198-.1667.2506-.3053" fill="#cad0dd"/></g><g><path d="m81.9296 66.1195c.0944.0942.1405.2654.1412.5118.0007.2481-.0443.4718-.1378.6747-.0921.2003-.2314.3551-.418.4628-.1865.1077-.3263.114-.4192.0206-.093-.0951-.1405-.2654-.1412-.5135-.0007-.2464.0457-.471.1379-.673.0921-.2003.2314-.3551.418-.4628.1864-.1077.3262-.114.4191-.0206zm-.1645 1.1161c.0526-.1369.0786-.2956.0781-.4728-.0005-.1755-.0273-.3037-.0805-.3795-.0532-.0775-.1371-.0832-.2516-.017-.1146.0662-.1996.1693-.2536.3087-.0526.1385-.0801.2964-.0796.4719s.0288.3012.082.3787c.0546.0766.14.0815.2546.0153.1144-.0661.198-.1668.2506-.3053" fill="#cad0dd"/></g><g><path d="m82.7384 65.4683.0045 1.573-.2189.1263-.0037-1.3367-.2791.1612-.0007-.2363z" fill="#cad0dd"/></g><g><path d="m84.0227 64.9111c.0944.0942.1405.2654.1412.5118.0007.2481-.0443.4719-.1379.6747-.0921.2003-.2314.3551-.418.4628s-.3263.114-.4193.0206c-.0929-.0951-.1405-.2654-.1412-.5135-.0007-.2464.0458-.471.1378-.673.0921-.2003.2314-.3551.418-.4628.1867-.1077.3264-.114.4194-.0206zm-.1631 1.1152c.0526-.1369.0786-.2956.0781-.4728-.0005-.1755-.0273-.3037-.0805-.3795-.0532-.0775-.1385-.0823-.2531-.0162s-.1996.1693-.2522.3079c-.054.1394-.0816.2973-.0811.4728s.0288.3012.0835.3778c.0532.0775.1385.0823.2531.0162s.1996-.1676.2522-.3062" fill="#cad0dd"/></g><g><path d="m84.8315 64.2599.0044 1.573-.2188.1263-.0038-1.3367-.2776.1603-.0007-.2363z" fill="#cad0dd"/></g><g><path d="m86.1172 63.7018c.0929.0951.139.2663.1397.5127.0007.2481-.0443.4719-.1364.6738-.0936.2011-.2329.3559-.4195.4637-.1865.1077-.3263.114-.4192.0206-.093-.0951-.1405-.2654-.1412-.5135-.0007-.2464.0457-.471.1379-.673.0921-.2003.2314-.3551.418-.4628.1865-.1077.3263-.114.4207-.0215zm-.1645 1.1161c.0526-.1369.0786-.2956.0781-.4728-.0005-.1755-.0273-.3037-.0805-.3795-.0532-.0775-.1371-.0832-.2531-.0162-.1146.0661-.1981.1685-.2522.3079-.054.1394-.0816.2973-.0811.4728s.0288.3012.0835.3778c.0546.0766.1385.0823.2531.0162.116-.067.1996-.1676.2522-.3062" fill="#cad0dd"/></g><g><path d="m87.4641 62.9242c.093.0951.1391.2663.1398.5127.0007.2481-.0443.4719-.1364.6738-.0921.2003-.2314.3551-.418.4628-.188.1086-.3278.1149-.4207.0214-.0929-.0951-.139-.2663-.1397-.5144-.0007-.2464.0443-.4702.1364-.6721.0921-.2003.2314-.3551.4195-.4637.1864-.1076.3261-.1139.4191-.0205zm-.1646 1.1161c.0526-.1369.0786-.2956.0781-.4728-.0005-.1755-.0273-.3037-.0805-.3795-.0532-.0775-.1371-.0832-.2516-.017-.116.067-.1996.1693-.2536.3087s-.0816.2973-.081.4728c.0005.1755.0288.3012.0835.3778s.1385.0823.2546.0153c.1144-.0661.198-.1668.2505-.3053" fill="#cad0dd"/></g><g><path d="m81.9373 68.8199c.0944.0942.1405.2654.1412.5119.0007.2481-.0443.4718-.1378.6746-.0921.2003-.2314.3551-.418.4628s-.3263.114-.4193.0206c-.093-.0951-.1405-.2654-.1412-.5135-.0007-.2464.0457-.471.1379-.673.0921-.2003.2314-.3551.418-.4628.1865-.1077.3262-.114.4192-.0206zm-.1646 1.1161c.0526-.1369.0786-.2956.0781-.4728-.0005-.1755-.0273-.3037-.0805-.3795-.0532-.0775-.1371-.0831-.2516-.017-.1146.0661-.1996.1693-.2537.3087-.0526.1386-.0801.2964-.0796.472s.0288.3012.082.3787c.0546.0767.14.0815.2546.0153s.1982-.1668.2507-.3054" fill="#cad0dd"/></g><g><path d="m83.2857 68.0415c.093.0951.1391.2663.1398.5127.0007.2481-.0443.4719-.1364.6738-.0921.2003-.2329.3559-.4194.4636s-.3263.114-.4192.0206c-.093-.0951-.1405-.2654-.1412-.5135-.0007-.2464.0458-.471.1379-.673.0921-.2002.2314-.3551.418-.4628.1863-.1077.3275-.1148.4205-.0214zm-.1646 1.1161c.0526-.1369.0786-.2956.0781-.4728-.0005-.1755-.0273-.3037-.0805-.3795-.0532-.0775-.1385-.0823-.2531-.0162s-.1996.1693-.2522.3079c-.054.1394-.0815.2973-.081.4728s.0288.3012.0835.3778c.0532.0775.1385.0823.2531.0162.1145-.0662.1995-.1677.2521-.3062" fill="#cad0dd"/></g><g><path d="m84.6326 67.2638c.093.0951.139.2663.1397.5127.0007.2481-.0443.4718-.1364.6738-.0921.2003-.2314.3551-.418.4628-.188.1085-.3278.1148-.4207.0214-.093-.0951-.139-.2663-.1397-.5144-.0007-.2464.0443-.4702.1364-.6721.0921-.2003.2314-.3551.4194-.4636.1866-.1077.3263-.114.4193-.0206zm-.1646 1.1161c.0526-.1368.0786-.2956.0781-.4728-.0005-.1755-.0273-.3037-.0805-.3795-.0532-.0775-.1371-.0831-.2516-.017-.116.067-.1996.1693-.2536.3087s-.0801.2964-.0796.472c.0005.1755.0274.302.082.3787s.1385.0823.2546.0153c.1144-.0662.198-.1668.2506-.3054" fill="#cad0dd"/></g><g><path d="m85.4399 66.6135.0044 1.573-.2188.1263-.0038-1.3367-.2776.1603-.0007-.2363z" fill="#cad0dd"/></g><g><path d="m86.186 66.1827.0045 1.573-.2189.1263-.0038-1.3367-.2776.1603-.0006-.2363z" fill="#cad0dd"/></g><g><path d="m87.4717 65.6246c.093.0951.1391.2663.1398.5127.0007.2481-.0443.4719-.1364.6738-.0921.2003-.2314.3551-.418.4628-.188.1086-.3278.1149-.4207.0215-.0929-.0951-.139-.2663-.1397-.5144-.0007-.2464.0443-.4702.1364-.6721.0921-.2002.2314-.3551.4195-.4636.1865-.1078.3262-.1141.4191-.0207zm-.1645 1.1161c.0526-.1369.0786-.2956.0781-.4728-.0005-.1755-.0273-.3037-.0805-.3795-.0532-.0775-.1371-.0831-.2516-.017-.116.067-.1996.1693-.2536.3087s-.0816.2973-.0811.4728.0288.3012.0835.3778c.0546.0767.1385.0823.2546.0153.1144-.0661.198-.1667.2506-.3053" fill="#cad0dd"/></g></g><g><g><path d="m64.5773 66.907-2.4706 1.7702c-.1223.5091-.2962 1.0244-.5113 1.5516l1.6027 1.3741-1.9195 3.3128-2.1062-.6804c-.2981.3499-.6273.6822-.9668.9731l-.3105 3.2728-2.6981 1.5577-.328-2.9042c-.3298.0956-.67.1498-.9795.1507l-2.0954 3.1062-1.9217-1.0951 1.5794-3.2113c-.2174-.2775-.3833-.5965-.5082-.963l-2.4828 1.0897-.0088-3.1122 2.3059-1.6513c.1014-.5919.2647-1.2077.4899-1.8237l-1.4063-1.2267 1.9092-3.3069 1.6829.5574c.4522-.5811.9561-1.1328 1.4705-1.5839l.2403-2.5448 2.6981-1.5577.254 2.2594c.5256-.1494 1.031-.1804 1.4747-.1166l1.664-2.4897 1.932 1.0891-1.3948 2.8439c.2176.3603.3839.7859.4986 1.253l2.2974-1.0064zm-8.0473 6.703c1.73-.9988 3.1316-3.4264 3.1259-5.4143-.0056-1.9879-1.4164-2.7918-3.1464-1.793s-3.1316 3.4264-3.1259 5.4143 1.4164 2.7918 3.1464 1.793" fill="#416e84"/></g><g><path d="m74.8313 52.7137-1.9151 1.2242c-.1124.3849-.2556.7876-.4402 1.1905l1.1278 1.2098-1.5711 2.4835-1.5389-.6879c-.2365.2669-.504.5162-.7613.7121l-.3744 2.5748-2.0704 1.0413-.1201-2.325c-.2577.054-.5052.0665-.7322.0435l-1.7057 2.3241-1.3747-1.0079 1.3031-2.4354c-.1451-.2363-.249-.5082-.3323-.8038l-1.896.6917.1271-2.4795 1.7915-1.141c.1018-.4737.2449-.9356.4396-1.4154l-.9933-1.074 1.5609-2.4776 1.2393.5527c.3495-.427.7507-.8245 1.152-1.1511l.2935-2.0066 2.0806-1.0472.0877 1.8103c.3918-.0721.7735-.0673 1.1037.0146l1.346-1.8557 1.3953.996-1.1595 2.1628c.1453.3073.2494.6501.3124 1.0286l1.762-.638zm-3.3632.4913c.0948-1.8201-1.0712-2.6617-2.5963-1.896-.0616.031-.1228.064-.1836.0992-1.4539.8395-2.6666 2.8391-2.7577 4.5761-.0948 1.8202 1.0712 2.6617 2.5963 1.8961.0616-.031.1228-.064.1836-.0992 1.4539-.8394 2.6666-2.8391 2.7577-4.5762" fill="#f9bb4a"/></g><g><path d="m75.4645 68.6692-1.9151 1.236c-.1124.3849-.2659.7936-.4402 1.1787l1.1278 1.2216-1.5711 2.4835-1.5492-.682c-.2262.2491-.4937.4984-.751.7062l-.3744 2.5748-2.0806 1.0472-.1201-2.3249c-.2474.048-.4949.0605-.7322.0434l-1.6954 2.3182-1.3747-1.0079 1.3031-2.4354c-.1451-.2363-.2593-.5022-.3323-.8037l-1.896.6917.1271-2.4794 1.7915-1.1411c.1018-.4736.2449-.9355.4396-1.4153l-.9933-1.074 1.5608-2.4894 1.2291.5705c.3598-.4448.7609-.8423 1.1623-1.157l.2934-2.0185 2.0806-1.0472.0774 1.828c.4021-.078.7837-.085 1.114.0087l1.346-1.8557 1.385 1.002-1.1595 2.1628c.1555.2895.2494.6383.3227 1.0227l1.7517-.6321zm-3.4706.5461c.0912-1.7395-1.0296-2.5584-2.4956-1.8225-.0542.0276-.1079.0568-.1615.0877-1.4041.8108-2.5778 2.7407-2.6657 4.4163-.0912 1.7396 1.0296 2.5584 2.4956 1.8225.0592-.0297.118-.0615.1765-.0953 1.3975-.8068 2.5632-2.7293 2.6507-4.4087" fill="#f9607f"/></g></g><g><g><path d="m36.4651 110.314-.0111 3.9228-2.7143 2.0223.0112-3.9228z" fill="#75ca75"/></g><g><path d="m11.7337 112.7089-.0111 3.9228-3.2598-2.3948.0111-3.9228z" fill="#75ca75"/></g><g><path d="m29.8728 116.1184-.0095 3.3645c.0031-1.1006-.7221-2.2028-2.1741-3.0412-2.8855-1.666-7.5477-1.6583-10.4145.0076-1.4274.8295-2.1436 1.9156-2.1467 3.0027l.0095-3.3644c.0031-1.0871.7193-2.1732 2.1467-3.0027 2.8668-1.666 7.5289-1.6736 10.4145-.0076 1.452.8383 2.1772 1.9406 2.1741 3.0411z" fill="#6eba6e"/></g><g><path d="m5.5757 117.7291-.0111 2.6937-.0185-2.0527.0112-3.9227z" fill="#e4e8f4"/></g><g><path d="m39.4623 117.7556-.0111 2.6937-4.6992.3104.0112-2.6937z" fill="#75ca75"/></g><g><path d="m11.1824 118.1371-.0111 2.6937-5.6067-.408.0111-2.6937z" fill="#75ca75"/></g><g><path d="m12.0463 119.2901-.0111 3.9228c-.3542-.3637-.6627-.754-.8639-1.1531l.0111-3.9228c.2012.3992.5097.7895.8639 1.1531z" fill="#6eba6e"/></g><g><path d="m34.7632 118.066-.0112 3.9228c-.2878.5587-.7137 1.0732-1.2467 1.5787l.0111-3.9228c.5331-.5055.9589-1.0199 1.2468-1.5787z" fill="#6eba6e"/></g><g><path d="m19.0325 122.6694-.0111 2.6937c-.6897-.1153-1.3644-.2927-1.9934-.4967l.0111-2.6937c.629.204 1.3038.3814 1.9934.4967z" fill="#6eba6e"/></g><g><path d="m28.4018 122.3323-.0111 2.6937c-.7797.2217-1.5597.3902-2.3707.4878l.0111-2.6937c.8111-.0976 1.591-.2661 2.3707-.4878z" fill="#6eba6e"/></g><g><path d="m36.5302 121.8799-.0111 2.6937-3.9988 2.3238.0111-2.6937z" fill="#6eba6e"/></g><g><path d="m32.5314 124.2037-.0111 2.6937-4.1296-1.8714.0111-2.6937z" fill="#75ca75"/></g><g><path d="m12.564 124.2038-.0111 2.6937-4.0249-2.3238.0111-2.6937z" fill="#6eba6e"/></g><g><path d="m17.0391 122.1727-.0111 2.6937-4.4751 2.0311.0111-2.6937z" fill="#75ca75"/></g><g><path d="m26.0312 122.8201-.0112 2.6937-.6103 3.0955.0111-2.6937z" fill="#75ca75"/></g><g><path d="m19.7398 125.9067-.0111 2.6937-.7073-3.2373.0111-2.6937z" fill="#75ca75"/></g><g><path d="m32.5314 124.2037-4.1296-1.8715c-.7797.2218-1.5597.3903-2.3707.4878l-.6103 3.0955-5.681-.0089-.7073-3.2374c-.6897-.1153-1.3645-.2927-1.9935-.4967l-4.4751 2.0311-4.0248-2.3236 3.5072-2.5899c-.3542-.3637-.6627-.754-.8639-1.1531l-5.6066-.408-.0185-3.2817 5.3266-.3725c.1812-.4612.4541-.9224.8498-1.3659l-3.2598-2.3948 3.9988-2.3238 3.8686 1.7384c.8557-.3193 1.7577-.5588 2.7216-.7273l.5359-2.7141 5.6809-.0089.5658 2.5899c1.0879.133 2.1613.3814 3.1278.7095l3.467-1.5877 4.0249 2.3238-2.7142 2.0223c.5697.5588 1.0019 1.1797 1.2351 1.8094l4.4577.3104.0186 3.2995-4.6992.3105c-.2878.5588-.7137 1.0732-1.2468 1.5788l3.0138 2.2351zm-15.2264-5.0863c2.8855 1.6659 7.5609 1.6659 10.4277-.0001s2.8515-4.3741-.034-6.0401-7.5477-1.6583-10.4145.0076c-2.8667 1.6661-2.8647 4.3667.0208 6.0326" fill="#9ad898"/></g><g><path d="m25.4208 125.9156-.0111 2.6937-5.681-.0089.0111-2.6937z" fill="#6eba6e"/></g></g></g></g></g></svg>