<?xml version="1.0" encoding="utf-8"?>
<!-- Generator: Adobe Illustrator 16.0.0, SVG Export Plug-In . SVG Version: 6.00 Build 0)  -->
<!DOCTYPE svg PUBLIC "-//W3C//DTD SVG 1.1//EN" "http://www.w3.org/Graphics/SVG/1.1/DTD/svg11.dtd">
<svg xmlns="http://www.w3.org/2000/svg" xmlns:xlink="http://www.w3.org/1999/xlink" version="1.1" id="data_x5F_cleaning" x="0px" y="0px" width="512" height="512" viewBox="0 0 512 512" enable-background="new 0 0 512 512" xml:space="preserve">
<g>
	<g>
		<g>
			<path fill="#FFCFA7" d="M201.799,13.464v232.049c0,3.219-2.6,5.818-5.819,5.818H13.567c-3.22,0-5.818-2.6-5.818-5.818V13.464     c0-3.219,2.599-5.818,5.818-5.818H195.98C199.2,7.646,201.799,10.245,201.799,13.464z"/>
		</g>
		<g>
			<path fill="#FFCFA7" d="M233.563,46.562v232.047c0,3.219-2.601,5.818-5.82,5.818H45.33c-3.22,0-5.818-2.6-5.818-5.818V46.562     c0-3.221,2.599-5.82,5.818-5.82h182.413C230.962,40.741,233.563,43.341,233.563,46.562z"/>
			<path fill="#FF876B" d="M45.33,28.093c-10.189,0-18.469,8.279-18.469,18.469v204.77h12.65V46.562c0-3.221,2.599-5.82,5.818-5.82     h156.47V28.093H45.33z"/>
		</g>
		<g>
			<path fill="#FFCFA7" d="M76.458,320.862h182.42c3.207,0,5.809-2.602,5.809-5.809V82.993c0-3.209-2.602-5.811-5.809-5.811H76.458     c-3.209,0-5.81,2.602-5.81,5.811v232.061C70.649,318.261,73.25,320.862,76.458,320.862z"/>
			<path fill="#FF876B" d="M76.45,64.524c-10.167,0-18.446,8.279-18.446,18.469v201.434h12.65V82.993c0-3.219,2.599-5.82,5.796-5.82     h157.113V64.524H76.45z"/>
		</g>
		<rect x="96.625" y="109.702" fill="#FF876B" width="82.499" height="13.801"/>
		<rect x="96.625" y="137.304" fill="#FF876B" width="136.938" height="13.799"/>
		<rect x="96.625" y="164.903" fill="#FF876B" width="82.499" height="13.799"/>
		<rect x="96.625" y="192.503" fill="#FF876B" width="82.499" height="13.801"/>
	</g>
	<path fill="#7ED4F8" d="M480.42,405.937v79.719c0,10.324-8.371,18.699-18.721,18.699H254.515c-9.107,0-14.03-10.674-8.119-17.619   l11.133-13.018c13.66-15.986,22.4-35.582,25.184-56.42l1.656-11.361H480.42z"/>
	<path fill="#FD7851" d="M501.582,285.454c-7.09,2.467-10.77,6.146-13.236,13.236c-1.238,3.559-6.201,3.559-7.439,0   c-2.467-7.09-6.146-10.77-13.236-13.236c-3.559-1.238-3.559-6.201,0-7.439c7.09-2.467,10.77-6.146,13.236-13.236   c1.238-3.559,6.201-3.559,7.439,0c2.467,7.09,6.146,10.77,13.236,13.236C505.141,279.253,505.141,284.216,501.582,285.454z"/>
	<path fill="#FD7851" d="M247.067,400.165c-7.09,2.465-10.769,6.145-13.236,13.236c-1.238,3.559-6.2,3.559-7.438,0   c-2.467-7.092-6.146-10.771-13.236-13.236c-3.559-1.24-3.559-6.203,0-7.439c7.091-2.467,10.77-6.148,13.236-13.236   c1.238-3.561,6.2-3.561,7.438,0c2.468,7.088,6.146,10.77,13.236,13.236C250.627,393.962,250.627,398.925,247.067,400.165z"/>
	<path fill="#61D0A9" d="M398.682,224.987v121.555H366.48V224.987c0-8.879,7.223-16.1,16.102-16.1   C391.482,208.888,398.682,216.108,398.682,224.987z"/>
	<path fill="#61D0A9" d="M480.424,365.034v28.244H284.373v-28.244c0-10.211,8.256-18.492,18.467-18.492h159.115   C472.145,346.542,480.424,354.823,480.424,365.034z"/>
	<rect x="47.723" y="360.769" fill="#8BBCE2" width="12.649" height="13.799"/>
	<rect x="47.723" y="388.485" fill="#8BBCE2" width="12.649" height="13.799"/>
	<rect x="476.072" y="205.153" fill="#8BBCE2" width="12.65" height="13.799"/>
	<rect x="476.072" y="177.435" fill="#8BBCE2" width="12.65" height="13.801"/>
	<path fill="#8BBCE2" d="M488.473,85.698v76.223h-12.648V92.024h-50.531c0.252-1.771,0.369-3.588,0.369-5.428   c0-2.461-0.209-4.875-0.621-7.223h57.107C485.645,79.374,488.473,82.204,488.473,85.698z"/>
	<g>
		<path fill="#8BBCE2" d="M425.041,79.374c-3.428-20.031-20.932-35.328-41.93-35.328c-23.461,0-42.551,19.09-42.551,42.551    c0,23.459,19.09,42.549,42.551,42.549c21.619,0,39.537-16.215,42.182-37.121c0.252-1.771,0.369-3.588,0.369-5.428    C425.662,84.136,425.453,81.722,425.041,79.374z M404.248,107.733c-5.428,5.404-12.881,8.764-21.137,8.764    c-16.492,0-29.9-13.41-29.9-29.9c0-16.492,13.408-29.9,29.9-29.9c16.49,0,29.9,13.408,29.9,29.9    C413.012,94.854,409.652,102.306,404.248,107.733z"/>
	</g>
	<path fill="#3081BE" d="M437.848,79.382h-12.789c0.416,2.348,0.621,4.738,0.621,7.199c0,1.84-0.115,3.682-0.367,5.451h12.766   c0.16-1.795,0.252-3.611,0.252-5.451C438.33,84.144,438.17,81.729,437.848,79.382z"/>
	<path fill="#D13C2A" d="M381.223,102.351c-1.801,0-3.521-0.768-4.725-2.121l-14.506-16.299l9.449-8.41l9.4,10.564l36.557-48.027   l10.066,7.664l-41.211,54.135c-1.143,1.504-2.9,2.418-4.789,2.49C381.383,102.349,381.303,102.351,381.223,102.351z"/>
	<rect x="421.865" y="450.882" fill="#0062A6" width="13.801" height="53.418"/>
	<path fill="#0062A6" d="M381.729,450.878c0,1.381-0.092,30.521-7.66,53.477h-14.65c8.395-20.908,8.51-53.154,8.51-53.477H381.729z"/>
	<path fill="#0062A6" d="M328.781,451.567c-0.137,1.473-3.221,30.59-15.824,52.787h-16.49   c14.857-19.115,18.561-53.822,18.607-54.166L328.781,451.567z"/>
	<rect x="366.5" y="334.013" fill="#299092" width="32.227" height="12.65"/>
	<path fill="#8BBCE2" d="M190.94,479.329H54.299c-3.496,0-6.325-2.83-6.325-6.324V417.78h12.65v48.9H190.94V479.329z"/>
	<path fill="#3081BE" d="M173.693,466.681v12.648h12.65v-12.648H173.693z"/>
	<rect x="284.369" y="393.286" fill="#0062A6" width="196.051" height="12.65"/>
	<path fill="#8BBCE2" d="M193.931,495.407l17.868-19.676c1.521-1.674,1.508-4.23-0.029-5.887l-17.868-19.275   c-1.218-1.314-3.115-1.748-4.784-1.094c-1.667,0.652-2.765,2.264-2.765,4.053v38.951c0,1.799,1.107,3.414,2.785,4.063   S192.722,496.739,193.931,495.407z"/>
</g>
</svg>
