<svg id="Layer_1" height="512" viewBox="0 0 256 256" width="512" xmlns="http://www.w3.org/2000/svg"><g><g><g><g><path d="m205.977 103.313c.051-1.093.165-2.169.165-3.274 0-38.54-31.243-69.782-69.782-69.782-31.487 0-58.082 20.863-66.769 49.513-1.486-.116-2.975-.227-4.491-.227-31.536 0-57.1 25.565-57.1 57.1s25.565 57.1 57.1 57.1h137.602c25.017 0 45.298-20.281 45.298-45.298 0-23.911-18.541-43.448-42.023-45.132z" fill="#478cf7"/></g></g><g><path d="m128 164.977c1.274.344 2.607.544 3.989.544 11.51 0 20.05-12.717 12.336-24.866-5.939-5.731-11.548-6.463-16.326-5.173v-23.482h-23.481c1.29 4.778.557 10.386-5.173 16.326-12.15 7.713-24.866-.827-24.866-12.336 0-1.383.2-2.715.544-3.989h-61.443c-3.575 7.46-5.58 15.816-5.58 24.642 0 31.535 25.565 57.1 57.1 57.1h62.9z" fill="#478cf7"/></g><g><path d="m24.863 170.108c-.593 0-1.181-.263-1.575-.767-7.385-9.422-11.288-20.73-11.288-32.698 0-3.871.413-7.717 1.228-11.431.235-1.078 1.299-1.767 2.382-1.524 1.078.236 1.762 1.303 1.524 2.382-.752 3.432-1.134 6.99-1.134 10.573 0 11.065 3.609 21.52 10.437 30.232.682.869.529 2.126-.341 2.808-.367.287-.801.425-1.233.425z" fill="#5e9cf7"/></g><circle cx="17.442" cy="117.25" fill="#5e9cf7" r="1.989"/><g><g><path d="m55.1 183.743c-13.219 0-25.378-4.504-35.056-12.044 10.449 13.41 26.739 22.044 45.056 22.044h62.9v-10c-31.234 0-68.641 0-72.9 0z" fill="#377de2"/></g></g><g><g><path d="m60.1 188.743c-14.495 0-27.72-5.411-37.789-14.311 10.462 11.838 25.749 19.311 42.789 19.311h62.9v-5c-30.097 0-63.866 0-67.9 0z" fill="#2266d3"/></g></g><g><path d="m80.196 128.326c12.15 7.713 24.866-.827 24.866-12.336 0-1.383-.2-2.715-.544-3.989h23.482v-23.482c-1.274.344-2.607.544-3.989.544-11.51 0-20.05-12.716-12.336-24.866 5.939-5.73 11.548-6.463 16.326-5.173v-28.265c-27.761 3.317-50.503 22.936-58.409 49.01-1.486-.116-2.975-.227-4.491-.227-22.71 0-42.321 13.259-51.52 32.457h61.443c-1.29 4.779-.558 10.387 5.172 16.327z" fill="#ffc91d"/></g><g><path d="m136.36 30.257c-2.83 0-5.619.175-8.36.502v28.264c-4.778-1.29-10.386-.557-16.326 5.173-7.713 12.15.827 24.866 12.336 24.866 1.382 0 2.715-.2 3.989-.544v23.482h23.481c-1.29-4.778-.557-10.386 5.173-16.326 12.15-7.713 24.866.827 24.866 12.336 0 1.383-.2 2.715-.544 3.989h48.576c-6.691-4.925-14.787-8.057-23.576-8.687.051-1.093.165-2.169.165-3.274.002-38.539-31.24-69.781-69.78-69.781z" fill="#76a34f"/></g><g><path d="m175.804 95.674c-12.15-7.713-24.866.827-24.866 12.336 0 1.383.2 2.715.544 3.989h-23.482v23.481c4.778-1.29 10.386-.558 16.326 5.173 7.713 12.15-.827 24.866-12.336 24.866-1.382 0-2.715-.2-3.989-.544v28.767h74.702c25.017 0 45.298-20.281 45.298-45.298 0-14.962-7.26-28.211-18.447-36.445h-48.576c1.288-4.777.556-10.385-5.174-16.325z" fill="#e63950"/></g><g><g><path d="m229.553 112h-.11c5.375 7.437 8.558 16.562 8.558 26.445 0 25.017-20.281 45.298-45.298 45.298-6.262 0-34.997 0-64.702 0v10h74.702c25.017 0 45.298-20.281 45.298-45.298-.001-14.962-7.261-28.211-18.448-36.445z" fill="#d10028"/></g></g><g><g><path d="m232.213 114.137c6.725 7.892 10.787 18.12 10.787 29.308 0 25.017-20.281 45.298-45.298 45.298-6.613 0-38.288 0-69.702 0v5h74.702c25.017 0 45.298-20.281 45.298-45.298 0-13.735-6.129-26.014-15.787-34.308z" fill="#b7022d"/></g></g></g><g><g><g><path d="m238.547 13.959-30.431-.089c-1.785-.005-2.682 2.152-1.42 3.414l5.887 5.887-16.628 16.628c-.781.781-.781 2.047 0 2.828l15.918 15.918c.781.781 2.047.781 2.828 0l16.628-16.628 5.887 5.887c1.262 1.262 3.419.365 3.414-1.42l-.089-30.431c-.003-1.1-.894-1.991-1.994-1.994z" fill="#76a34f"/></g><g><path d="m17.453 13.959 30.431-.089c1.785-.005 2.682 2.152 1.42 3.414l-5.887 5.887 16.628 16.628c.781.781.781 2.047 0 2.828l-15.918 15.918c-.781.781-2.047.781-2.828 0l-16.629-16.628-5.887 5.887c-1.262 1.262-3.419.365-3.414-1.42l.089-30.431c.004-1.1.895-1.991 1.995-1.994z" fill="#ffc91d"/></g></g><g><g><path d="m238.547 242.041-30.431.089c-1.785.005-2.682-2.152-1.42-3.414l5.887-5.887-16.628-16.628c-.781-.781-.781-2.047 0-2.828l15.918-15.918c.781-.781 2.047-.781 2.828 0l16.628 16.628 5.887-5.887c1.262-1.262 3.419-.365 3.414 1.42l-.089 30.431c-.003 1.1-.894 1.991-1.994 1.994z" fill="#e63950"/></g><g><path d="m17.453 242.041 30.431.089c1.785.005 2.682-2.152 1.42-3.414l-5.887-5.887 16.628-16.628c.781-.781.781-2.047 0-2.828l-15.918-15.918c-.781-.781-2.047-.781-2.828 0l-16.629 16.628-5.887-5.887c-1.262-1.262-3.419-.365-3.414 1.42l.089 30.431c.004 1.1.895 1.991 1.995 1.994z" fill="#478cf7"/></g></g></g></g></svg>