<svg height="512" viewBox="0 0 512 512" width="512" xmlns="http://www.w3.org/2000/svg"><g id="FLAT"><path d="m367.88092 72a23.883 23.883 0 0 0 -23.883 23.88331l.00208 144.11669h72a24 24 0 0 1 -24-24v-120a24.02552 24.02552 0 0 0 -24.11908-24z" fill="#afafaf"/><path d="m463.88092 24.00146a23.883 23.883 0 0 0 -23.883 23.88333l.00208 136.11521h32a16 16 0 0 0 16-16v-119.99854a24.02552 24.02552 0 0 0 -24.11908-24z" fill="#afafaf"/><path d="m192 24a24 24 0 0 0 -24 24v24h199.99925a24 24 0 0 1 24 24.00026l-.00133 119.99974a24.02553 24.02553 0 0 0 24.11908 24h.60236a23.28068 23.28068 0 0 0 23.28064-23.281v-168.719a24 24 0 0 1 24-24z" fill="#d3d1cf"/><path d="m40 72a16 16 0 0 0 -16 16v384a16 16 0 0 0 16 16h288a16 16 0 0 0 16-16v-376a24 24 0 0 1 24-24z" fill="#e5e1dc"/><path d="m40 72a16 16 0 0 0 -16 16v384a16 16 0 0 0 16 16h288a16 16 0 0 0 16-16v-376a24 24 0 0 1 24-24z" fill="#e5e1dc"/><g fill="#57b584"><path d="m128 104h112v16h-112z"/><path d="m56 136v256h256v-256zm240 40h-144v-24h144zm-144 48h64v152h-64zm0-16v-16h64v16zm80-16h64v16h-64zm-96-40v24h-64v-24zm-64 40h64v184h-64zm160 184v-152h64v152z"/><path d="m176 336h16v16h-16z"/><path d="m256 240h16v16h-16z"/><path d="m256 272h16v16h-16z"/><path d="m176 304h16v16h-16z"/></g><path d="m104 424h168a16 16 0 0 1 16 16 16 16 0 0 1 -16 16h-168l-24-16z" fill="#f29d35"/><path d="m120 456v-32h-16l-24 16 24 16z" fill="#c17633"/><path d="m88 240h32v16h-32z" fill="#57b584"/><path d="m88 272h32v16h-32z" fill="#57b584"/><path d="m88 304h32v16h-32z" fill="#57b584"/><path d="m88 336h32v16h-32z" fill="#57b584"/><path d="m483.02942 459.02942-75.02942-75.02942-24 24 75.02942 75.02942a16.97055 16.97055 0 0 0 12 4.97058h.00006a16.97056 16.97056 0 0 0 11.99994-28.97058z" fill="#205682"/><circle cx="352" cy="352" fill="#3b6fd9" r="72"/><path d="m344 320h16v64h-16z" fill="#205682"/><path d="m320 344h64v16h-64z" fill="#205682"/></g></svg>