<svg id="Icons" height="512" viewBox="0 0 60 60" width="512" xmlns="http://www.w3.org/2000/svg"><path d="m5 28v-15a3 3 0 0 1 3-3h10l24 7h10a3 3 0 0 1 3 3v8z" fill="#c7af3e"/><path d="m42 4v24c0 1.657-5.373 3-12 3s-12-1.343-12-3v-24z" fill="#2d629b"/><ellipse cx="30" cy="4" fill="#3778c6" rx="12" ry="3"/><path d="m18 20c0 1.657 5.373 3 12 3s12-1.343 12-3v-8c0 1.657-5.373 3-12 3s-12-1.343-12-3z" fill="#3778c6"/><path d="m51.049 59h-42.098a2.959 2.959 0 0 1 -2.958-2.333l-4.946-26.353a2.881 2.881 0 0 1 2.953-3.314h52a2.881 2.881 0 0 1 2.957 3.314l-4.95 26.353a2.959 2.959 0 0 1 -2.958 2.333z" fill="#e3c84c"/><g fill="#4b95ff"><path d="m25 11.728a.9.9 0 0 1 -.115-.007c-.729-.083-1.419-.185-2.063-.3a1 1 0 0 1 .354-1.969c.6.11 1.254.2 1.937.282a1 1 0 0 1 -.113 1.994z"/><path d="m30 12q-.516 0-1.021-.011a1 1 0 0 1 -.979-1.02 1.013 1.013 0 0 1 1.021-.98c.646.014 1.312.014 1.958 0a1.018 1.018 0 0 1 1.021.98 1 1 0 0 1 -.979 1.02q-.505.011-1.021.011z"/><path d="m35 11.728a1 1 0 0 1 -.113-1.994c.683-.079 1.333-.172 1.937-.282a1 1 0 0 1 .354 1.969c-.644.115-1.334.217-2.063.3a.9.9 0 0 1 -.115.007z"/><path d="m25 19.728a.9.9 0 0 1 -.115-.007c-.729-.083-1.419-.185-2.063-.3a1 1 0 0 1 .354-1.969c.6.11 1.254.2 1.937.282a1 1 0 0 1 -.113 1.994z"/><path d="m30 20q-.516 0-1.021-.011a1 1 0 0 1 -.979-1.02 1.021 1.021 0 0 1 1.021-.98c.646.014 1.312.014 1.958 0a1.026 1.026 0 0 1 1.021.98 1 1 0 0 1 -.979 1.02q-.505.011-1.021.011z"/><path d="m35 19.728a1 1 0 0 1 -.113-1.994c.683-.079 1.333-.172 1.937-.282a1 1 0 0 1 .354 1.969c-.644.115-1.334.217-2.063.3a.9.9 0 0 1 -.115.007z"/></g><path d="m30 31a10.993 10.993 0 0 0 -.394 21.98l-1.313 1.313a1 1 0 1 0 1.414 1.414l3-3a1 1 0 0 0 0-1.414l-3-3a1 1 0 0 0 -1.414 1.414l1.271 1.271a8.984 8.984 0 1 1 7.636-3.578 1 1 0 1 0 1.6 1.2 11 11 0 0 0 -8.8-17.6z" fill="#fff"/></svg>