<svg id="Layer_1" height="512" viewBox="0 0 64 64" width="512" xmlns="http://www.w3.org/2000/svg" data-name="Layer 1"><circle cx="51" cy="51" fill="#7583a6" r="12"/><path d="m63 1-8.81913 1.07957 2.83638 2.85707-4.92569 4.81815-3.43268-3.35773a1.06 1.06 0 0 0 -1.40432-.06273l-6.25456 5.09833 1.33459 1.56734 5.52313-4.50286 3.49681 3.42046a1.05855 1.05855 0 0 0 1.47405 0l5.66272-5.53908 2.84078 2.77881z" fill="#bf8686"/><path d="m52 55h-2v-4a.99974.99974 0 0 1 1-1 2.5 2.5 0 1 0 -2.5-2.5h-2a4.5 4.5 0 1 1 5.5 4.3877z" fill="#cee0f2"/><path d="m50 57h2v2h-2z" fill="#cee0f2"/><path d="m19.5 45h5v7h-5z" fill="#a3b1bf"/><rect fill="#608cbf" height="13" rx="1.897" width="9" x="17.5" y="50"/><circle cx="22" cy="25" fill="#608cbf" r="21"/><circle cx="22" cy="25" fill="#cee0f2" r="18"/><path d="m16 13c-2.76138 0-5 1.9188-5 4.28569a3.68684 3.68684 0 0 0 .20649 1.15332 4.35587 4.35587 0 0 0 -3.20649 3.98955 3.98263 3.98263 0 0 0 1.43518 3 3.98266 3.98266 0 0 0 -1.43518 3 4.32986 4.32986 0 0 0 3.04034 3.94268c-.01078.11514-.04034.22554-.04034.343 0 2.36696 2.2386 4.28576 5 4.28576a5.28276 5.28276 0 0 0 4-1.73784v-20.52432a5.28276 5.28276 0 0 0 -4-1.73784z" fill="#ccac52"/><path d="m33.95715 26.75115a9.84776 9.84776 0 0 0 0-3.50222l2.04238-1.25457a12.17548 12.17548 0 0 0 -3.00045-5.54714l-1.18418.72752a1.38771 1.38771 0 0 1 -1.56132-.04029 8.88422 8.88422 0 0 0 -1.34139-.82228 1.56856 1.56856 0 0 1 -.81351-1.41914v-1.45225a10.62825 10.62825 0 0 0 -3.15226-.43982q-.479.00648-.94635.05808l-.00007 7.60276a3.74667 3.74667 0 0 1 1.091-.1618 4.31008 4.31008 0 0 1 4.09086 4.5 4.31014 4.31014 0 0 1 -4.09086 4.5 3.74667 3.74667 0 0 1 -1.091-.1618l.00007 7.60371a10.3567 10.3567 0 0 0 1.23532.05713 10.63819 10.63819 0 0 0 2.86329-.44576v-1.44638a1.5687 1.5687 0 0 1 .81351-1.41914 8.873 8.873 0 0 0 1.34139-.82229 1.3881 1.3881 0 0 1 1.56132-.04021l1.17839.72393a12.17267 12.17267 0 0 0 3.00671-5.54326z" fill="#7583a6"/><g fill="#7c88a6"><path d="m11.199 18.442a5.25076 5.25076 0 0 0 -1.403.71814l1.77942 1.77942a.75032.75032 0 0 0 .53027.21972h2v-1.5h-1.68937z"/><path d="m15.356 19.659h1.5v1.5h-1.5z"/><path d="m14.94 30.153h1.5v1.5h-1.5z"/><path d="m9.43518 25.42853a4.54877 4.54877 0 0 0 -.40948.43182h2.9743v-1.5h-3.437a4.3765 4.3765 0 0 0 .87218 1.06818z"/><path d="m11.28387 30.27258-1.81994 1.171a5.07558 5.07558 0 0 0 1.43066.86328l1.01526-.65338h1.77979v-1.5h-2a.74744.74744 0 0 0 -.40577.1191z"/><path d="m13.25 24.36h1.5v1.5h-1.5z"/></g></svg>