<svg id="Layer_1" enable-background="new 0 0 53 53" height="512" viewBox="0 0 53 53" width="512" xmlns="http://www.w3.org/2000/svg"><g id="_x31_9"><g><g><path d="m22.7851295 50.5096817h-.0000076c-1.6936417 0-3.0666122-1.3729668-3.0666122-3.0666122v-1.5089722h6.1332321v1.5089722c0 1.6936454-1.3729687 3.0666122-3.0666123 3.0666122z" fill="#5b5e8b"/></g></g><g><g><path d="m23.6454735 50.3903084c-.2722797.0778008-.5639629.1166725-.8556461.1166725-1.7015591 0-3.0725632-1.370945-3.0725632-3.0627708v-1.5071411h1.7112923v1.5071411c-.0000001 1.4001426.9334468 2.5766105 2.216917 2.9460983z" fill="#312e4b"/></g></g><g><g><g><path d="m29.2007122 43.0129509v1.7084084c0 1.0504074-.8594265 1.909832-1.9098339 1.909832h-9.0144081c-1.0504093 0-1.9098339-.8594246-1.9098339-1.909832v-1.7084084z" fill="#deddff"/></g></g></g><g><g><g><path d="m20.8257236 46.6274376h-2.547472c-1.0501213 0-1.9155006-.855648-1.9155006-1.9057693v-1.7112313h2.5572052v1.7112312c0 1.0501214.8556461 1.9057694 1.9057674 1.9057694z" fill="#c6c6f7"/></g></g></g><g><g><g><path d="m35.1054306 16.5851154v3.1982498c0 .4492359-.3637123.8022385-.8022385.8022385-.4493027 0-.8022423-.3530025-.8022423-.8022385v-.8022404h-1.882597c-.4492359 0-.8022404-.3530025-.8022404-.8022385 0-.4385948.3530045-.8022404.8022404-.8022404h1.882597v-.7915306c0-.4493027.3529396-.8022404.8022423-.8022404.4385262.0000002.8022385.3529379.8022385.8022405z" fill="#5b5e8b"/></g></g><g><g><path d="m14.4717922 18.1788864c0 .4492359-.3529387.8022385-.8022394.8022385h-1.882534v.8022404c0 .4492359-.3530035.8022385-.8022394.8022385-.4385939 0-.8022394-.3530025-.8022394-.8022385v-3.1982498c0-.4493027.3636456-.8022404.8022394-.8022404.4492359 0 .8022394.3529377.8022394.8022404v.7915306h1.882534c.4493008-.0000001.8022394.3636455.8022394.8022403z" fill="#5b5e8b"/></g></g></g><g><g><path d="m41.4424973 40.9008331c.6127625-.461689.7351799-1.3325081.2733192-1.9452705-3.025486-4.0153313-4.5782471-8.0615234-4.7474594-12.3693333-.0301781-.7668839-.6826172-1.3625202-1.4425468-1.3335266-.7663765.03018-1.3635406.6760044-1.3333588 1.442379.1922722 4.8924255 1.9274673 9.4496479 5.3049469 13.9322643.4637489.615551 1.335495.7327576 1.9450989.2734871z" fill="#65b9ff"/></g></g><g><g><g><path d="m37.9191132 26.8796349c0 1.2056656-.9820518 2.1877174-2.1877213 2.1877174h-3.8017998l-1.3612118-4.3754368h5.1630116c1.2040901 0 2.1877213.9796066 2.1877213 2.1877194z" fill="#deddff"/></g></g></g><g><g><g><path d="m4.075902 40.9008331c-.6127615-.461689-.735178-1.3325081-.2733181-1.9452705 3.0254877-4.0153313 4.5782461-8.0615234 4.7474585-12.3693333.0301809-.7668839.6826172-1.3625202 1.4425497-1.3335266.7663755.03018 1.3635378.6760044 1.3333578 1.442379-.1922722 4.8924255-1.9274683 9.4496479-5.3049459 13.9322643-.4637511.615551-1.3354962.7327576-1.945102.2734871z" fill="#65b9ff"/></g></g></g><g><g><g><path d="m14.9529362 24.6919155-1.3612709 4.3754368h-3.8017426c-1.2057257 0-2.1877179-.9820518-2.1877179-2.1877174 0-1.2014732.9772067-2.1877193 2.1877179-2.1877193h5.1630135z" fill="#deddff"/></g></g></g><g><g><g><path d="m22.6431026 14.0911741c-.4429016 0-.8022385-.3593369-.8022385-.8022394v-3.2131357c0-.4429035.3593369-.8022394.8022385-.8022394.4429035 0 .8022404.3593359.8022404.8022394v3.2131357c0 .4429026-.3593368.8022394-.8022404.8022394z" fill="#5b5e8b"/></g></g></g><g><g><g><circle cx="22.584" cy="9.085" fill="#fcb73e" r="2.483"/></g></g></g><g><g><path d="m12.2887907 24.6919155h2.6641455l-1.3612709 4.3754368h-2.3141241c.0228109-.4079056-.7969151-2.7683144 1.0112495-4.3754368z" fill="#c6c6f7"/></g></g><g><g><path d="m34.2729149 27.7936172-.1556053 1.273735h-2.1877174l-1.3612118-4.3754368h2.5377407c.087532.0778027.1652756.1556053.2430801.2430801.7000389.7778436 1.0403862 1.8182317.9237137 2.8586217z" fill="#c6c6f7"/></g></g><g><g><path d="m28.9124928 43.7057991h-12.427805c-1.3856382 0-2.5478411-1.0457726-2.693572-2.4237251l-1.7036333-13.5962753c-.1691837-1.5997047 1.0849457-2.9934635 2.6935711-2.9934635h15.8350734c1.6086235 0 2.8627548 1.3937588 2.6935692 2.9934635l-1.7036324 13.5962753c-.1457309 1.3779526-1.3079338 2.4237251-2.693571 2.4237251z" fill="#65b9ff"/></g></g><g><g><path d="m18.3073902 43.7104797h-1.8182316c-1.3904104 0-2.547473-1.0501213-2.693285-2.4308014l-1.7112913-13.5930023c-.1652775-1.604351 1.0889931-2.9947605 2.6933432-2.9947605h1.8279057c-1.6140242 0-2.8682938 1.3904095-2.693284 2.9947605l1.7015591 13.5930023c.1458119 1.3806801 1.3126076 2.4308014 2.6932839 2.4308014z" fill="#3e7fff"/></g></g><g><g><g><path d="m29.7563343 29.2014141v5.9896679c0 .9407692-.7626438 1.7034111-1.703413 1.7034111h-10.70508c-.940815 0-1.7034969-.7626801-1.7034969-1.703495v-5.9896679c0-.9407692.7626438-1.703413 1.703413-1.703413h10.70508c.9408149 0 1.7034969.7626819 1.7034969 1.7034969z" fill="#deddff"/></g></g></g><g><g><g><path d="m19.6654415 39.4638863c0 .8474236-.6875343 1.5419083-1.5347862 1.5419083s-1.5417366-.6944847-1.5417366-1.5419083c0-.8470802.6944847-1.5347862 1.5417366-1.5347862s1.5347862.6877059 1.5347862 1.5347862z" fill="#fcb73e"/></g></g><g><g><path d="m24.2351246 39.4638863c0 .8474236-.6875343 1.5419083-1.5347862 1.5419083-.8473358 0-1.5418205-.6944847-1.5418205-1.5419083 0-.8470802.6944847-1.5347862 1.5418205-1.5347862.8472519-.0000001 1.5347862.6877059 1.5347862 1.5347862z" fill="#e83d62"/></g></g><g><g><path d="m29.0965233 39.4638863c0 .8474236-.6944866 1.5419083-1.5417385 1.5419083s-1.5348701-.6944847-1.5348701-1.5419083c0-.8470802.6876183-1.5347862 1.5348701-1.5347862s1.5417385.6877059 1.5417385 1.5347862z" fill="#46cc6b"/></g></g></g><g><g><g><path d="m19.2991753 40.4532318c-.2722187.3402901-.7000427.5542297-1.1667957.5542297-.8459129 0-1.5459538-.7000999-1.5459538-1.5460129 0-.8070412.6417046-1.4779434 1.4390125-1.5265503-.2236137.2625465-.3597527.6028328-.3597527.9820518 0 .8459129.6903687 1.5460167 1.5362816 1.5460167.0291386.0000001.0680695.0000001.0972081-.009735z" fill="#e87f21"/></g></g><g><g><path d="m23.8690872 40.4532318c-.2722778.3402901-.7001019.5542297-1.1667957.5542297-.8459129 0-1.5459538-.7000999-1.5459538-1.5460129 0-.8070412.6417046-1.4779434 1.4390125-1.5265503-.2236137.2625465-.3597527.6028328-.3597527.9820518 0 .8459129.6903095 1.5460167 1.5362816 1.5460167.0291387.0000001.0680104.0000001.0972081-.009735z" fill="#ce2955"/></g></g><g><g><path d="m28.7306824 40.4532318c-.28195.3402901-.709774.5542297-1.176527.5542297-.8459129 0-1.5362206-.7000999-1.5362206-1.5460129 0-.8167763.6417046-1.4779434 1.4390125-1.5265503-.2236137.2625465-.3597527.6028328-.3597527.9820518 0 .8459129.6806355 1.5460167 1.5265484 1.5460167.0388699.0000001.0777417.0000001.1069394-.009735z" fill="#179c5f"/></g></g></g><g><g><g><path d="m17.811 23.078h9.556v1.615h-9.556z" fill="#312e4b"/></g></g></g><g><g><path d="m29.9302769 23.0776863h-14.5714398c-.9311018 0-1.6859083-.7548065-1.6859083-1.6859074v-6.417016c0-.9311008.7548065-1.6859074 1.6859083-1.6859074h14.5714397c.9311008 0 1.6859074.7548065 1.6859074 1.6859074v6.417016c0 .9311009-.7548065 1.6859074-1.6859073 1.6859074z" fill="#deddff"/></g></g><g><g><path d="m17.0239811 23.0778923h-1.7112913c-.9042501 0-1.6432219-.7389717-1.6432219-1.6432228v-6.504817c0-.9042501.7389717-1.6432219 1.6432219-1.6432219h1.7112913c-.9043102 0-1.6432219.7389717-1.6432219 1.6432219v6.504817c0 .9042511.7389117 1.6432228 1.6432219 1.6432228z" fill="#c6c6f7"/></g></g><g><g><g><g><path d="m21.2464123 18.1793537c0 1.3676014-1.1154194 2.4830208-2.4830208 2.4830208s-2.4753723-1.1154194-2.4753723-2.4830208c0-1.3597679 1.1077709-2.4751863 2.4753723-2.4751863s2.4830208 1.1154184 2.4830208 2.4751863z" fill="#312e4b"/></g></g></g><g><g><g><path d="m29.0010948 18.1793537c0 1.3676014-1.1077709 2.4830208-2.4753723 2.4830208-1.3675079 0-2.4830208-1.1154194-2.4830208-2.4830208 0-1.3597679 1.1155128-2.4751863 2.4830208-2.4751863 1.3676014 0 2.4753723 1.1154184 2.4753723 2.4751863z" fill="#312e4b"/></g></g></g></g><g><g><g><g><path d="m27.0062771 30.7399502h-8.6155663c-.4026012 0-.7292385-.3266373-.7292385-.7292385s.3266373-.7292404.7292385-.7292404h8.6155663c.4026012 0 .7292385.3266392.7292385.7292404s-.3266373.7292385-.7292385.7292385z" fill="#65b9ff"/></g></g></g><g><g><g><path d="m27.0062771 34.4725571h-8.6155663c-.4026012 0-.7292385-.3266411-.7292385-.7292404 0-.4026031.3266373-.7292404.7292385-.7292404h8.6155663c.4026012 0 .7292385.3266373.7292385.7292404 0 .4025993-.3266373.7292404-.7292385.7292404z" fill="#65b9ff"/></g></g></g></g><g><g><circle cx="18.282" cy="17.885" fill="#deddff" r=".764"/></g></g><g><g><circle cx="26.949" cy="17.765" fill="#deddff" r=".764"/></g></g><g><g><circle cx="4.912" cy="39.791" fill="#deddff" r="2.41"/></g></g><g><g><path d="m6.925746 41.1076813c-.5605764.8641701-1.6427641 1.3001518-2.6859865.9965096-1.2768233-.3736839-2.0164495-1.7050133-1.6427636-2.9818344.2491398-.8563805.9342623-1.4714127 1.7361856-1.6738434-1.2011949 1.7666396.4466299 4.1954002 2.5925645 3.6591682z" fill="#c6c6f7"/></g></g><g><g><g><path d="m24.8802776 10.0293255c-.3791599.9042492-1.2640038 1.5362806-2.2946587 1.5362806-1.370945 0-2.4891357-1.1084585-2.4891357-2.4794025 0-.9528532.5444965-1.7793608 1.3320732-2.1877179-.8842105 2.2105269 1.5031376 4.1887297 3.4517212 3.1308398z" fill="#fd982e"/></g></g></g><g><g><circle cx="40.712" cy="39.791" fill="#deddff" r="2.41"/></g></g><g><g><path d="m42.7263794 41.1076813c-.5605774.8641701-1.642765 1.3001518-2.6859856.9965096-1.276825-.3736839-2.016449-1.7050133-1.642765-2.9818344.2491417-.8563805.9342651-1.4714127 1.736187-1.6738434-.1323395.1946373-.2335548.4126053-.3036423.6461563-.3658943 1.276825.3659401 2.6159439 1.6427155 2.9896317.4204444.1245459.8486328.1245459 1.2534904.0233802z" fill="#c6c6f7"/></g></g><g><g><path d="m50.4914017 9.5787773c.1921577 4.0346184-2.8628693 7.4077473-6.7946854 7.7452965-.1091003.0078011-.2103996.0623512-.2883034.1403008-1.1922112 1.1843662-2.59478 1.4259186-3.3116379 1.4649181-.1792526.0077515-.2805061-.2026024-.1714516-.3428555.3974037-.5065041.5454559-.966259.5688553-1.3558636.0077515-.2025547-.1169014-.3818054-.3039055-.4597073-2.6726799-1.1220636-4.550602-3.7635956-4.550602-6.8492823 0-4.1687522 3.4441414-7.5427427 7.651844-7.4258423 3.842991.1026863 7.0341531 3.2867037 7.1998865 7.0830356z" fill="#e83d62"/></g></g><g><g><path d="m42.0077209 17.228405c-.0449944.8241596-.6053467 1.3388557-.6053467 1.4529018-.5199318.1709194-.98283.2279072-1.3033257.2492504-.178051.0071297-.2848969-.2065201-.1709213-.3418388.3916969-.5056725.5412331-.9685726.5626183-1.3603134.0142593-.1993923-.1139336-.3774395-.2991104-.4557705-2.670723-1.1252785-4.5509262-3.7675323-4.5509262-6.8512993 0-4.166358 3.4399071-7.5421486 7.6489525-7.4282165.1780472.007129.3560982.0142577.5270157.0356445-3.7461433.3988266-6.6661224 3.5609674-6.6661224 7.3925719 0 3.0837669 1.8802032 5.7260208 4.55093 6.8512993.1922607.0783311.3133659.2563783.3062362.4557706z" fill="#ce2955"/></g></g><g><g><g><g><path d="m46.9153481 6.9943409v.0316482c0 .3387599-.2918434.6006746-.5901871.6006746h-.0632324c-.2968445 0-.5901909-.2360525-.5901909-.6006746v-.0316482c0-.3637595.2925606-.600739.5901909-.600739h.0632324c.2991752 0 .5901871.2627764.5901871.600739z" fill="#deddff"/></g></g><g><g><path d="m44.3648949 7.1102557v5.9125075c0 .3098555-.2547607.5374422-.5480537.5374422-.2968063 0-.5375099-.2403584-.5375099-.5374422v-2.4450884h-3.4252205v2.4450884c0 .3274031-.2722015.5404329-.5524368.5380249-.2820396-.0024242-.5330582-.2316055-.5330582-.5380249v-5.9125075c0-.3264999.2533569-.5398626.5266113-.5478053.2895889-.0084176.5588837.2123809.5588837.5478053v2.4450889h3.4252205v-2.4450889c0-.3165641.2447205-.5480366.5348625-.5480399.289894-.0000033.5507011.217032.5507011.5480399z" fill="#deddff"/></g></g><g><g><path d="m46.8310165 8.9124718v4.1102915c0 .306118-.2666435.5374422-.5480537.5374422-.2968826 0-.5374413-.2404881-.5374413-.5374422v-4.1102915c0-.3243179.2558899-.5526447.5427475-.5520182.2632409.0005741.5427475.2010889.5427475.5520182z" fill="#deddff"/></g></g></g></g></g></svg>